%TF.GenerationSoftware,KiCad,Pcbnew,(5.1.2)-2*%
%TF.CreationDate,2020-03-28T11:47:37+08:00*%
%TF.ProjectId,ffp,6666702e-6b69-4636-9164-5f7063625858,1*%
%TF.SameCoordinates,Original*%
%TF.FileFunction,Copper,L1,Top*%
%TF.FilePolarity,Positive*%
%FSLAX46Y46*%
G04 Gerber Fmt 4.6, Leading zero omitted, Abs format (unit mm)*
G04 Created by KiCad (PCBNEW (5.1.2)-2) date 2020-03-28 11:47:37*
%MOMM*%
%LPD*%
G04 APERTURE LIST*
%ADD10O,2.100000X1.000000*%
%ADD11O,1.600000X1.000000*%
%ADD12R,1.450000X0.600000*%
%ADD13R,1.450000X0.300000*%
%ADD14R,0.950000X1.000000*%
%ADD15R,1.000000X0.950000*%
%ADD16C,0.787000*%
%ADD17R,2.790000X0.740000*%
%ADD18R,1.100000X0.600000*%
%ADD19R,1.000000X0.600000*%
%ADD20R,0.500000X1.200000*%
%ADD21R,1.200000X0.500000*%
%ADD22C,0.800000*%
%ADD23C,0.600000*%
%ADD24C,0.600000*%
%ADD25C,0.250000*%
%ADD26C,0.400000*%
%ADD27C,0.500000*%
%ADD28C,0.350000*%
%ADD29C,0.300000*%
%ADD30O,1.700000X0.600000*%
%ADD31O,1.200000X0.600000*%
G04 APERTURE END LIST*
D10*
X118085000Y-115680000D03*
X118085000Y-124320000D03*
D11*
X113905000Y-115680000D03*
X113905000Y-124320000D03*
D12*
X119000000Y-123200000D03*
X119000000Y-122400000D03*
D13*
X119000000Y-121750000D03*
X119000000Y-121250000D03*
X119000000Y-120750000D03*
X119000000Y-120250000D03*
X119000000Y-119750000D03*
X119000000Y-119250000D03*
X119000000Y-118750000D03*
X119000000Y-118250000D03*
D12*
X119000000Y-117600000D03*
X119000000Y-116800000D03*
D14*
X147200000Y-115500000D03*
X148800000Y-115500000D03*
X151200000Y-115500000D03*
X152800000Y-115500000D03*
X147200000Y-124500000D03*
X148800000Y-124500000D03*
D15*
X141000000Y-124300000D03*
X141000000Y-122700000D03*
D16*
X122730000Y-123630000D03*
X122730000Y-122360000D03*
X124000000Y-123630000D03*
X124000000Y-122360000D03*
X125270000Y-123630000D03*
X125270000Y-122360000D03*
D17*
X147965000Y-117460000D03*
X152035000Y-117460000D03*
X147965000Y-118730000D03*
X152035000Y-118730000D03*
X147965000Y-120000000D03*
X152035000Y-120000000D03*
X147965000Y-121270000D03*
X152035000Y-121270000D03*
X147965000Y-122540000D03*
X152035000Y-122540000D03*
D18*
X145300000Y-122550000D03*
X145300000Y-124450000D03*
X142700000Y-124450000D03*
X142700000Y-123500000D03*
X142700000Y-122550000D03*
D19*
X122850000Y-116700000D03*
X125150000Y-115750000D03*
X125150000Y-117650000D03*
D20*
X137300000Y-124200000D03*
X136500000Y-124200000D03*
X135700000Y-124200000D03*
X134900000Y-124200000D03*
X134100000Y-124200000D03*
X133300000Y-124200000D03*
X132500000Y-124200000D03*
X131700000Y-124200000D03*
D21*
X130300000Y-122800000D03*
X130300000Y-122000000D03*
X130300000Y-121200000D03*
X130300000Y-120400000D03*
X130300000Y-119600000D03*
X130300000Y-118800000D03*
X130300000Y-118000000D03*
X130300000Y-117200000D03*
D20*
X131700000Y-115800000D03*
X132500000Y-115800000D03*
X133300000Y-115800000D03*
X134100000Y-115800000D03*
X134900000Y-115800000D03*
X135700000Y-115800000D03*
X136500000Y-115800000D03*
X137300000Y-115800000D03*
D21*
X138700000Y-117200000D03*
X138700000Y-118000000D03*
X138700000Y-118800000D03*
X138700000Y-119600000D03*
X138700000Y-120400000D03*
X138700000Y-121200000D03*
X138700000Y-122000000D03*
X138700000Y-122800000D03*
D14*
X152800000Y-124500000D03*
X151200000Y-124500000D03*
D15*
X127000000Y-117800000D03*
X127000000Y-116200000D03*
X121000000Y-116200000D03*
X121000000Y-117800000D03*
X144000000Y-119200000D03*
X144000000Y-120800000D03*
X142500000Y-119200000D03*
X142500000Y-120800000D03*
X141000000Y-119200000D03*
X141000000Y-120800000D03*
X128500000Y-117800000D03*
X128500000Y-116200000D03*
D22*
X138100000Y-124500000D03*
X141000000Y-118100000D03*
X142500000Y-118100000D03*
X144000000Y-118100000D03*
X152800000Y-123600000D03*
X127000000Y-118800000D03*
X128500000Y-118800000D03*
X130900000Y-115800000D03*
D23*
X144000000Y-122700000D03*
D22*
X122700000Y-121600000D03*
X122000000Y-115700000D03*
X150000000Y-118100000D03*
X150000000Y-120600000D03*
X139900000Y-124500000D03*
D23*
X133100000Y-117000000D03*
X136000000Y-118900000D03*
D22*
X125300000Y-121500000D03*
X125300000Y-118700000D03*
D23*
X134900000Y-123100000D03*
X146400000Y-124500000D03*
X145300000Y-115500000D03*
X135400000Y-118000000D03*
X143700000Y-121900000D03*
X137500000Y-121900000D03*
X134800000Y-121300000D03*
X133100000Y-121300000D03*
X135800000Y-123100000D03*
X144000000Y-123600000D03*
X136500000Y-116800000D03*
X138300000Y-115300000D03*
X146300000Y-115500000D03*
X139900000Y-117200000D03*
X130800000Y-124700000D03*
X120300000Y-124600000D03*
X134800000Y-120400000D03*
X132900000Y-120400000D03*
D24*
X127000000Y-117800000D02*
X128500000Y-117800000D01*
D25*
X141800000Y-123500000D02*
X141000000Y-124300000D01*
X142700000Y-123500000D02*
X141800000Y-123500000D01*
D26*
X141000000Y-119200000D02*
X141000000Y-118100000D01*
X142500000Y-119200000D02*
X142500000Y-118100000D01*
X144000000Y-119200000D02*
X144000000Y-118100000D01*
X150240000Y-117460000D02*
X152035000Y-117460000D01*
X150000000Y-117700000D02*
X150240000Y-117460000D01*
X150240000Y-120000000D02*
X150000000Y-119760000D01*
X152035000Y-120000000D02*
X150240000Y-120000000D01*
X150240000Y-121270000D02*
X150000000Y-121030000D01*
X152035000Y-121270000D02*
X150240000Y-121270000D01*
X152800000Y-124500000D02*
X152800000Y-123600000D01*
X127000000Y-117800000D02*
X127000000Y-118800000D01*
X128500000Y-117800000D02*
X128500000Y-118800000D01*
X131700000Y-115800000D02*
X130900000Y-115800000D01*
X126850000Y-117650000D02*
X127000000Y-117800000D01*
X125150000Y-117650000D02*
X126850000Y-117650000D01*
X122730000Y-122360000D02*
X122730000Y-121630000D01*
X122730000Y-121630000D02*
X122700000Y-121600000D01*
D25*
X143200000Y-123500000D02*
X144000000Y-122700000D01*
X142700000Y-123500000D02*
X143200000Y-123500000D01*
D26*
X121000000Y-116200000D02*
X121500000Y-116200000D01*
X121500000Y-116200000D02*
X122000000Y-115700000D01*
D25*
X152800000Y-115500000D02*
X152800000Y-117100000D01*
X152440000Y-117460000D02*
X152800000Y-117100000D01*
X152035000Y-117460000D02*
X152440000Y-117460000D01*
D26*
X150000000Y-119400000D02*
X150000000Y-117700000D01*
X150000000Y-119400000D02*
X150000000Y-118100000D01*
X150000000Y-119760000D02*
X150000000Y-119400000D01*
X150000000Y-121030000D02*
X150000000Y-120600000D01*
X150000000Y-119400000D02*
X150000000Y-120600000D01*
X150000000Y-120600000D02*
X150000000Y-119760000D01*
X140800000Y-124500000D02*
X141000000Y-124300000D01*
X139900000Y-124500000D02*
X140800000Y-124500000D01*
D25*
X138100000Y-124500000D02*
X137600000Y-124500000D01*
X137300000Y-124200000D02*
X137600000Y-124500000D01*
D26*
X119600000Y-116200000D02*
X119000000Y-116800000D01*
X121000000Y-116200000D02*
X119600000Y-116200000D01*
D27*
X119000000Y-124100000D02*
X119000000Y-123200000D01*
X118780000Y-124320000D02*
X119000000Y-124100000D01*
D24*
X118085000Y-124320000D02*
X118780000Y-124320000D01*
X127000000Y-116200000D02*
X128500000Y-116200000D01*
D26*
X144000000Y-120800000D02*
X142500000Y-120800000D01*
X142500000Y-120800000D02*
X141000000Y-120800000D01*
X142700000Y-121000000D02*
X142500000Y-120800000D01*
X142700000Y-122550000D02*
X142700000Y-121000000D01*
X130300000Y-117200000D02*
X132900000Y-117200000D01*
X132900000Y-117200000D02*
X133100000Y-117000000D01*
X136700000Y-119600000D02*
X138700000Y-119600000D01*
X136000000Y-118900000D02*
X136700000Y-119600000D01*
X129500000Y-117200000D02*
X128500000Y-116200000D01*
X130300000Y-117200000D02*
X129500000Y-117200000D01*
X125270000Y-121530000D02*
X125300000Y-121500000D01*
X125270000Y-122360000D02*
X125270000Y-121530000D01*
X124250000Y-115750000D02*
X125150000Y-115750000D01*
X124000000Y-116000000D02*
X124250000Y-115750000D01*
X124300000Y-118700000D02*
X124000000Y-118400000D01*
X124000000Y-118400000D02*
X124000000Y-116000000D01*
X125300000Y-118700000D02*
X124300000Y-118700000D01*
X126550000Y-115750000D02*
X127000000Y-116200000D01*
X125150000Y-115750000D02*
X126550000Y-115750000D01*
X140100000Y-120800000D02*
X140000000Y-120700000D01*
X141000000Y-120800000D02*
X140100000Y-120800000D01*
X140000000Y-120700000D02*
X140000000Y-119700000D01*
X139900000Y-119600000D02*
X138700000Y-119600000D01*
X140000000Y-119700000D02*
X139900000Y-119600000D01*
D25*
X140100000Y-120800000D02*
X140100000Y-122100000D01*
X139400000Y-122800000D02*
X138700000Y-122800000D01*
X140100000Y-122100000D02*
X139400000Y-122800000D01*
D26*
X120925000Y-117875000D02*
X121000000Y-117800000D01*
X121000000Y-117800000D02*
X122500000Y-117800000D01*
X122850000Y-117450000D02*
X122850000Y-116700000D01*
X122500000Y-117800000D02*
X122850000Y-117450000D01*
X117863002Y-122125000D02*
X118138002Y-122400000D01*
X119000000Y-117600000D02*
X118138002Y-117600000D01*
X118138002Y-117600000D02*
X117863002Y-117875000D01*
X116925000Y-122125000D02*
X117863002Y-122125000D01*
X117863002Y-117875000D02*
X117025000Y-117875000D01*
X117025000Y-117875000D02*
X116600000Y-118300000D01*
X118138002Y-122400000D02*
X119000000Y-122400000D01*
X116600000Y-118300000D02*
X116600000Y-121800000D01*
X116600000Y-121800000D02*
X116925000Y-122125000D01*
X119945002Y-117600000D02*
X120125001Y-117779999D01*
X119000000Y-117600000D02*
X119945002Y-117600000D01*
X120979999Y-117779999D02*
X121000000Y-117800000D01*
X120125001Y-117779999D02*
X120979999Y-117779999D01*
X148800000Y-123600000D02*
X148800000Y-124500000D01*
X148700000Y-123500000D02*
X148800000Y-123600000D01*
X145550000Y-123500000D02*
X148700000Y-123500000D01*
X145300000Y-123250000D02*
X145550000Y-123500000D01*
X145300000Y-122550000D02*
X145300000Y-123250000D01*
X148800000Y-124500000D02*
X151200000Y-124500000D01*
X151200000Y-124500000D02*
X151200000Y-122900000D01*
X151560000Y-122540000D02*
X151200000Y-122900000D01*
X152035000Y-122540000D02*
X151560000Y-122540000D01*
D25*
X140250000Y-122700000D02*
X141000000Y-122700000D01*
X136500000Y-123350000D02*
X136750000Y-123100000D01*
X136500000Y-124200000D02*
X136500000Y-123350000D01*
X136750000Y-123100000D02*
X137635002Y-123100000D01*
X137635002Y-123100000D02*
X137935002Y-123400000D01*
X137935002Y-123400000D02*
X139550000Y-123400000D01*
X139550000Y-123400000D02*
X140250000Y-122700000D01*
X134900000Y-124200000D02*
X134900000Y-123100000D01*
X147200000Y-124500000D02*
X146400000Y-124500000D01*
X134100000Y-124200000D02*
X134100000Y-118100000D01*
X134900000Y-117300000D02*
X134900000Y-115800000D01*
X134100000Y-118100000D02*
X134900000Y-117300000D01*
X146896410Y-117460000D02*
X146550010Y-117113600D01*
X147965000Y-117460000D02*
X146896410Y-117460000D01*
X146550010Y-117113600D02*
X146500000Y-117063590D01*
X146500000Y-117063590D02*
X146500000Y-117000000D01*
X146500000Y-117000000D02*
X145300000Y-115800000D01*
X145300000Y-115800000D02*
X145300000Y-115500000D01*
X134900000Y-117500000D02*
X134900000Y-117300000D01*
X135400000Y-118000000D02*
X134900000Y-117500000D01*
X146803590Y-122540000D02*
X146063590Y-121800000D01*
X147965000Y-122540000D02*
X146803590Y-122540000D01*
X146063590Y-121800000D02*
X145500000Y-121800000D01*
X145500000Y-121800000D02*
X143800000Y-121800000D01*
X143800000Y-121800000D02*
X143700000Y-121900000D01*
X133300000Y-123350000D02*
X133600000Y-123050000D01*
X133300000Y-124200000D02*
X133300000Y-123350000D01*
X133600000Y-117900000D02*
X134100000Y-117400000D01*
X134100000Y-117015000D02*
X134100000Y-115800000D01*
X134100000Y-117400000D02*
X134100000Y-117015000D01*
X133600000Y-121375736D02*
X133600000Y-121400000D01*
X133600000Y-123050000D02*
X133600000Y-121400000D01*
X133524264Y-121300000D02*
X133600000Y-121375736D01*
X133100000Y-121300000D02*
X133524264Y-121300000D01*
X133600000Y-121400000D02*
X133600000Y-117900000D01*
X136900000Y-121300000D02*
X137500000Y-121900000D01*
X134800000Y-121300000D02*
X136900000Y-121300000D01*
X129036410Y-122800000D02*
X130300000Y-122800000D01*
X127336410Y-124500000D02*
X129036410Y-122800000D01*
X124313507Y-124500000D02*
X127336410Y-124500000D01*
X124000000Y-123630000D02*
X124000000Y-124186493D01*
X124000000Y-124186493D02*
X124313507Y-124500000D01*
X125663499Y-124023499D02*
X127176501Y-124023499D01*
X125270000Y-123630000D02*
X125663499Y-124023499D01*
X129200000Y-122000000D02*
X130300000Y-122000000D01*
X127176501Y-124023499D02*
X129200000Y-122000000D01*
X120713600Y-120349990D02*
X126649190Y-120349990D01*
X120313590Y-120750000D02*
X120713600Y-120349990D01*
X127499200Y-121200000D02*
X130300000Y-121200000D01*
X126649190Y-120349990D02*
X127499200Y-121200000D01*
X119000000Y-120750000D02*
X120089600Y-120750000D01*
X120089600Y-120750000D02*
X120313590Y-120750000D01*
X120116600Y-120032780D02*
X120116600Y-120740380D01*
X120116600Y-119891600D02*
X120116600Y-120032780D01*
X119975000Y-119750000D02*
X120116600Y-119891600D01*
X119000000Y-119750000D02*
X119975000Y-119750000D01*
X120111410Y-119250000D02*
X120761390Y-119899980D01*
X119000000Y-119250000D02*
X120111410Y-119250000D01*
X129450000Y-120400000D02*
X130300000Y-120400000D01*
X127410400Y-120400000D02*
X129450000Y-120400000D01*
X126910380Y-119899980D02*
X127410400Y-120400000D01*
X120761390Y-119899980D02*
X126910380Y-119899980D01*
X118068140Y-120250000D02*
X119000000Y-120250000D01*
X117868700Y-120080140D02*
X118068140Y-120250000D01*
X117868700Y-119451120D02*
X117868700Y-120080140D01*
X119000000Y-119250000D02*
X118082520Y-119250000D01*
X118082520Y-119250000D02*
X117868700Y-119451120D01*
X135700000Y-124200000D02*
X135700000Y-123200000D01*
X135700000Y-123200000D02*
X135800000Y-123100000D01*
X144000000Y-123600000D02*
X144000000Y-124100000D01*
X143650000Y-124450000D02*
X142700000Y-124450000D01*
X144000000Y-124100000D02*
X143650000Y-124450000D01*
X135700000Y-117200000D02*
X135700000Y-115800000D01*
X136964998Y-117500000D02*
X136000000Y-117500000D01*
X145100000Y-117700000D02*
X143900000Y-116500000D01*
X143900000Y-116500000D02*
X137964998Y-116500000D01*
X136000000Y-117500000D02*
X135700000Y-117200000D01*
X137964998Y-116500000D02*
X136964998Y-117500000D01*
X145100000Y-117700000D02*
X145100000Y-120200000D01*
X146170000Y-121270000D02*
X147965000Y-121270000D01*
X145100000Y-120200000D02*
X146170000Y-121270000D01*
X136500000Y-115800000D02*
X136500000Y-116800000D01*
X146320000Y-118730000D02*
X146100000Y-118510000D01*
X147965000Y-118730000D02*
X146320000Y-118730000D01*
X146100000Y-118510000D02*
X146100000Y-117300000D01*
X146100000Y-117300000D02*
X144300000Y-115500000D01*
X144300000Y-115500000D02*
X138500000Y-115500000D01*
X138500000Y-115500000D02*
X138300000Y-115300000D01*
X146320000Y-120000000D02*
X145600000Y-119280000D01*
X147965000Y-120000000D02*
X146320000Y-120000000D01*
X145600000Y-119280000D02*
X145600000Y-117500000D01*
X145600000Y-117500000D02*
X144100000Y-116000000D01*
X144100000Y-116000000D02*
X137600000Y-116000000D01*
X137400000Y-115800000D02*
X137600000Y-116000000D01*
X137300000Y-115800000D02*
X137400000Y-115800000D01*
X147200000Y-115500000D02*
X146300000Y-115500000D01*
X138700000Y-117200000D02*
X139900000Y-117200000D01*
X138700000Y-120400000D02*
X135400000Y-120400000D01*
X120300000Y-121400000D02*
X120300000Y-124600000D01*
X123300000Y-120800000D02*
X120900000Y-120800000D01*
X124000000Y-122360000D02*
X124000000Y-121500000D01*
X130800000Y-124700000D02*
X130800000Y-123735002D01*
X120900000Y-120800000D02*
X120300000Y-121400000D01*
X124000000Y-121500000D02*
X123300000Y-120800000D01*
X135400000Y-120400000D02*
X134800000Y-120400000D01*
X131435002Y-123100000D02*
X130800000Y-123735002D01*
X131435002Y-121864998D02*
X131435002Y-123100000D01*
X132900000Y-120400000D02*
X131435002Y-121864998D01*
X151200000Y-115500000D02*
X148800000Y-115500000D01*
D28*
X138100000Y-124500000D03*
X141000000Y-118100000D03*
X142500000Y-118100000D03*
X144000000Y-118100000D03*
X152800000Y-123600000D03*
X127000000Y-118800000D03*
X128500000Y-118800000D03*
X130900000Y-115800000D03*
D29*
X144000000Y-122700000D03*
D28*
X122700000Y-121600000D03*
X122000000Y-115700000D03*
X150000000Y-118100000D03*
X150000000Y-120600000D03*
X139900000Y-124500000D03*
D29*
X133100000Y-117000000D03*
X136000000Y-118900000D03*
D28*
X125300000Y-121500000D03*
X125300000Y-118700000D03*
D29*
X134900000Y-123100000D03*
X146400000Y-124500000D03*
X145300000Y-115500000D03*
X135400000Y-118000000D03*
X143700000Y-121900000D03*
X137500000Y-121900000D03*
X134800000Y-121300000D03*
X133100000Y-121300000D03*
X135800000Y-123100000D03*
X144000000Y-123600000D03*
X136500000Y-116800000D03*
X138300000Y-115300000D03*
X146300000Y-115500000D03*
X139900000Y-117200000D03*
X130800000Y-124700000D03*
X120300000Y-124600000D03*
X134800000Y-120400000D03*
X132900000Y-120400000D03*
D30*
X118085000Y-115680000D03*
X118085000Y-124320000D03*
D31*
X113905000Y-115680000D03*
X113905000Y-124320000D03*
D28*
X117555000Y-122890000D03*
X117555000Y-117110000D03*
X121460000Y-124011000D03*
X121460000Y-121979000D03*
X126540000Y-122995000D03*
M02*
