G04 #@! TF.GenerationSoftware,KiCad,Pcbnew,(5.1.2)-2*
G04 #@! TF.CreationDate,2020-03-28T12:37:28+08:00*
G04 #@! TF.ProjectId,ffp,6666702e-6b69-4636-9164-5f7063625858,1*
G04 #@! TF.SameCoordinates,Original*
G04 #@! TF.FileFunction,Copper,L2,Bot*
G04 #@! TF.FilePolarity,Positive*
%FSLAX46Y46*%
G04 Gerber Fmt 4.6, Leading zero omitted, Abs format (unit mm)*
G04 Created by KiCad (PCBNEW (5.1.2)-2) date 2020-03-28 12:37:28*
%MOMM*%
%LPD*%
G04 APERTURE LIST*
%ADD10O,2.100000X1.000000*%
%ADD11O,1.600000X1.000000*%
%ADD12C,0.800000*%
%ADD13C,0.600000*%
%ADD14C,0.400000*%
%ADD15C,0.250000*%
%ADD16C,0.270000*%
G04 APERTURE END LIST*
D10*
X118085000Y-115680000D03*
X118085000Y-124320000D03*
D11*
X113905000Y-115680000D03*
X113905000Y-124320000D03*
D12*
X138100000Y-124500000D03*
X141000000Y-118100000D03*
X142500000Y-118100000D03*
X144000000Y-118100000D03*
X152800000Y-123600000D03*
X127000000Y-118800000D03*
X128500000Y-118800000D03*
X130900000Y-115800000D03*
D13*
X144000000Y-122700000D03*
D12*
X122700000Y-121600000D03*
X122000000Y-115700000D03*
X150000000Y-118100000D03*
X150000000Y-120600000D03*
X139900000Y-124500000D03*
D13*
X133100000Y-117000000D03*
X136000000Y-118900000D03*
D12*
X125300000Y-121500000D03*
X125300000Y-118700000D03*
D13*
X134900000Y-123100000D03*
X146400000Y-124500000D03*
X145300000Y-115500000D03*
X135400000Y-118000000D03*
X143700000Y-121900000D03*
X137500000Y-121900000D03*
X134800000Y-121300000D03*
X133100000Y-121300000D03*
X135800000Y-123100000D03*
X144000000Y-123600000D03*
X136500000Y-116800000D03*
X138300000Y-115300000D03*
X146300000Y-115500000D03*
X139900000Y-117200000D03*
X130800000Y-124700000D03*
X120300000Y-124600000D03*
X134800000Y-120400000D03*
X132900000Y-120400000D03*
D14*
X133100000Y-117000000D02*
X135000000Y-118900000D01*
X135000000Y-118900000D02*
X136000000Y-118900000D01*
X125300000Y-121500000D02*
X125300000Y-118700000D01*
D15*
X146400000Y-124500000D02*
X143900000Y-124500000D01*
X143900000Y-124500000D02*
X143000000Y-123600000D01*
X143000000Y-123600000D02*
X136400000Y-123600000D01*
X136400000Y-123600000D02*
X136100000Y-123900000D01*
X134900000Y-123100000D02*
X134900000Y-123700000D01*
X135100000Y-123900000D02*
X136100000Y-123900000D01*
X134900000Y-123700000D02*
X135100000Y-123900000D01*
X139200000Y-115500000D02*
X145300000Y-115500000D01*
X135400000Y-118000000D02*
X136700000Y-118000000D01*
X136700000Y-118000000D02*
X139200000Y-115500000D01*
X143700000Y-121900000D02*
X137500000Y-121900000D01*
X134800000Y-121300000D02*
X133100000Y-121300000D01*
X135800000Y-123100000D02*
X143500000Y-123100000D01*
X143500000Y-123100000D02*
X144000000Y-123600000D01*
X136800000Y-116800000D02*
X136500000Y-116800000D01*
X138300000Y-115300000D02*
X136800000Y-116800000D01*
X146300000Y-115500000D02*
X145600000Y-116200000D01*
X145600000Y-116200000D02*
X144900000Y-116200000D01*
X144900000Y-116200000D02*
X144700000Y-116000000D01*
X140675736Y-116000000D02*
X140900000Y-116000000D01*
X139900000Y-116775736D02*
X140675736Y-116000000D01*
X139900000Y-117200000D02*
X139900000Y-116775736D01*
X144700000Y-116000000D02*
X140900000Y-116000000D01*
X120300000Y-124600000D02*
X120599999Y-124899999D01*
X130600001Y-124899999D02*
X130800000Y-124700000D01*
X127900001Y-124899999D02*
X130600001Y-124899999D01*
X120599999Y-124899999D02*
X127900001Y-124899999D01*
X134800000Y-120400000D02*
X132900000Y-120400000D01*
D16*
G36*
X116776975Y-115176509D02*
G01*
X116693314Y-115334067D01*
X116641999Y-115504919D01*
X116636598Y-115535176D01*
X116727504Y-115677500D01*
X118082500Y-115677500D01*
X118082500Y-115657500D01*
X118087500Y-115657500D01*
X118087500Y-115677500D01*
X119442496Y-115677500D01*
X119533402Y-115535176D01*
X119528001Y-115504919D01*
X119476686Y-115334067D01*
X119393025Y-115176509D01*
X119324988Y-115093140D01*
X137617237Y-115093140D01*
X137590000Y-115230071D01*
X137590000Y-115253395D01*
X136720543Y-116122854D01*
X136707099Y-116117285D01*
X136569929Y-116090000D01*
X136430071Y-116090000D01*
X136292901Y-116117285D01*
X136163689Y-116170807D01*
X136047402Y-116248507D01*
X135948507Y-116347402D01*
X135870807Y-116463689D01*
X135817285Y-116592901D01*
X135790000Y-116730071D01*
X135790000Y-116869929D01*
X135817285Y-117007099D01*
X135870807Y-117136311D01*
X135948507Y-117252598D01*
X136047402Y-117351493D01*
X136163689Y-117429193D01*
X136250134Y-117465000D01*
X135869091Y-117465000D01*
X135852598Y-117448507D01*
X135736311Y-117370807D01*
X135607099Y-117317285D01*
X135469929Y-117290000D01*
X135330071Y-117290000D01*
X135192901Y-117317285D01*
X135063689Y-117370807D01*
X134947402Y-117448507D01*
X134848507Y-117547402D01*
X134770807Y-117663689D01*
X134728499Y-117765829D01*
X133789455Y-116826786D01*
X133782715Y-116792901D01*
X133729193Y-116663689D01*
X133651493Y-116547402D01*
X133552598Y-116448507D01*
X133436311Y-116370807D01*
X133307099Y-116317285D01*
X133169929Y-116290000D01*
X133030071Y-116290000D01*
X132892901Y-116317285D01*
X132763689Y-116370807D01*
X132647402Y-116448507D01*
X132548507Y-116547402D01*
X132470807Y-116663689D01*
X132417285Y-116792901D01*
X132390000Y-116930071D01*
X132390000Y-117069929D01*
X132417285Y-117207099D01*
X132470807Y-117336311D01*
X132548507Y-117452598D01*
X132647402Y-117551493D01*
X132763689Y-117629193D01*
X132892901Y-117682715D01*
X132926786Y-117689455D01*
X134547476Y-119310146D01*
X134566578Y-119333422D01*
X134659463Y-119409650D01*
X134765434Y-119466293D01*
X134880419Y-119501173D01*
X135000000Y-119512951D01*
X135029961Y-119510000D01*
X135634964Y-119510000D01*
X135663689Y-119529193D01*
X135792901Y-119582715D01*
X135930071Y-119610000D01*
X136069929Y-119610000D01*
X136207099Y-119582715D01*
X136336311Y-119529193D01*
X136452598Y-119451493D01*
X136551493Y-119352598D01*
X136629193Y-119236311D01*
X136682715Y-119107099D01*
X136710000Y-118969929D01*
X136710000Y-118830071D01*
X136682715Y-118692901D01*
X136629193Y-118563689D01*
X136610024Y-118535000D01*
X136673732Y-118535000D01*
X136700000Y-118537587D01*
X136726268Y-118535000D01*
X136726275Y-118535000D01*
X136804878Y-118527258D01*
X136905726Y-118496667D01*
X136998668Y-118446988D01*
X137080132Y-118380132D01*
X137096887Y-118359716D01*
X139421604Y-116035000D01*
X139884132Y-116035000D01*
X139540279Y-116378854D01*
X139519869Y-116395604D01*
X139453013Y-116477068D01*
X139403334Y-116570010D01*
X139372742Y-116670858D01*
X139367027Y-116728882D01*
X139348507Y-116747402D01*
X139270807Y-116863689D01*
X139217285Y-116992901D01*
X139190000Y-117130071D01*
X139190000Y-117269929D01*
X139217285Y-117407099D01*
X139270807Y-117536311D01*
X139348507Y-117652598D01*
X139447402Y-117751493D01*
X139563689Y-117829193D01*
X139692901Y-117882715D01*
X139830071Y-117910000D01*
X139969929Y-117910000D01*
X140107099Y-117882715D01*
X140236311Y-117829193D01*
X140352598Y-117751493D01*
X140451493Y-117652598D01*
X140529193Y-117536311D01*
X140582715Y-117407099D01*
X140610000Y-117269929D01*
X140610000Y-117130071D01*
X140582715Y-116992901D01*
X140540750Y-116891590D01*
X140897341Y-116535000D01*
X144478397Y-116535000D01*
X144503113Y-116559716D01*
X144519868Y-116580132D01*
X144601332Y-116646988D01*
X144691384Y-116695122D01*
X144694274Y-116696667D01*
X144795122Y-116727258D01*
X144900000Y-116737588D01*
X144926275Y-116735000D01*
X145573732Y-116735000D01*
X145600000Y-116737587D01*
X145626268Y-116735000D01*
X145626275Y-116735000D01*
X145704878Y-116727258D01*
X145805726Y-116696667D01*
X145898668Y-116646988D01*
X145980132Y-116580132D01*
X145996887Y-116559716D01*
X146346604Y-116210000D01*
X146369929Y-116210000D01*
X146507099Y-116182715D01*
X146636311Y-116129193D01*
X146752598Y-116051493D01*
X146851493Y-115952598D01*
X146929193Y-115836311D01*
X146982715Y-115707099D01*
X147010000Y-115569929D01*
X147010000Y-115430071D01*
X146982715Y-115292901D01*
X146929193Y-115163689D01*
X146882054Y-115093140D01*
X153311200Y-115093140D01*
X153311201Y-124908920D01*
X146980678Y-124908920D01*
X147029193Y-124836311D01*
X147082715Y-124707099D01*
X147110000Y-124569929D01*
X147110000Y-124430071D01*
X147082715Y-124292901D01*
X147029193Y-124163689D01*
X146951493Y-124047402D01*
X146852598Y-123948507D01*
X146736311Y-123870807D01*
X146607099Y-123817285D01*
X146469929Y-123790000D01*
X146330071Y-123790000D01*
X146192901Y-123817285D01*
X146063689Y-123870807D01*
X145947402Y-123948507D01*
X145930909Y-123965000D01*
X144610024Y-123965000D01*
X144629193Y-123936311D01*
X144682715Y-123807099D01*
X144710000Y-123669929D01*
X144710000Y-123530071D01*
X144682715Y-123392901D01*
X144629193Y-123263689D01*
X144551493Y-123147402D01*
X144452598Y-123048507D01*
X144336311Y-122970807D01*
X144207099Y-122917285D01*
X144069929Y-122890000D01*
X144046603Y-122890000D01*
X143896887Y-122740284D01*
X143880132Y-122719868D01*
X143798668Y-122653012D01*
X143718199Y-122610000D01*
X143769929Y-122610000D01*
X143907099Y-122582715D01*
X144036311Y-122529193D01*
X144152598Y-122451493D01*
X144251493Y-122352598D01*
X144329193Y-122236311D01*
X144382715Y-122107099D01*
X144410000Y-121969929D01*
X144410000Y-121830071D01*
X144382715Y-121692901D01*
X144329193Y-121563689D01*
X144251493Y-121447402D01*
X144152598Y-121348507D01*
X144036311Y-121270807D01*
X143907099Y-121217285D01*
X143769929Y-121190000D01*
X143630071Y-121190000D01*
X143492901Y-121217285D01*
X143363689Y-121270807D01*
X143247402Y-121348507D01*
X143230909Y-121365000D01*
X137969091Y-121365000D01*
X137952598Y-121348507D01*
X137836311Y-121270807D01*
X137707099Y-121217285D01*
X137569929Y-121190000D01*
X137430071Y-121190000D01*
X137292901Y-121217285D01*
X137163689Y-121270807D01*
X137047402Y-121348507D01*
X136948507Y-121447402D01*
X136870807Y-121563689D01*
X136817285Y-121692901D01*
X136790000Y-121830071D01*
X136790000Y-121969929D01*
X136817285Y-122107099D01*
X136870807Y-122236311D01*
X136948507Y-122352598D01*
X137047402Y-122451493D01*
X137163689Y-122529193D01*
X137250134Y-122565000D01*
X136269091Y-122565000D01*
X136252598Y-122548507D01*
X136136311Y-122470807D01*
X136007099Y-122417285D01*
X135869929Y-122390000D01*
X135730071Y-122390000D01*
X135592901Y-122417285D01*
X135463689Y-122470807D01*
X135350000Y-122546771D01*
X135236311Y-122470807D01*
X135107099Y-122417285D01*
X134969929Y-122390000D01*
X134830071Y-122390000D01*
X134692901Y-122417285D01*
X134563689Y-122470807D01*
X134447402Y-122548507D01*
X134348507Y-122647402D01*
X134270807Y-122763689D01*
X134217285Y-122892901D01*
X134190000Y-123030071D01*
X134190000Y-123169929D01*
X134217285Y-123307099D01*
X134270807Y-123436311D01*
X134348507Y-123552598D01*
X134365000Y-123569091D01*
X134365000Y-123673732D01*
X134362413Y-123700000D01*
X134365000Y-123726268D01*
X134365000Y-123726275D01*
X134372742Y-123804878D01*
X134403334Y-123905726D01*
X134453013Y-123998668D01*
X134519869Y-124080132D01*
X134540280Y-124096883D01*
X134703113Y-124259716D01*
X134719868Y-124280132D01*
X134801332Y-124346988D01*
X134889797Y-124394274D01*
X134894274Y-124396667D01*
X134995122Y-124427258D01*
X135100000Y-124437588D01*
X135126275Y-124435000D01*
X136073732Y-124435000D01*
X136100000Y-124437587D01*
X136126268Y-124435000D01*
X136126275Y-124435000D01*
X136204878Y-124427258D01*
X136305726Y-124396667D01*
X136398668Y-124346988D01*
X136480132Y-124280132D01*
X136496887Y-124259716D01*
X136621603Y-124135000D01*
X142778397Y-124135000D01*
X143503122Y-124859727D01*
X143519868Y-124880132D01*
X143540273Y-124896878D01*
X143540276Y-124896881D01*
X143551054Y-124905726D01*
X143554946Y-124908920D01*
X131481961Y-124908920D01*
X131482715Y-124907099D01*
X131510000Y-124769929D01*
X131510000Y-124630071D01*
X131482715Y-124492901D01*
X131429193Y-124363689D01*
X131351493Y-124247402D01*
X131252598Y-124148507D01*
X131136311Y-124070807D01*
X131007099Y-124017285D01*
X130869929Y-123990000D01*
X130730071Y-123990000D01*
X130592901Y-124017285D01*
X130463689Y-124070807D01*
X130347402Y-124148507D01*
X130248507Y-124247402D01*
X130170807Y-124363689D01*
X130170264Y-124364999D01*
X122298345Y-124364999D01*
X122335029Y-124276437D01*
X122370000Y-124100627D01*
X122370000Y-123921373D01*
X122335029Y-123745563D01*
X122266431Y-123579953D01*
X122166843Y-123430909D01*
X122040091Y-123304157D01*
X121891047Y-123204569D01*
X121725437Y-123135971D01*
X121549627Y-123101000D01*
X121370373Y-123101000D01*
X121194563Y-123135971D01*
X121028953Y-123204569D01*
X120879909Y-123304157D01*
X120753157Y-123430909D01*
X120653569Y-123579953D01*
X120584971Y-123745563D01*
X120550000Y-123921373D01*
X120550000Y-123935055D01*
X120507099Y-123917285D01*
X120369929Y-123890000D01*
X120230071Y-123890000D01*
X120092901Y-123917285D01*
X119963689Y-123970807D01*
X119847402Y-124048507D01*
X119748507Y-124147402D01*
X119670807Y-124263689D01*
X119617285Y-124392901D01*
X119590000Y-124530071D01*
X119590000Y-124669929D01*
X119617285Y-124807099D01*
X119659461Y-124908920D01*
X119323307Y-124908920D01*
X119393025Y-124823491D01*
X119476686Y-124665933D01*
X119528001Y-124495081D01*
X119533402Y-124464824D01*
X119442496Y-124322500D01*
X118087500Y-124322500D01*
X118087500Y-124342500D01*
X118082500Y-124342500D01*
X118082500Y-124322500D01*
X116727504Y-124322500D01*
X116636598Y-124464824D01*
X116641999Y-124495081D01*
X116693314Y-124665933D01*
X116776975Y-124823491D01*
X116846693Y-124908920D01*
X114893307Y-124908920D01*
X114963025Y-124823491D01*
X115046686Y-124665933D01*
X115098001Y-124495081D01*
X115103402Y-124464824D01*
X115012496Y-124322500D01*
X113907500Y-124322500D01*
X113907500Y-124342500D01*
X113902500Y-124342500D01*
X113902500Y-124322500D01*
X113882500Y-124322500D01*
X113882500Y-124317500D01*
X113902500Y-124317500D01*
X113902500Y-123410000D01*
X113907500Y-123410000D01*
X113907500Y-124317500D01*
X115012496Y-124317500D01*
X115103402Y-124175176D01*
X116636598Y-124175176D01*
X116727504Y-124317500D01*
X118082500Y-124317500D01*
X118082500Y-123410000D01*
X118087500Y-123410000D01*
X118087500Y-124317500D01*
X119442496Y-124317500D01*
X119533402Y-124175176D01*
X119528001Y-124144919D01*
X119476686Y-123974067D01*
X119393025Y-123816509D01*
X119280234Y-123678300D01*
X119142647Y-123564751D01*
X118985551Y-123480226D01*
X118814984Y-123427973D01*
X118637500Y-123410000D01*
X118087500Y-123410000D01*
X118082500Y-123410000D01*
X118074447Y-123410000D01*
X118125912Y-123358535D01*
X118206348Y-123238153D01*
X118261754Y-123104391D01*
X118290000Y-122962391D01*
X118290000Y-122905373D01*
X125630000Y-122905373D01*
X125630000Y-123084627D01*
X125664971Y-123260437D01*
X125733569Y-123426047D01*
X125833157Y-123575091D01*
X125959909Y-123701843D01*
X126108953Y-123801431D01*
X126274563Y-123870029D01*
X126450373Y-123905000D01*
X126629627Y-123905000D01*
X126805437Y-123870029D01*
X126971047Y-123801431D01*
X127120091Y-123701843D01*
X127246843Y-123575091D01*
X127346431Y-123426047D01*
X127415029Y-123260437D01*
X127450000Y-123084627D01*
X127450000Y-122905373D01*
X127415029Y-122729563D01*
X127346431Y-122563953D01*
X127246843Y-122414909D01*
X127120091Y-122288157D01*
X126971047Y-122188569D01*
X126805437Y-122119971D01*
X126629627Y-122085000D01*
X126450373Y-122085000D01*
X126274563Y-122119971D01*
X126108953Y-122188569D01*
X125959909Y-122288157D01*
X125833157Y-122414909D01*
X125733569Y-122563953D01*
X125664971Y-122729563D01*
X125630000Y-122905373D01*
X118290000Y-122905373D01*
X118290000Y-122817609D01*
X118261754Y-122675609D01*
X118206348Y-122541847D01*
X118125912Y-122421465D01*
X118023535Y-122319088D01*
X117903153Y-122238652D01*
X117769391Y-122183246D01*
X117627391Y-122155000D01*
X117482609Y-122155000D01*
X117340609Y-122183246D01*
X117206847Y-122238652D01*
X117086465Y-122319088D01*
X116984088Y-122421465D01*
X116903652Y-122541847D01*
X116848246Y-122675609D01*
X116820000Y-122817609D01*
X116820000Y-122962391D01*
X116848246Y-123104391D01*
X116903652Y-123238153D01*
X116984088Y-123358535D01*
X117086465Y-123460912D01*
X117146184Y-123500814D01*
X117027353Y-123564751D01*
X116889766Y-123678300D01*
X116776975Y-123816509D01*
X116693314Y-123974067D01*
X116641999Y-124144919D01*
X116636598Y-124175176D01*
X115103402Y-124175176D01*
X115098001Y-124144919D01*
X115046686Y-123974067D01*
X114963025Y-123816509D01*
X114850234Y-123678300D01*
X114712647Y-123564751D01*
X114555551Y-123480226D01*
X114384984Y-123427973D01*
X114207500Y-123410000D01*
X113907500Y-123410000D01*
X113902500Y-123410000D01*
X113602500Y-123410000D01*
X113425016Y-123427973D01*
X113254449Y-123480226D01*
X113097353Y-123564751D01*
X112959766Y-123678300D01*
X112880800Y-123775061D01*
X112880800Y-121889373D01*
X120550000Y-121889373D01*
X120550000Y-122068627D01*
X120584971Y-122244437D01*
X120653569Y-122410047D01*
X120753157Y-122559091D01*
X120879909Y-122685843D01*
X121028953Y-122785431D01*
X121194563Y-122854029D01*
X121370373Y-122889000D01*
X121549627Y-122889000D01*
X121725437Y-122854029D01*
X121891047Y-122785431D01*
X122040091Y-122685843D01*
X122166843Y-122559091D01*
X122266431Y-122410047D01*
X122335029Y-122244437D01*
X122370000Y-122068627D01*
X122370000Y-121889373D01*
X122335029Y-121713563D01*
X122266431Y-121547953D01*
X122166843Y-121398909D01*
X122040091Y-121272157D01*
X121891047Y-121172569D01*
X121725437Y-121103971D01*
X121549627Y-121069000D01*
X121370373Y-121069000D01*
X121194563Y-121103971D01*
X121028953Y-121172569D01*
X120879909Y-121272157D01*
X120753157Y-121398909D01*
X120653569Y-121547953D01*
X120584971Y-121713563D01*
X120550000Y-121889373D01*
X112880800Y-121889373D01*
X112880800Y-118620222D01*
X124490000Y-118620222D01*
X124490000Y-118779778D01*
X124521128Y-118936268D01*
X124582188Y-119083679D01*
X124670832Y-119216345D01*
X124690001Y-119235514D01*
X124690000Y-120964487D01*
X124670832Y-120983655D01*
X124582188Y-121116321D01*
X124521128Y-121263732D01*
X124490000Y-121420222D01*
X124490000Y-121579778D01*
X124521128Y-121736268D01*
X124582188Y-121883679D01*
X124670832Y-122016345D01*
X124783655Y-122129168D01*
X124916321Y-122217812D01*
X125063732Y-122278872D01*
X125220222Y-122310000D01*
X125379778Y-122310000D01*
X125536268Y-122278872D01*
X125683679Y-122217812D01*
X125816345Y-122129168D01*
X125929168Y-122016345D01*
X126017812Y-121883679D01*
X126078872Y-121736268D01*
X126110000Y-121579778D01*
X126110000Y-121420222D01*
X126078872Y-121263732D01*
X126017812Y-121116321D01*
X125929168Y-120983655D01*
X125910000Y-120964487D01*
X125910000Y-120330071D01*
X132190000Y-120330071D01*
X132190000Y-120469929D01*
X132217285Y-120607099D01*
X132270807Y-120736311D01*
X132348507Y-120852598D01*
X132447402Y-120951493D01*
X132469690Y-120966385D01*
X132417285Y-121092901D01*
X132390000Y-121230071D01*
X132390000Y-121369929D01*
X132417285Y-121507099D01*
X132470807Y-121636311D01*
X132548507Y-121752598D01*
X132647402Y-121851493D01*
X132763689Y-121929193D01*
X132892901Y-121982715D01*
X133030071Y-122010000D01*
X133169929Y-122010000D01*
X133307099Y-121982715D01*
X133436311Y-121929193D01*
X133552598Y-121851493D01*
X133569091Y-121835000D01*
X134330909Y-121835000D01*
X134347402Y-121851493D01*
X134463689Y-121929193D01*
X134592901Y-121982715D01*
X134730071Y-122010000D01*
X134869929Y-122010000D01*
X135007099Y-121982715D01*
X135136311Y-121929193D01*
X135252598Y-121851493D01*
X135351493Y-121752598D01*
X135429193Y-121636311D01*
X135482715Y-121507099D01*
X135510000Y-121369929D01*
X135510000Y-121230071D01*
X135482715Y-121092901D01*
X135429193Y-120963689D01*
X135353229Y-120850000D01*
X135429193Y-120736311D01*
X135482715Y-120607099D01*
X135510000Y-120469929D01*
X135510000Y-120330071D01*
X135482715Y-120192901D01*
X135429193Y-120063689D01*
X135351493Y-119947402D01*
X135252598Y-119848507D01*
X135136311Y-119770807D01*
X135007099Y-119717285D01*
X134869929Y-119690000D01*
X134730071Y-119690000D01*
X134592901Y-119717285D01*
X134463689Y-119770807D01*
X134347402Y-119848507D01*
X134330909Y-119865000D01*
X133369091Y-119865000D01*
X133352598Y-119848507D01*
X133236311Y-119770807D01*
X133107099Y-119717285D01*
X132969929Y-119690000D01*
X132830071Y-119690000D01*
X132692901Y-119717285D01*
X132563689Y-119770807D01*
X132447402Y-119848507D01*
X132348507Y-119947402D01*
X132270807Y-120063689D01*
X132217285Y-120192901D01*
X132190000Y-120330071D01*
X125910000Y-120330071D01*
X125910000Y-119235513D01*
X125929168Y-119216345D01*
X126017812Y-119083679D01*
X126078872Y-118936268D01*
X126110000Y-118779778D01*
X126110000Y-118620222D01*
X126078872Y-118463732D01*
X126017812Y-118316321D01*
X125929168Y-118183655D01*
X125816345Y-118070832D01*
X125683679Y-117982188D01*
X125536268Y-117921128D01*
X125379778Y-117890000D01*
X125220222Y-117890000D01*
X125063732Y-117921128D01*
X124916321Y-117982188D01*
X124783655Y-118070832D01*
X124670832Y-118183655D01*
X124582188Y-118316321D01*
X124521128Y-118463732D01*
X124490000Y-118620222D01*
X112880800Y-118620222D01*
X112880800Y-116224939D01*
X112959766Y-116321700D01*
X113097353Y-116435249D01*
X113254449Y-116519774D01*
X113425016Y-116572027D01*
X113602500Y-116590000D01*
X113902500Y-116590000D01*
X113902500Y-115682500D01*
X113907500Y-115682500D01*
X113907500Y-116590000D01*
X114207500Y-116590000D01*
X114384984Y-116572027D01*
X114555551Y-116519774D01*
X114712647Y-116435249D01*
X114850234Y-116321700D01*
X114963025Y-116183491D01*
X115046686Y-116025933D01*
X115098001Y-115855081D01*
X115103402Y-115824824D01*
X116636598Y-115824824D01*
X116641999Y-115855081D01*
X116693314Y-116025933D01*
X116776975Y-116183491D01*
X116889766Y-116321700D01*
X117027353Y-116435249D01*
X117146184Y-116499186D01*
X117086465Y-116539088D01*
X116984088Y-116641465D01*
X116903652Y-116761847D01*
X116848246Y-116895609D01*
X116820000Y-117037609D01*
X116820000Y-117182391D01*
X116848246Y-117324391D01*
X116903652Y-117458153D01*
X116984088Y-117578535D01*
X117086465Y-117680912D01*
X117206847Y-117761348D01*
X117340609Y-117816754D01*
X117482609Y-117845000D01*
X117627391Y-117845000D01*
X117769391Y-117816754D01*
X117903153Y-117761348D01*
X118023535Y-117680912D01*
X118125912Y-117578535D01*
X118206348Y-117458153D01*
X118261754Y-117324391D01*
X118290000Y-117182391D01*
X118290000Y-117037609D01*
X118261754Y-116895609D01*
X118206348Y-116761847D01*
X118125912Y-116641465D01*
X118074447Y-116590000D01*
X118082500Y-116590000D01*
X118082500Y-115682500D01*
X118087500Y-115682500D01*
X118087500Y-116590000D01*
X118637500Y-116590000D01*
X118814984Y-116572027D01*
X118985551Y-116519774D01*
X119142647Y-116435249D01*
X119280234Y-116321700D01*
X119393025Y-116183491D01*
X119476686Y-116025933D01*
X119528001Y-115855081D01*
X119533402Y-115824824D01*
X119442496Y-115682500D01*
X118087500Y-115682500D01*
X118082500Y-115682500D01*
X116727504Y-115682500D01*
X116636598Y-115824824D01*
X115103402Y-115824824D01*
X115012496Y-115682500D01*
X113907500Y-115682500D01*
X113902500Y-115682500D01*
X113882500Y-115682500D01*
X113882500Y-115677500D01*
X113902500Y-115677500D01*
X113902500Y-115657500D01*
X113907500Y-115657500D01*
X113907500Y-115677500D01*
X115012496Y-115677500D01*
X115103402Y-115535176D01*
X115098001Y-115504919D01*
X115046686Y-115334067D01*
X114963025Y-115176509D01*
X114894988Y-115093140D01*
X116845012Y-115093140D01*
X116776975Y-115176509D01*
X116776975Y-115176509D01*
G37*
X116776975Y-115176509D02*
X116693314Y-115334067D01*
X116641999Y-115504919D01*
X116636598Y-115535176D01*
X116727504Y-115677500D01*
X118082500Y-115677500D01*
X118082500Y-115657500D01*
X118087500Y-115657500D01*
X118087500Y-115677500D01*
X119442496Y-115677500D01*
X119533402Y-115535176D01*
X119528001Y-115504919D01*
X119476686Y-115334067D01*
X119393025Y-115176509D01*
X119324988Y-115093140D01*
X137617237Y-115093140D01*
X137590000Y-115230071D01*
X137590000Y-115253395D01*
X136720543Y-116122854D01*
X136707099Y-116117285D01*
X136569929Y-116090000D01*
X136430071Y-116090000D01*
X136292901Y-116117285D01*
X136163689Y-116170807D01*
X136047402Y-116248507D01*
X135948507Y-116347402D01*
X135870807Y-116463689D01*
X135817285Y-116592901D01*
X135790000Y-116730071D01*
X135790000Y-116869929D01*
X135817285Y-117007099D01*
X135870807Y-117136311D01*
X135948507Y-117252598D01*
X136047402Y-117351493D01*
X136163689Y-117429193D01*
X136250134Y-117465000D01*
X135869091Y-117465000D01*
X135852598Y-117448507D01*
X135736311Y-117370807D01*
X135607099Y-117317285D01*
X135469929Y-117290000D01*
X135330071Y-117290000D01*
X135192901Y-117317285D01*
X135063689Y-117370807D01*
X134947402Y-117448507D01*
X134848507Y-117547402D01*
X134770807Y-117663689D01*
X134728499Y-117765829D01*
X133789455Y-116826786D01*
X133782715Y-116792901D01*
X133729193Y-116663689D01*
X133651493Y-116547402D01*
X133552598Y-116448507D01*
X133436311Y-116370807D01*
X133307099Y-116317285D01*
X133169929Y-116290000D01*
X133030071Y-116290000D01*
X132892901Y-116317285D01*
X132763689Y-116370807D01*
X132647402Y-116448507D01*
X132548507Y-116547402D01*
X132470807Y-116663689D01*
X132417285Y-116792901D01*
X132390000Y-116930071D01*
X132390000Y-117069929D01*
X132417285Y-117207099D01*
X132470807Y-117336311D01*
X132548507Y-117452598D01*
X132647402Y-117551493D01*
X132763689Y-117629193D01*
X132892901Y-117682715D01*
X132926786Y-117689455D01*
X134547476Y-119310146D01*
X134566578Y-119333422D01*
X134659463Y-119409650D01*
X134765434Y-119466293D01*
X134880419Y-119501173D01*
X135000000Y-119512951D01*
X135029961Y-119510000D01*
X135634964Y-119510000D01*
X135663689Y-119529193D01*
X135792901Y-119582715D01*
X135930071Y-119610000D01*
X136069929Y-119610000D01*
X136207099Y-119582715D01*
X136336311Y-119529193D01*
X136452598Y-119451493D01*
X136551493Y-119352598D01*
X136629193Y-119236311D01*
X136682715Y-119107099D01*
X136710000Y-118969929D01*
X136710000Y-118830071D01*
X136682715Y-118692901D01*
X136629193Y-118563689D01*
X136610024Y-118535000D01*
X136673732Y-118535000D01*
X136700000Y-118537587D01*
X136726268Y-118535000D01*
X136726275Y-118535000D01*
X136804878Y-118527258D01*
X136905726Y-118496667D01*
X136998668Y-118446988D01*
X137080132Y-118380132D01*
X137096887Y-118359716D01*
X139421604Y-116035000D01*
X139884132Y-116035000D01*
X139540279Y-116378854D01*
X139519869Y-116395604D01*
X139453013Y-116477068D01*
X139403334Y-116570010D01*
X139372742Y-116670858D01*
X139367027Y-116728882D01*
X139348507Y-116747402D01*
X139270807Y-116863689D01*
X139217285Y-116992901D01*
X139190000Y-117130071D01*
X139190000Y-117269929D01*
X139217285Y-117407099D01*
X139270807Y-117536311D01*
X139348507Y-117652598D01*
X139447402Y-117751493D01*
X139563689Y-117829193D01*
X139692901Y-117882715D01*
X139830071Y-117910000D01*
X139969929Y-117910000D01*
X140107099Y-117882715D01*
X140236311Y-117829193D01*
X140352598Y-117751493D01*
X140451493Y-117652598D01*
X140529193Y-117536311D01*
X140582715Y-117407099D01*
X140610000Y-117269929D01*
X140610000Y-117130071D01*
X140582715Y-116992901D01*
X140540750Y-116891590D01*
X140897341Y-116535000D01*
X144478397Y-116535000D01*
X144503113Y-116559716D01*
X144519868Y-116580132D01*
X144601332Y-116646988D01*
X144691384Y-116695122D01*
X144694274Y-116696667D01*
X144795122Y-116727258D01*
X144900000Y-116737588D01*
X144926275Y-116735000D01*
X145573732Y-116735000D01*
X145600000Y-116737587D01*
X145626268Y-116735000D01*
X145626275Y-116735000D01*
X145704878Y-116727258D01*
X145805726Y-116696667D01*
X145898668Y-116646988D01*
X145980132Y-116580132D01*
X145996887Y-116559716D01*
X146346604Y-116210000D01*
X146369929Y-116210000D01*
X146507099Y-116182715D01*
X146636311Y-116129193D01*
X146752598Y-116051493D01*
X146851493Y-115952598D01*
X146929193Y-115836311D01*
X146982715Y-115707099D01*
X147010000Y-115569929D01*
X147010000Y-115430071D01*
X146982715Y-115292901D01*
X146929193Y-115163689D01*
X146882054Y-115093140D01*
X153311200Y-115093140D01*
X153311201Y-124908920D01*
X146980678Y-124908920D01*
X147029193Y-124836311D01*
X147082715Y-124707099D01*
X147110000Y-124569929D01*
X147110000Y-124430071D01*
X147082715Y-124292901D01*
X147029193Y-124163689D01*
X146951493Y-124047402D01*
X146852598Y-123948507D01*
X146736311Y-123870807D01*
X146607099Y-123817285D01*
X146469929Y-123790000D01*
X146330071Y-123790000D01*
X146192901Y-123817285D01*
X146063689Y-123870807D01*
X145947402Y-123948507D01*
X145930909Y-123965000D01*
X144610024Y-123965000D01*
X144629193Y-123936311D01*
X144682715Y-123807099D01*
X144710000Y-123669929D01*
X144710000Y-123530071D01*
X144682715Y-123392901D01*
X144629193Y-123263689D01*
X144551493Y-123147402D01*
X144452598Y-123048507D01*
X144336311Y-122970807D01*
X144207099Y-122917285D01*
X144069929Y-122890000D01*
X144046603Y-122890000D01*
X143896887Y-122740284D01*
X143880132Y-122719868D01*
X143798668Y-122653012D01*
X143718199Y-122610000D01*
X143769929Y-122610000D01*
X143907099Y-122582715D01*
X144036311Y-122529193D01*
X144152598Y-122451493D01*
X144251493Y-122352598D01*
X144329193Y-122236311D01*
X144382715Y-122107099D01*
X144410000Y-121969929D01*
X144410000Y-121830071D01*
X144382715Y-121692901D01*
X144329193Y-121563689D01*
X144251493Y-121447402D01*
X144152598Y-121348507D01*
X144036311Y-121270807D01*
X143907099Y-121217285D01*
X143769929Y-121190000D01*
X143630071Y-121190000D01*
X143492901Y-121217285D01*
X143363689Y-121270807D01*
X143247402Y-121348507D01*
X143230909Y-121365000D01*
X137969091Y-121365000D01*
X137952598Y-121348507D01*
X137836311Y-121270807D01*
X137707099Y-121217285D01*
X137569929Y-121190000D01*
X137430071Y-121190000D01*
X137292901Y-121217285D01*
X137163689Y-121270807D01*
X137047402Y-121348507D01*
X136948507Y-121447402D01*
X136870807Y-121563689D01*
X136817285Y-121692901D01*
X136790000Y-121830071D01*
X136790000Y-121969929D01*
X136817285Y-122107099D01*
X136870807Y-122236311D01*
X136948507Y-122352598D01*
X137047402Y-122451493D01*
X137163689Y-122529193D01*
X137250134Y-122565000D01*
X136269091Y-122565000D01*
X136252598Y-122548507D01*
X136136311Y-122470807D01*
X136007099Y-122417285D01*
X135869929Y-122390000D01*
X135730071Y-122390000D01*
X135592901Y-122417285D01*
X135463689Y-122470807D01*
X135350000Y-122546771D01*
X135236311Y-122470807D01*
X135107099Y-122417285D01*
X134969929Y-122390000D01*
X134830071Y-122390000D01*
X134692901Y-122417285D01*
X134563689Y-122470807D01*
X134447402Y-122548507D01*
X134348507Y-122647402D01*
X134270807Y-122763689D01*
X134217285Y-122892901D01*
X134190000Y-123030071D01*
X134190000Y-123169929D01*
X134217285Y-123307099D01*
X134270807Y-123436311D01*
X134348507Y-123552598D01*
X134365000Y-123569091D01*
X134365000Y-123673732D01*
X134362413Y-123700000D01*
X134365000Y-123726268D01*
X134365000Y-123726275D01*
X134372742Y-123804878D01*
X134403334Y-123905726D01*
X134453013Y-123998668D01*
X134519869Y-124080132D01*
X134540280Y-124096883D01*
X134703113Y-124259716D01*
X134719868Y-124280132D01*
X134801332Y-124346988D01*
X134889797Y-124394274D01*
X134894274Y-124396667D01*
X134995122Y-124427258D01*
X135100000Y-124437588D01*
X135126275Y-124435000D01*
X136073732Y-124435000D01*
X136100000Y-124437587D01*
X136126268Y-124435000D01*
X136126275Y-124435000D01*
X136204878Y-124427258D01*
X136305726Y-124396667D01*
X136398668Y-124346988D01*
X136480132Y-124280132D01*
X136496887Y-124259716D01*
X136621603Y-124135000D01*
X142778397Y-124135000D01*
X143503122Y-124859727D01*
X143519868Y-124880132D01*
X143540273Y-124896878D01*
X143540276Y-124896881D01*
X143551054Y-124905726D01*
X143554946Y-124908920D01*
X131481961Y-124908920D01*
X131482715Y-124907099D01*
X131510000Y-124769929D01*
X131510000Y-124630071D01*
X131482715Y-124492901D01*
X131429193Y-124363689D01*
X131351493Y-124247402D01*
X131252598Y-124148507D01*
X131136311Y-124070807D01*
X131007099Y-124017285D01*
X130869929Y-123990000D01*
X130730071Y-123990000D01*
X130592901Y-124017285D01*
X130463689Y-124070807D01*
X130347402Y-124148507D01*
X130248507Y-124247402D01*
X130170807Y-124363689D01*
X130170264Y-124364999D01*
X122298345Y-124364999D01*
X122335029Y-124276437D01*
X122370000Y-124100627D01*
X122370000Y-123921373D01*
X122335029Y-123745563D01*
X122266431Y-123579953D01*
X122166843Y-123430909D01*
X122040091Y-123304157D01*
X121891047Y-123204569D01*
X121725437Y-123135971D01*
X121549627Y-123101000D01*
X121370373Y-123101000D01*
X121194563Y-123135971D01*
X121028953Y-123204569D01*
X120879909Y-123304157D01*
X120753157Y-123430909D01*
X120653569Y-123579953D01*
X120584971Y-123745563D01*
X120550000Y-123921373D01*
X120550000Y-123935055D01*
X120507099Y-123917285D01*
X120369929Y-123890000D01*
X120230071Y-123890000D01*
X120092901Y-123917285D01*
X119963689Y-123970807D01*
X119847402Y-124048507D01*
X119748507Y-124147402D01*
X119670807Y-124263689D01*
X119617285Y-124392901D01*
X119590000Y-124530071D01*
X119590000Y-124669929D01*
X119617285Y-124807099D01*
X119659461Y-124908920D01*
X119323307Y-124908920D01*
X119393025Y-124823491D01*
X119476686Y-124665933D01*
X119528001Y-124495081D01*
X119533402Y-124464824D01*
X119442496Y-124322500D01*
X118087500Y-124322500D01*
X118087500Y-124342500D01*
X118082500Y-124342500D01*
X118082500Y-124322500D01*
X116727504Y-124322500D01*
X116636598Y-124464824D01*
X116641999Y-124495081D01*
X116693314Y-124665933D01*
X116776975Y-124823491D01*
X116846693Y-124908920D01*
X114893307Y-124908920D01*
X114963025Y-124823491D01*
X115046686Y-124665933D01*
X115098001Y-124495081D01*
X115103402Y-124464824D01*
X115012496Y-124322500D01*
X113907500Y-124322500D01*
X113907500Y-124342500D01*
X113902500Y-124342500D01*
X113902500Y-124322500D01*
X113882500Y-124322500D01*
X113882500Y-124317500D01*
X113902500Y-124317500D01*
X113902500Y-123410000D01*
X113907500Y-123410000D01*
X113907500Y-124317500D01*
X115012496Y-124317500D01*
X115103402Y-124175176D01*
X116636598Y-124175176D01*
X116727504Y-124317500D01*
X118082500Y-124317500D01*
X118082500Y-123410000D01*
X118087500Y-123410000D01*
X118087500Y-124317500D01*
X119442496Y-124317500D01*
X119533402Y-124175176D01*
X119528001Y-124144919D01*
X119476686Y-123974067D01*
X119393025Y-123816509D01*
X119280234Y-123678300D01*
X119142647Y-123564751D01*
X118985551Y-123480226D01*
X118814984Y-123427973D01*
X118637500Y-123410000D01*
X118087500Y-123410000D01*
X118082500Y-123410000D01*
X118074447Y-123410000D01*
X118125912Y-123358535D01*
X118206348Y-123238153D01*
X118261754Y-123104391D01*
X118290000Y-122962391D01*
X118290000Y-122905373D01*
X125630000Y-122905373D01*
X125630000Y-123084627D01*
X125664971Y-123260437D01*
X125733569Y-123426047D01*
X125833157Y-123575091D01*
X125959909Y-123701843D01*
X126108953Y-123801431D01*
X126274563Y-123870029D01*
X126450373Y-123905000D01*
X126629627Y-123905000D01*
X126805437Y-123870029D01*
X126971047Y-123801431D01*
X127120091Y-123701843D01*
X127246843Y-123575091D01*
X127346431Y-123426047D01*
X127415029Y-123260437D01*
X127450000Y-123084627D01*
X127450000Y-122905373D01*
X127415029Y-122729563D01*
X127346431Y-122563953D01*
X127246843Y-122414909D01*
X127120091Y-122288157D01*
X126971047Y-122188569D01*
X126805437Y-122119971D01*
X126629627Y-122085000D01*
X126450373Y-122085000D01*
X126274563Y-122119971D01*
X126108953Y-122188569D01*
X125959909Y-122288157D01*
X125833157Y-122414909D01*
X125733569Y-122563953D01*
X125664971Y-122729563D01*
X125630000Y-122905373D01*
X118290000Y-122905373D01*
X118290000Y-122817609D01*
X118261754Y-122675609D01*
X118206348Y-122541847D01*
X118125912Y-122421465D01*
X118023535Y-122319088D01*
X117903153Y-122238652D01*
X117769391Y-122183246D01*
X117627391Y-122155000D01*
X117482609Y-122155000D01*
X117340609Y-122183246D01*
X117206847Y-122238652D01*
X117086465Y-122319088D01*
X116984088Y-122421465D01*
X116903652Y-122541847D01*
X116848246Y-122675609D01*
X116820000Y-122817609D01*
X116820000Y-122962391D01*
X116848246Y-123104391D01*
X116903652Y-123238153D01*
X116984088Y-123358535D01*
X117086465Y-123460912D01*
X117146184Y-123500814D01*
X117027353Y-123564751D01*
X116889766Y-123678300D01*
X116776975Y-123816509D01*
X116693314Y-123974067D01*
X116641999Y-124144919D01*
X116636598Y-124175176D01*
X115103402Y-124175176D01*
X115098001Y-124144919D01*
X115046686Y-123974067D01*
X114963025Y-123816509D01*
X114850234Y-123678300D01*
X114712647Y-123564751D01*
X114555551Y-123480226D01*
X114384984Y-123427973D01*
X114207500Y-123410000D01*
X113907500Y-123410000D01*
X113902500Y-123410000D01*
X113602500Y-123410000D01*
X113425016Y-123427973D01*
X113254449Y-123480226D01*
X113097353Y-123564751D01*
X112959766Y-123678300D01*
X112880800Y-123775061D01*
X112880800Y-121889373D01*
X120550000Y-121889373D01*
X120550000Y-122068627D01*
X120584971Y-122244437D01*
X120653569Y-122410047D01*
X120753157Y-122559091D01*
X120879909Y-122685843D01*
X121028953Y-122785431D01*
X121194563Y-122854029D01*
X121370373Y-122889000D01*
X121549627Y-122889000D01*
X121725437Y-122854029D01*
X121891047Y-122785431D01*
X122040091Y-122685843D01*
X122166843Y-122559091D01*
X122266431Y-122410047D01*
X122335029Y-122244437D01*
X122370000Y-122068627D01*
X122370000Y-121889373D01*
X122335029Y-121713563D01*
X122266431Y-121547953D01*
X122166843Y-121398909D01*
X122040091Y-121272157D01*
X121891047Y-121172569D01*
X121725437Y-121103971D01*
X121549627Y-121069000D01*
X121370373Y-121069000D01*
X121194563Y-121103971D01*
X121028953Y-121172569D01*
X120879909Y-121272157D01*
X120753157Y-121398909D01*
X120653569Y-121547953D01*
X120584971Y-121713563D01*
X120550000Y-121889373D01*
X112880800Y-121889373D01*
X112880800Y-118620222D01*
X124490000Y-118620222D01*
X124490000Y-118779778D01*
X124521128Y-118936268D01*
X124582188Y-119083679D01*
X124670832Y-119216345D01*
X124690001Y-119235514D01*
X124690000Y-120964487D01*
X124670832Y-120983655D01*
X124582188Y-121116321D01*
X124521128Y-121263732D01*
X124490000Y-121420222D01*
X124490000Y-121579778D01*
X124521128Y-121736268D01*
X124582188Y-121883679D01*
X124670832Y-122016345D01*
X124783655Y-122129168D01*
X124916321Y-122217812D01*
X125063732Y-122278872D01*
X125220222Y-122310000D01*
X125379778Y-122310000D01*
X125536268Y-122278872D01*
X125683679Y-122217812D01*
X125816345Y-122129168D01*
X125929168Y-122016345D01*
X126017812Y-121883679D01*
X126078872Y-121736268D01*
X126110000Y-121579778D01*
X126110000Y-121420222D01*
X126078872Y-121263732D01*
X126017812Y-121116321D01*
X125929168Y-120983655D01*
X125910000Y-120964487D01*
X125910000Y-120330071D01*
X132190000Y-120330071D01*
X132190000Y-120469929D01*
X132217285Y-120607099D01*
X132270807Y-120736311D01*
X132348507Y-120852598D01*
X132447402Y-120951493D01*
X132469690Y-120966385D01*
X132417285Y-121092901D01*
X132390000Y-121230071D01*
X132390000Y-121369929D01*
X132417285Y-121507099D01*
X132470807Y-121636311D01*
X132548507Y-121752598D01*
X132647402Y-121851493D01*
X132763689Y-121929193D01*
X132892901Y-121982715D01*
X133030071Y-122010000D01*
X133169929Y-122010000D01*
X133307099Y-121982715D01*
X133436311Y-121929193D01*
X133552598Y-121851493D01*
X133569091Y-121835000D01*
X134330909Y-121835000D01*
X134347402Y-121851493D01*
X134463689Y-121929193D01*
X134592901Y-121982715D01*
X134730071Y-122010000D01*
X134869929Y-122010000D01*
X135007099Y-121982715D01*
X135136311Y-121929193D01*
X135252598Y-121851493D01*
X135351493Y-121752598D01*
X135429193Y-121636311D01*
X135482715Y-121507099D01*
X135510000Y-121369929D01*
X135510000Y-121230071D01*
X135482715Y-121092901D01*
X135429193Y-120963689D01*
X135353229Y-120850000D01*
X135429193Y-120736311D01*
X135482715Y-120607099D01*
X135510000Y-120469929D01*
X135510000Y-120330071D01*
X135482715Y-120192901D01*
X135429193Y-120063689D01*
X135351493Y-119947402D01*
X135252598Y-119848507D01*
X135136311Y-119770807D01*
X135007099Y-119717285D01*
X134869929Y-119690000D01*
X134730071Y-119690000D01*
X134592901Y-119717285D01*
X134463689Y-119770807D01*
X134347402Y-119848507D01*
X134330909Y-119865000D01*
X133369091Y-119865000D01*
X133352598Y-119848507D01*
X133236311Y-119770807D01*
X133107099Y-119717285D01*
X132969929Y-119690000D01*
X132830071Y-119690000D01*
X132692901Y-119717285D01*
X132563689Y-119770807D01*
X132447402Y-119848507D01*
X132348507Y-119947402D01*
X132270807Y-120063689D01*
X132217285Y-120192901D01*
X132190000Y-120330071D01*
X125910000Y-120330071D01*
X125910000Y-119235513D01*
X125929168Y-119216345D01*
X126017812Y-119083679D01*
X126078872Y-118936268D01*
X126110000Y-118779778D01*
X126110000Y-118620222D01*
X126078872Y-118463732D01*
X126017812Y-118316321D01*
X125929168Y-118183655D01*
X125816345Y-118070832D01*
X125683679Y-117982188D01*
X125536268Y-117921128D01*
X125379778Y-117890000D01*
X125220222Y-117890000D01*
X125063732Y-117921128D01*
X124916321Y-117982188D01*
X124783655Y-118070832D01*
X124670832Y-118183655D01*
X124582188Y-118316321D01*
X124521128Y-118463732D01*
X124490000Y-118620222D01*
X112880800Y-118620222D01*
X112880800Y-116224939D01*
X112959766Y-116321700D01*
X113097353Y-116435249D01*
X113254449Y-116519774D01*
X113425016Y-116572027D01*
X113602500Y-116590000D01*
X113902500Y-116590000D01*
X113902500Y-115682500D01*
X113907500Y-115682500D01*
X113907500Y-116590000D01*
X114207500Y-116590000D01*
X114384984Y-116572027D01*
X114555551Y-116519774D01*
X114712647Y-116435249D01*
X114850234Y-116321700D01*
X114963025Y-116183491D01*
X115046686Y-116025933D01*
X115098001Y-115855081D01*
X115103402Y-115824824D01*
X116636598Y-115824824D01*
X116641999Y-115855081D01*
X116693314Y-116025933D01*
X116776975Y-116183491D01*
X116889766Y-116321700D01*
X117027353Y-116435249D01*
X117146184Y-116499186D01*
X117086465Y-116539088D01*
X116984088Y-116641465D01*
X116903652Y-116761847D01*
X116848246Y-116895609D01*
X116820000Y-117037609D01*
X116820000Y-117182391D01*
X116848246Y-117324391D01*
X116903652Y-117458153D01*
X116984088Y-117578535D01*
X117086465Y-117680912D01*
X117206847Y-117761348D01*
X117340609Y-117816754D01*
X117482609Y-117845000D01*
X117627391Y-117845000D01*
X117769391Y-117816754D01*
X117903153Y-117761348D01*
X118023535Y-117680912D01*
X118125912Y-117578535D01*
X118206348Y-117458153D01*
X118261754Y-117324391D01*
X118290000Y-117182391D01*
X118290000Y-117037609D01*
X118261754Y-116895609D01*
X118206348Y-116761847D01*
X118125912Y-116641465D01*
X118074447Y-116590000D01*
X118082500Y-116590000D01*
X118082500Y-115682500D01*
X118087500Y-115682500D01*
X118087500Y-116590000D01*
X118637500Y-116590000D01*
X118814984Y-116572027D01*
X118985551Y-116519774D01*
X119142647Y-116435249D01*
X119280234Y-116321700D01*
X119393025Y-116183491D01*
X119476686Y-116025933D01*
X119528001Y-115855081D01*
X119533402Y-115824824D01*
X119442496Y-115682500D01*
X118087500Y-115682500D01*
X118082500Y-115682500D01*
X116727504Y-115682500D01*
X116636598Y-115824824D01*
X115103402Y-115824824D01*
X115012496Y-115682500D01*
X113907500Y-115682500D01*
X113902500Y-115682500D01*
X113882500Y-115682500D01*
X113882500Y-115677500D01*
X113902500Y-115677500D01*
X113902500Y-115657500D01*
X113907500Y-115657500D01*
X113907500Y-115677500D01*
X115012496Y-115677500D01*
X115103402Y-115535176D01*
X115098001Y-115504919D01*
X115046686Y-115334067D01*
X114963025Y-115176509D01*
X114894988Y-115093140D01*
X116845012Y-115093140D01*
X116776975Y-115176509D01*
M02*
