G04 #@! TF.GenerationSoftware,KiCad,Pcbnew,(5.1.2)-2*
G04 #@! TF.CreationDate,2020-03-26T18:02:09+08:00*
G04 #@! TF.ProjectId,ffp,6666702e-6b69-4636-9164-5f7063625858,1*
G04 #@! TF.SameCoordinates,Original*
G04 #@! TF.FileFunction,Copper,L2,Bot*
G04 #@! TF.FilePolarity,Positive*
%FSLAX46Y46*%
G04 Gerber Fmt 4.6, Leading zero omitted, Abs format (unit mm)*
G04 Created by KiCad (PCBNEW (5.1.2)-2) date 2020-03-26 18:02:09*
%MOMM*%
%LPD*%
G04 APERTURE LIST*
%ADD10O,2.100000X1.000000*%
%ADD11O,1.600000X1.000000*%
%ADD12C,0.800000*%
%ADD13C,0.600000*%
%ADD14C,0.210000*%
%ADD15C,0.200000*%
%ADD16C,0.400000*%
%ADD17C,0.250000*%
%ADD18C,0.254000*%
G04 APERTURE END LIST*
D10*
X118085000Y-115680000D03*
X118085000Y-124320000D03*
D11*
X113905000Y-115680000D03*
X113905000Y-124320000D03*
D12*
X138100000Y-124500000D03*
X141000000Y-118100000D03*
X142500000Y-118100000D03*
X144000000Y-118100000D03*
X152800000Y-123600000D03*
X127000000Y-118800000D03*
X128500000Y-118800000D03*
X130900000Y-115800000D03*
D13*
X144000000Y-122700000D03*
D12*
X122700000Y-121600000D03*
X122000000Y-115700000D03*
X150000000Y-118100000D03*
X150000000Y-120600000D03*
X139900000Y-124500000D03*
D13*
X133100000Y-117000000D03*
X136000000Y-118900000D03*
D12*
X125300000Y-121500000D03*
X125300000Y-118700000D03*
D13*
X134900000Y-123100000D03*
X146400000Y-124500000D03*
X145300000Y-115500000D03*
X135400000Y-118000000D03*
X143700000Y-121900000D03*
X137500000Y-121900000D03*
X134800000Y-121300000D03*
X133100000Y-121300000D03*
X135800000Y-123100000D03*
X144000000Y-123600000D03*
X136500000Y-116800000D03*
X138300000Y-115300000D03*
X146300000Y-115500000D03*
X139900000Y-117200000D03*
X130800000Y-124700000D03*
X120300000Y-124600000D03*
X134800000Y-120400000D03*
X132900000Y-120400000D03*
D14*
X121361200Y-122986800D02*
X121589800Y-122986800D01*
D15*
X134772400Y-119583200D02*
X135128000Y-119634000D01*
D16*
X133100000Y-117000000D02*
X135000000Y-118900000D01*
X135000000Y-118900000D02*
X136000000Y-118900000D01*
X125300000Y-121500000D02*
X125300000Y-118700000D01*
D17*
X146400000Y-124500000D02*
X143900000Y-124500000D01*
X143900000Y-124500000D02*
X143000000Y-123600000D01*
X143000000Y-123600000D02*
X136400000Y-123600000D01*
X136400000Y-123600000D02*
X136100000Y-123900000D01*
X134900000Y-123100000D02*
X134900000Y-123700000D01*
X135100000Y-123900000D02*
X136100000Y-123900000D01*
X134900000Y-123700000D02*
X135100000Y-123900000D01*
X139200000Y-115500000D02*
X145300000Y-115500000D01*
X135400000Y-118000000D02*
X136700000Y-118000000D01*
X136700000Y-118000000D02*
X139200000Y-115500000D01*
X143700000Y-121900000D02*
X137500000Y-121900000D01*
X134800000Y-121300000D02*
X133100000Y-121300000D01*
X135800000Y-123100000D02*
X143500000Y-123100000D01*
X143500000Y-123100000D02*
X144000000Y-123600000D01*
X136800000Y-116800000D02*
X136500000Y-116800000D01*
X138300000Y-115300000D02*
X136800000Y-116800000D01*
X146300000Y-115500000D02*
X145600000Y-116200000D01*
X145600000Y-116200000D02*
X144900000Y-116200000D01*
X144900000Y-116200000D02*
X144700000Y-116000000D01*
X140675736Y-116000000D02*
X140900000Y-116000000D01*
X139900000Y-116775736D02*
X140675736Y-116000000D01*
X139900000Y-117200000D02*
X139900000Y-116775736D01*
X144700000Y-116000000D02*
X140900000Y-116000000D01*
X120300000Y-124600000D02*
X120599999Y-124899999D01*
X130600001Y-124899999D02*
X130800000Y-124700000D01*
X127900001Y-124899999D02*
X130600001Y-124899999D01*
X120599999Y-124899999D02*
X127900001Y-124899999D01*
X134800000Y-120400000D02*
X132900000Y-120400000D01*
D18*
G36*
X116558240Y-115354428D02*
G01*
X116534630Y-115447647D01*
X116642731Y-115607000D01*
X118012000Y-115607000D01*
X118012000Y-115587000D01*
X118158000Y-115587000D01*
X118158000Y-115607000D01*
X119527269Y-115607000D01*
X119635370Y-115447647D01*
X119611760Y-115354428D01*
X119566029Y-115252000D01*
X137425933Y-115252000D01*
X136684446Y-115993487D01*
X136581452Y-115973000D01*
X136418548Y-115973000D01*
X136258773Y-116004782D01*
X136108269Y-116067123D01*
X135972819Y-116157628D01*
X135857628Y-116272819D01*
X135767123Y-116408269D01*
X135704782Y-116558773D01*
X135673000Y-116718548D01*
X135673000Y-116881452D01*
X135704782Y-117041227D01*
X135767123Y-117191731D01*
X135838282Y-117298227D01*
X135791731Y-117267123D01*
X135641227Y-117204782D01*
X135481452Y-117173000D01*
X135318548Y-117173000D01*
X135158773Y-117204782D01*
X135008269Y-117267123D01*
X134872819Y-117357628D01*
X134757628Y-117472819D01*
X134694872Y-117566739D01*
X133897282Y-116769150D01*
X133895218Y-116758773D01*
X133832877Y-116608269D01*
X133742372Y-116472819D01*
X133627181Y-116357628D01*
X133491731Y-116267123D01*
X133341227Y-116204782D01*
X133181452Y-116173000D01*
X133018548Y-116173000D01*
X132858773Y-116204782D01*
X132708269Y-116267123D01*
X132572819Y-116357628D01*
X132457628Y-116472819D01*
X132367123Y-116608269D01*
X132304782Y-116758773D01*
X132273000Y-116918548D01*
X132273000Y-117081452D01*
X132304782Y-117241227D01*
X132367123Y-117391731D01*
X132457628Y-117527181D01*
X132572819Y-117642372D01*
X132708269Y-117732877D01*
X132858773Y-117795218D01*
X132869150Y-117797282D01*
X134460683Y-119388817D01*
X134483446Y-119416554D01*
X134594147Y-119507403D01*
X134716870Y-119573000D01*
X134717325Y-119573243D01*
X134558773Y-119604782D01*
X134408269Y-119667123D01*
X134287228Y-119748000D01*
X133412772Y-119748000D01*
X133291731Y-119667123D01*
X133141227Y-119604782D01*
X132981452Y-119573000D01*
X132818548Y-119573000D01*
X132658773Y-119604782D01*
X132508269Y-119667123D01*
X132372819Y-119757628D01*
X132257628Y-119872819D01*
X132167123Y-120008269D01*
X132104782Y-120158773D01*
X132073000Y-120318548D01*
X132073000Y-120481452D01*
X132104782Y-120641227D01*
X132167123Y-120791731D01*
X132257628Y-120927181D01*
X132329513Y-120999066D01*
X132304782Y-121058773D01*
X132273000Y-121218548D01*
X132273000Y-121381452D01*
X132304782Y-121541227D01*
X132367123Y-121691731D01*
X132457628Y-121827181D01*
X132572819Y-121942372D01*
X132708269Y-122032877D01*
X132858773Y-122095218D01*
X133018548Y-122127000D01*
X133181452Y-122127000D01*
X133341227Y-122095218D01*
X133491731Y-122032877D01*
X133612772Y-121952000D01*
X134287228Y-121952000D01*
X134408269Y-122032877D01*
X134558773Y-122095218D01*
X134718548Y-122127000D01*
X134881452Y-122127000D01*
X135041227Y-122095218D01*
X135191731Y-122032877D01*
X135327181Y-121942372D01*
X135442372Y-121827181D01*
X135532877Y-121691731D01*
X135595218Y-121541227D01*
X135627000Y-121381452D01*
X135627000Y-121218548D01*
X135595218Y-121058773D01*
X135532877Y-120908269D01*
X135493943Y-120850000D01*
X135532877Y-120791731D01*
X135595218Y-120641227D01*
X135627000Y-120481452D01*
X135627000Y-120318548D01*
X135595218Y-120158773D01*
X135532877Y-120008269D01*
X135442372Y-119872819D01*
X135327181Y-119757628D01*
X135191731Y-119667123D01*
X135094866Y-119627000D01*
X135599473Y-119627000D01*
X135608269Y-119632877D01*
X135758773Y-119695218D01*
X135918548Y-119727000D01*
X136081452Y-119727000D01*
X136241227Y-119695218D01*
X136391731Y-119632877D01*
X136527181Y-119542372D01*
X136642372Y-119427181D01*
X136732877Y-119291731D01*
X136795218Y-119141227D01*
X136827000Y-118981452D01*
X136827000Y-118818548D01*
X136795218Y-118658773D01*
X136790045Y-118646285D01*
X136827814Y-118642565D01*
X136950717Y-118605283D01*
X137063984Y-118544741D01*
X137163264Y-118463264D01*
X137183685Y-118438381D01*
X139470067Y-116152000D01*
X139601670Y-116152000D01*
X139461614Y-116292056D01*
X139436737Y-116312472D01*
X139355259Y-116411752D01*
X139294717Y-116525019D01*
X139271702Y-116600889D01*
X139257435Y-116647922D01*
X139254525Y-116677462D01*
X139167123Y-116808269D01*
X139104782Y-116958773D01*
X139073000Y-117118548D01*
X139073000Y-117281452D01*
X139104782Y-117441227D01*
X139167123Y-117591731D01*
X139257628Y-117727181D01*
X139372819Y-117842372D01*
X139508269Y-117932877D01*
X139658773Y-117995218D01*
X139818548Y-118027000D01*
X139981452Y-118027000D01*
X140141227Y-117995218D01*
X140291731Y-117932877D01*
X140427181Y-117842372D01*
X140542372Y-117727181D01*
X140632877Y-117591731D01*
X140695218Y-117441227D01*
X140727000Y-117281452D01*
X140727000Y-117118548D01*
X140695218Y-116958773D01*
X140678761Y-116919042D01*
X140945803Y-116652000D01*
X144427492Y-116652000D01*
X144436736Y-116663264D01*
X144536016Y-116744741D01*
X144649283Y-116805283D01*
X144731218Y-116830138D01*
X144772185Y-116842565D01*
X144900000Y-116855154D01*
X144932022Y-116852000D01*
X145567978Y-116852000D01*
X145600000Y-116855154D01*
X145632022Y-116852000D01*
X145727814Y-116842565D01*
X145850717Y-116805283D01*
X145963984Y-116744741D01*
X146063264Y-116663264D01*
X146083684Y-116638382D01*
X146398447Y-116323619D01*
X146541227Y-116295218D01*
X146691731Y-116232877D01*
X146827181Y-116142372D01*
X146942372Y-116027181D01*
X147032877Y-115891731D01*
X147095218Y-115741227D01*
X147127000Y-115581452D01*
X147127000Y-115418548D01*
X147095218Y-115258773D01*
X147092413Y-115252000D01*
X153148000Y-115252000D01*
X153148001Y-124748000D01*
X147192413Y-124748000D01*
X147195218Y-124741227D01*
X147227000Y-124581452D01*
X147227000Y-124418548D01*
X147195218Y-124258773D01*
X147132877Y-124108269D01*
X147042372Y-123972819D01*
X146927181Y-123857628D01*
X146791731Y-123767123D01*
X146641227Y-123704782D01*
X146481452Y-123673000D01*
X146318548Y-123673000D01*
X146158773Y-123704782D01*
X146008269Y-123767123D01*
X145887228Y-123848000D01*
X144792413Y-123848000D01*
X144795218Y-123841227D01*
X144827000Y-123681452D01*
X144827000Y-123518548D01*
X144795218Y-123358773D01*
X144732877Y-123208269D01*
X144642372Y-123072819D01*
X144527181Y-122957628D01*
X144391731Y-122867123D01*
X144241227Y-122804782D01*
X144098447Y-122776381D01*
X143995007Y-122672941D01*
X144091731Y-122632877D01*
X144227181Y-122542372D01*
X144342372Y-122427181D01*
X144432877Y-122291731D01*
X144495218Y-122141227D01*
X144527000Y-121981452D01*
X144527000Y-121818548D01*
X144495218Y-121658773D01*
X144432877Y-121508269D01*
X144342372Y-121372819D01*
X144227181Y-121257628D01*
X144091731Y-121167123D01*
X143941227Y-121104782D01*
X143781452Y-121073000D01*
X143618548Y-121073000D01*
X143458773Y-121104782D01*
X143308269Y-121167123D01*
X143187228Y-121248000D01*
X138012772Y-121248000D01*
X137891731Y-121167123D01*
X137741227Y-121104782D01*
X137581452Y-121073000D01*
X137418548Y-121073000D01*
X137258773Y-121104782D01*
X137108269Y-121167123D01*
X136972819Y-121257628D01*
X136857628Y-121372819D01*
X136767123Y-121508269D01*
X136704782Y-121658773D01*
X136673000Y-121818548D01*
X136673000Y-121981452D01*
X136704782Y-122141227D01*
X136767123Y-122291731D01*
X136857628Y-122427181D01*
X136878447Y-122448000D01*
X136312772Y-122448000D01*
X136191731Y-122367123D01*
X136041227Y-122304782D01*
X135881452Y-122273000D01*
X135718548Y-122273000D01*
X135558773Y-122304782D01*
X135408269Y-122367123D01*
X135350000Y-122406057D01*
X135291731Y-122367123D01*
X135141227Y-122304782D01*
X134981452Y-122273000D01*
X134818548Y-122273000D01*
X134658773Y-122304782D01*
X134508269Y-122367123D01*
X134372819Y-122457628D01*
X134257628Y-122572819D01*
X134167123Y-122708269D01*
X134104782Y-122858773D01*
X134073000Y-123018548D01*
X134073000Y-123181452D01*
X134104782Y-123341227D01*
X134167123Y-123491731D01*
X134248000Y-123612772D01*
X134248000Y-123667978D01*
X134244846Y-123700000D01*
X134248000Y-123732022D01*
X134257435Y-123827814D01*
X134294717Y-123950717D01*
X134355260Y-124063984D01*
X134436737Y-124163264D01*
X134461614Y-124183680D01*
X134616315Y-124338381D01*
X134636736Y-124363264D01*
X134736016Y-124444741D01*
X134849283Y-124505283D01*
X134931218Y-124530138D01*
X134972185Y-124542565D01*
X135100000Y-124555154D01*
X135132022Y-124552000D01*
X136067978Y-124552000D01*
X136100000Y-124555154D01*
X136132022Y-124552000D01*
X136227814Y-124542565D01*
X136350717Y-124505283D01*
X136463984Y-124444741D01*
X136563264Y-124363264D01*
X136583685Y-124338381D01*
X136670066Y-124252000D01*
X142729934Y-124252000D01*
X143225933Y-124748000D01*
X131627000Y-124748000D01*
X131627000Y-124618548D01*
X131595218Y-124458773D01*
X131532877Y-124308269D01*
X131442372Y-124172819D01*
X131327181Y-124057628D01*
X131191731Y-123967123D01*
X131041227Y-123904782D01*
X130881452Y-123873000D01*
X130718548Y-123873000D01*
X130558773Y-123904782D01*
X130408269Y-123967123D01*
X130272819Y-124057628D01*
X130157628Y-124172819D01*
X130107394Y-124247999D01*
X122459978Y-124247999D01*
X122487000Y-124112151D01*
X122487000Y-123909849D01*
X122447533Y-123711435D01*
X122370115Y-123524533D01*
X122257723Y-123356326D01*
X122114674Y-123213277D01*
X121946467Y-123100885D01*
X121759565Y-123023467D01*
X121616452Y-122995000D01*
X121759565Y-122966533D01*
X121946467Y-122889115D01*
X122114674Y-122776723D01*
X122257723Y-122633674D01*
X122370115Y-122465467D01*
X122447533Y-122278565D01*
X122487000Y-122080151D01*
X122487000Y-121877849D01*
X122447533Y-121679435D01*
X122370115Y-121492533D01*
X122257723Y-121324326D01*
X122114674Y-121181277D01*
X121946467Y-121068885D01*
X121759565Y-120991467D01*
X121561151Y-120952000D01*
X121358849Y-120952000D01*
X121160435Y-120991467D01*
X120973533Y-121068885D01*
X120805326Y-121181277D01*
X120662277Y-121324326D01*
X120549885Y-121492533D01*
X120472467Y-121679435D01*
X120433000Y-121877849D01*
X120433000Y-122080151D01*
X120472467Y-122278565D01*
X120549885Y-122465467D01*
X120662277Y-122633674D01*
X120805326Y-122776723D01*
X120973533Y-122889115D01*
X121160435Y-122966533D01*
X121303548Y-122995000D01*
X121160435Y-123023467D01*
X120973533Y-123100885D01*
X120805326Y-123213277D01*
X120662277Y-123356326D01*
X120549885Y-123524533D01*
X120472467Y-123711435D01*
X120457223Y-123788072D01*
X120381452Y-123773000D01*
X120218548Y-123773000D01*
X120058773Y-123804782D01*
X119908269Y-123867123D01*
X119772819Y-123957628D01*
X119657628Y-124072819D01*
X119567123Y-124208269D01*
X119551081Y-124246998D01*
X119527270Y-124246998D01*
X119635370Y-124087647D01*
X119611760Y-123994428D01*
X119529476Y-123810127D01*
X119412818Y-123645420D01*
X119266268Y-123506637D01*
X119095459Y-123399111D01*
X118906955Y-123326975D01*
X118708000Y-123293000D01*
X118310269Y-123293000D01*
X118374258Y-123138519D01*
X118407000Y-122973915D01*
X118407000Y-122806085D01*
X118374258Y-122641481D01*
X118310032Y-122486427D01*
X118216791Y-122346882D01*
X118098118Y-122228209D01*
X117958573Y-122134968D01*
X117803519Y-122070742D01*
X117638915Y-122038000D01*
X117471085Y-122038000D01*
X117306481Y-122070742D01*
X117151427Y-122134968D01*
X117011882Y-122228209D01*
X116893209Y-122346882D01*
X116799968Y-122486427D01*
X116735742Y-122641481D01*
X116703000Y-122806085D01*
X116703000Y-122973915D01*
X116735742Y-123138519D01*
X116799968Y-123293573D01*
X116893209Y-123433118D01*
X116942391Y-123482300D01*
X116903732Y-123506637D01*
X116757182Y-123645420D01*
X116640524Y-123810127D01*
X116558240Y-123994428D01*
X116534630Y-124087647D01*
X116642731Y-124247000D01*
X118012000Y-124247000D01*
X118012000Y-124227000D01*
X118158000Y-124227000D01*
X118158000Y-124247000D01*
X118178000Y-124247000D01*
X118178000Y-124393000D01*
X118158000Y-124393000D01*
X118158000Y-124413000D01*
X118012000Y-124413000D01*
X118012000Y-124393000D01*
X116642731Y-124393000D01*
X116534630Y-124552353D01*
X116558240Y-124645572D01*
X116603971Y-124748000D01*
X115136029Y-124748000D01*
X115181760Y-124645572D01*
X115205370Y-124552353D01*
X115097269Y-124393000D01*
X113978000Y-124393000D01*
X113978000Y-124413000D01*
X113832000Y-124413000D01*
X113832000Y-124393000D01*
X113812000Y-124393000D01*
X113812000Y-124247000D01*
X113832000Y-124247000D01*
X113832000Y-123293000D01*
X113978000Y-123293000D01*
X113978000Y-124247000D01*
X115097269Y-124247000D01*
X115205370Y-124087647D01*
X115181760Y-123994428D01*
X115099476Y-123810127D01*
X114982818Y-123645420D01*
X114836268Y-123506637D01*
X114665459Y-123399111D01*
X114476955Y-123326975D01*
X114278000Y-123293000D01*
X113978000Y-123293000D01*
X113832000Y-123293000D01*
X113532000Y-123293000D01*
X113452000Y-123306661D01*
X113452000Y-118608699D01*
X124373000Y-118608699D01*
X124373000Y-118791301D01*
X124408624Y-118970396D01*
X124478504Y-119139099D01*
X124573001Y-119280525D01*
X124573000Y-120919476D01*
X124478504Y-121060901D01*
X124408624Y-121229604D01*
X124373000Y-121408699D01*
X124373000Y-121591301D01*
X124408624Y-121770396D01*
X124478504Y-121939099D01*
X124579952Y-122090928D01*
X124709072Y-122220048D01*
X124860901Y-122321496D01*
X125029604Y-122391376D01*
X125208699Y-122427000D01*
X125391301Y-122427000D01*
X125570396Y-122391376D01*
X125739099Y-122321496D01*
X125805423Y-122277180D01*
X125742277Y-122340326D01*
X125629885Y-122508533D01*
X125552467Y-122695435D01*
X125513000Y-122893849D01*
X125513000Y-123096151D01*
X125552467Y-123294565D01*
X125629885Y-123481467D01*
X125742277Y-123649674D01*
X125885326Y-123792723D01*
X126053533Y-123905115D01*
X126240435Y-123982533D01*
X126438849Y-124022000D01*
X126641151Y-124022000D01*
X126839565Y-123982533D01*
X127026467Y-123905115D01*
X127194674Y-123792723D01*
X127337723Y-123649674D01*
X127450115Y-123481467D01*
X127527533Y-123294565D01*
X127567000Y-123096151D01*
X127567000Y-122893849D01*
X127527533Y-122695435D01*
X127450115Y-122508533D01*
X127337723Y-122340326D01*
X127194674Y-122197277D01*
X127026467Y-122084885D01*
X126839565Y-122007467D01*
X126641151Y-121968000D01*
X126438849Y-121968000D01*
X126240435Y-122007467D01*
X126053533Y-122084885D01*
X125970832Y-122140144D01*
X126020048Y-122090928D01*
X126121496Y-121939099D01*
X126191376Y-121770396D01*
X126227000Y-121591301D01*
X126227000Y-121408699D01*
X126191376Y-121229604D01*
X126121496Y-121060901D01*
X126027000Y-120919476D01*
X126027000Y-119280524D01*
X126121496Y-119139099D01*
X126191376Y-118970396D01*
X126227000Y-118791301D01*
X126227000Y-118608699D01*
X126191376Y-118429604D01*
X126121496Y-118260901D01*
X126020048Y-118109072D01*
X125890928Y-117979952D01*
X125739099Y-117878504D01*
X125570396Y-117808624D01*
X125391301Y-117773000D01*
X125208699Y-117773000D01*
X125029604Y-117808624D01*
X124860901Y-117878504D01*
X124709072Y-117979952D01*
X124579952Y-118109072D01*
X124478504Y-118260901D01*
X124408624Y-118429604D01*
X124373000Y-118608699D01*
X113452000Y-118608699D01*
X113452000Y-116693339D01*
X113532000Y-116707000D01*
X113832000Y-116707000D01*
X113832000Y-115753000D01*
X113978000Y-115753000D01*
X113978000Y-116707000D01*
X114278000Y-116707000D01*
X114476955Y-116673025D01*
X114665459Y-116600889D01*
X114836268Y-116493363D01*
X114982818Y-116354580D01*
X115099476Y-116189873D01*
X115181760Y-116005572D01*
X115205370Y-115912353D01*
X116534630Y-115912353D01*
X116558240Y-116005572D01*
X116640524Y-116189873D01*
X116757182Y-116354580D01*
X116903732Y-116493363D01*
X116942391Y-116517700D01*
X116893209Y-116566882D01*
X116799968Y-116706427D01*
X116735742Y-116861481D01*
X116703000Y-117026085D01*
X116703000Y-117193915D01*
X116735742Y-117358519D01*
X116799968Y-117513573D01*
X116893209Y-117653118D01*
X117011882Y-117771791D01*
X117151427Y-117865032D01*
X117306481Y-117929258D01*
X117471085Y-117962000D01*
X117638915Y-117962000D01*
X117803519Y-117929258D01*
X117958573Y-117865032D01*
X118098118Y-117771791D01*
X118216791Y-117653118D01*
X118310032Y-117513573D01*
X118374258Y-117358519D01*
X118407000Y-117193915D01*
X118407000Y-117026085D01*
X118374258Y-116861481D01*
X118310269Y-116707000D01*
X118708000Y-116707000D01*
X118906955Y-116673025D01*
X119095459Y-116600889D01*
X119266268Y-116493363D01*
X119412818Y-116354580D01*
X119529476Y-116189873D01*
X119611760Y-116005572D01*
X119635370Y-115912353D01*
X119527269Y-115753000D01*
X118158000Y-115753000D01*
X118158000Y-115773000D01*
X118012000Y-115773000D01*
X118012000Y-115753000D01*
X116642731Y-115753000D01*
X116534630Y-115912353D01*
X115205370Y-115912353D01*
X115097269Y-115753000D01*
X113978000Y-115753000D01*
X113832000Y-115753000D01*
X113812000Y-115753000D01*
X113812000Y-115607000D01*
X113832000Y-115607000D01*
X113832000Y-115587000D01*
X113978000Y-115587000D01*
X113978000Y-115607000D01*
X115097269Y-115607000D01*
X115205370Y-115447647D01*
X115181760Y-115354428D01*
X115136029Y-115252000D01*
X116603971Y-115252000D01*
X116558240Y-115354428D01*
X116558240Y-115354428D01*
G37*
X116558240Y-115354428D02*
X116534630Y-115447647D01*
X116642731Y-115607000D01*
X118012000Y-115607000D01*
X118012000Y-115587000D01*
X118158000Y-115587000D01*
X118158000Y-115607000D01*
X119527269Y-115607000D01*
X119635370Y-115447647D01*
X119611760Y-115354428D01*
X119566029Y-115252000D01*
X137425933Y-115252000D01*
X136684446Y-115993487D01*
X136581452Y-115973000D01*
X136418548Y-115973000D01*
X136258773Y-116004782D01*
X136108269Y-116067123D01*
X135972819Y-116157628D01*
X135857628Y-116272819D01*
X135767123Y-116408269D01*
X135704782Y-116558773D01*
X135673000Y-116718548D01*
X135673000Y-116881452D01*
X135704782Y-117041227D01*
X135767123Y-117191731D01*
X135838282Y-117298227D01*
X135791731Y-117267123D01*
X135641227Y-117204782D01*
X135481452Y-117173000D01*
X135318548Y-117173000D01*
X135158773Y-117204782D01*
X135008269Y-117267123D01*
X134872819Y-117357628D01*
X134757628Y-117472819D01*
X134694872Y-117566739D01*
X133897282Y-116769150D01*
X133895218Y-116758773D01*
X133832877Y-116608269D01*
X133742372Y-116472819D01*
X133627181Y-116357628D01*
X133491731Y-116267123D01*
X133341227Y-116204782D01*
X133181452Y-116173000D01*
X133018548Y-116173000D01*
X132858773Y-116204782D01*
X132708269Y-116267123D01*
X132572819Y-116357628D01*
X132457628Y-116472819D01*
X132367123Y-116608269D01*
X132304782Y-116758773D01*
X132273000Y-116918548D01*
X132273000Y-117081452D01*
X132304782Y-117241227D01*
X132367123Y-117391731D01*
X132457628Y-117527181D01*
X132572819Y-117642372D01*
X132708269Y-117732877D01*
X132858773Y-117795218D01*
X132869150Y-117797282D01*
X134460683Y-119388817D01*
X134483446Y-119416554D01*
X134594147Y-119507403D01*
X134716870Y-119573000D01*
X134717325Y-119573243D01*
X134558773Y-119604782D01*
X134408269Y-119667123D01*
X134287228Y-119748000D01*
X133412772Y-119748000D01*
X133291731Y-119667123D01*
X133141227Y-119604782D01*
X132981452Y-119573000D01*
X132818548Y-119573000D01*
X132658773Y-119604782D01*
X132508269Y-119667123D01*
X132372819Y-119757628D01*
X132257628Y-119872819D01*
X132167123Y-120008269D01*
X132104782Y-120158773D01*
X132073000Y-120318548D01*
X132073000Y-120481452D01*
X132104782Y-120641227D01*
X132167123Y-120791731D01*
X132257628Y-120927181D01*
X132329513Y-120999066D01*
X132304782Y-121058773D01*
X132273000Y-121218548D01*
X132273000Y-121381452D01*
X132304782Y-121541227D01*
X132367123Y-121691731D01*
X132457628Y-121827181D01*
X132572819Y-121942372D01*
X132708269Y-122032877D01*
X132858773Y-122095218D01*
X133018548Y-122127000D01*
X133181452Y-122127000D01*
X133341227Y-122095218D01*
X133491731Y-122032877D01*
X133612772Y-121952000D01*
X134287228Y-121952000D01*
X134408269Y-122032877D01*
X134558773Y-122095218D01*
X134718548Y-122127000D01*
X134881452Y-122127000D01*
X135041227Y-122095218D01*
X135191731Y-122032877D01*
X135327181Y-121942372D01*
X135442372Y-121827181D01*
X135532877Y-121691731D01*
X135595218Y-121541227D01*
X135627000Y-121381452D01*
X135627000Y-121218548D01*
X135595218Y-121058773D01*
X135532877Y-120908269D01*
X135493943Y-120850000D01*
X135532877Y-120791731D01*
X135595218Y-120641227D01*
X135627000Y-120481452D01*
X135627000Y-120318548D01*
X135595218Y-120158773D01*
X135532877Y-120008269D01*
X135442372Y-119872819D01*
X135327181Y-119757628D01*
X135191731Y-119667123D01*
X135094866Y-119627000D01*
X135599473Y-119627000D01*
X135608269Y-119632877D01*
X135758773Y-119695218D01*
X135918548Y-119727000D01*
X136081452Y-119727000D01*
X136241227Y-119695218D01*
X136391731Y-119632877D01*
X136527181Y-119542372D01*
X136642372Y-119427181D01*
X136732877Y-119291731D01*
X136795218Y-119141227D01*
X136827000Y-118981452D01*
X136827000Y-118818548D01*
X136795218Y-118658773D01*
X136790045Y-118646285D01*
X136827814Y-118642565D01*
X136950717Y-118605283D01*
X137063984Y-118544741D01*
X137163264Y-118463264D01*
X137183685Y-118438381D01*
X139470067Y-116152000D01*
X139601670Y-116152000D01*
X139461614Y-116292056D01*
X139436737Y-116312472D01*
X139355259Y-116411752D01*
X139294717Y-116525019D01*
X139271702Y-116600889D01*
X139257435Y-116647922D01*
X139254525Y-116677462D01*
X139167123Y-116808269D01*
X139104782Y-116958773D01*
X139073000Y-117118548D01*
X139073000Y-117281452D01*
X139104782Y-117441227D01*
X139167123Y-117591731D01*
X139257628Y-117727181D01*
X139372819Y-117842372D01*
X139508269Y-117932877D01*
X139658773Y-117995218D01*
X139818548Y-118027000D01*
X139981452Y-118027000D01*
X140141227Y-117995218D01*
X140291731Y-117932877D01*
X140427181Y-117842372D01*
X140542372Y-117727181D01*
X140632877Y-117591731D01*
X140695218Y-117441227D01*
X140727000Y-117281452D01*
X140727000Y-117118548D01*
X140695218Y-116958773D01*
X140678761Y-116919042D01*
X140945803Y-116652000D01*
X144427492Y-116652000D01*
X144436736Y-116663264D01*
X144536016Y-116744741D01*
X144649283Y-116805283D01*
X144731218Y-116830138D01*
X144772185Y-116842565D01*
X144900000Y-116855154D01*
X144932022Y-116852000D01*
X145567978Y-116852000D01*
X145600000Y-116855154D01*
X145632022Y-116852000D01*
X145727814Y-116842565D01*
X145850717Y-116805283D01*
X145963984Y-116744741D01*
X146063264Y-116663264D01*
X146083684Y-116638382D01*
X146398447Y-116323619D01*
X146541227Y-116295218D01*
X146691731Y-116232877D01*
X146827181Y-116142372D01*
X146942372Y-116027181D01*
X147032877Y-115891731D01*
X147095218Y-115741227D01*
X147127000Y-115581452D01*
X147127000Y-115418548D01*
X147095218Y-115258773D01*
X147092413Y-115252000D01*
X153148000Y-115252000D01*
X153148001Y-124748000D01*
X147192413Y-124748000D01*
X147195218Y-124741227D01*
X147227000Y-124581452D01*
X147227000Y-124418548D01*
X147195218Y-124258773D01*
X147132877Y-124108269D01*
X147042372Y-123972819D01*
X146927181Y-123857628D01*
X146791731Y-123767123D01*
X146641227Y-123704782D01*
X146481452Y-123673000D01*
X146318548Y-123673000D01*
X146158773Y-123704782D01*
X146008269Y-123767123D01*
X145887228Y-123848000D01*
X144792413Y-123848000D01*
X144795218Y-123841227D01*
X144827000Y-123681452D01*
X144827000Y-123518548D01*
X144795218Y-123358773D01*
X144732877Y-123208269D01*
X144642372Y-123072819D01*
X144527181Y-122957628D01*
X144391731Y-122867123D01*
X144241227Y-122804782D01*
X144098447Y-122776381D01*
X143995007Y-122672941D01*
X144091731Y-122632877D01*
X144227181Y-122542372D01*
X144342372Y-122427181D01*
X144432877Y-122291731D01*
X144495218Y-122141227D01*
X144527000Y-121981452D01*
X144527000Y-121818548D01*
X144495218Y-121658773D01*
X144432877Y-121508269D01*
X144342372Y-121372819D01*
X144227181Y-121257628D01*
X144091731Y-121167123D01*
X143941227Y-121104782D01*
X143781452Y-121073000D01*
X143618548Y-121073000D01*
X143458773Y-121104782D01*
X143308269Y-121167123D01*
X143187228Y-121248000D01*
X138012772Y-121248000D01*
X137891731Y-121167123D01*
X137741227Y-121104782D01*
X137581452Y-121073000D01*
X137418548Y-121073000D01*
X137258773Y-121104782D01*
X137108269Y-121167123D01*
X136972819Y-121257628D01*
X136857628Y-121372819D01*
X136767123Y-121508269D01*
X136704782Y-121658773D01*
X136673000Y-121818548D01*
X136673000Y-121981452D01*
X136704782Y-122141227D01*
X136767123Y-122291731D01*
X136857628Y-122427181D01*
X136878447Y-122448000D01*
X136312772Y-122448000D01*
X136191731Y-122367123D01*
X136041227Y-122304782D01*
X135881452Y-122273000D01*
X135718548Y-122273000D01*
X135558773Y-122304782D01*
X135408269Y-122367123D01*
X135350000Y-122406057D01*
X135291731Y-122367123D01*
X135141227Y-122304782D01*
X134981452Y-122273000D01*
X134818548Y-122273000D01*
X134658773Y-122304782D01*
X134508269Y-122367123D01*
X134372819Y-122457628D01*
X134257628Y-122572819D01*
X134167123Y-122708269D01*
X134104782Y-122858773D01*
X134073000Y-123018548D01*
X134073000Y-123181452D01*
X134104782Y-123341227D01*
X134167123Y-123491731D01*
X134248000Y-123612772D01*
X134248000Y-123667978D01*
X134244846Y-123700000D01*
X134248000Y-123732022D01*
X134257435Y-123827814D01*
X134294717Y-123950717D01*
X134355260Y-124063984D01*
X134436737Y-124163264D01*
X134461614Y-124183680D01*
X134616315Y-124338381D01*
X134636736Y-124363264D01*
X134736016Y-124444741D01*
X134849283Y-124505283D01*
X134931218Y-124530138D01*
X134972185Y-124542565D01*
X135100000Y-124555154D01*
X135132022Y-124552000D01*
X136067978Y-124552000D01*
X136100000Y-124555154D01*
X136132022Y-124552000D01*
X136227814Y-124542565D01*
X136350717Y-124505283D01*
X136463984Y-124444741D01*
X136563264Y-124363264D01*
X136583685Y-124338381D01*
X136670066Y-124252000D01*
X142729934Y-124252000D01*
X143225933Y-124748000D01*
X131627000Y-124748000D01*
X131627000Y-124618548D01*
X131595218Y-124458773D01*
X131532877Y-124308269D01*
X131442372Y-124172819D01*
X131327181Y-124057628D01*
X131191731Y-123967123D01*
X131041227Y-123904782D01*
X130881452Y-123873000D01*
X130718548Y-123873000D01*
X130558773Y-123904782D01*
X130408269Y-123967123D01*
X130272819Y-124057628D01*
X130157628Y-124172819D01*
X130107394Y-124247999D01*
X122459978Y-124247999D01*
X122487000Y-124112151D01*
X122487000Y-123909849D01*
X122447533Y-123711435D01*
X122370115Y-123524533D01*
X122257723Y-123356326D01*
X122114674Y-123213277D01*
X121946467Y-123100885D01*
X121759565Y-123023467D01*
X121616452Y-122995000D01*
X121759565Y-122966533D01*
X121946467Y-122889115D01*
X122114674Y-122776723D01*
X122257723Y-122633674D01*
X122370115Y-122465467D01*
X122447533Y-122278565D01*
X122487000Y-122080151D01*
X122487000Y-121877849D01*
X122447533Y-121679435D01*
X122370115Y-121492533D01*
X122257723Y-121324326D01*
X122114674Y-121181277D01*
X121946467Y-121068885D01*
X121759565Y-120991467D01*
X121561151Y-120952000D01*
X121358849Y-120952000D01*
X121160435Y-120991467D01*
X120973533Y-121068885D01*
X120805326Y-121181277D01*
X120662277Y-121324326D01*
X120549885Y-121492533D01*
X120472467Y-121679435D01*
X120433000Y-121877849D01*
X120433000Y-122080151D01*
X120472467Y-122278565D01*
X120549885Y-122465467D01*
X120662277Y-122633674D01*
X120805326Y-122776723D01*
X120973533Y-122889115D01*
X121160435Y-122966533D01*
X121303548Y-122995000D01*
X121160435Y-123023467D01*
X120973533Y-123100885D01*
X120805326Y-123213277D01*
X120662277Y-123356326D01*
X120549885Y-123524533D01*
X120472467Y-123711435D01*
X120457223Y-123788072D01*
X120381452Y-123773000D01*
X120218548Y-123773000D01*
X120058773Y-123804782D01*
X119908269Y-123867123D01*
X119772819Y-123957628D01*
X119657628Y-124072819D01*
X119567123Y-124208269D01*
X119551081Y-124246998D01*
X119527270Y-124246998D01*
X119635370Y-124087647D01*
X119611760Y-123994428D01*
X119529476Y-123810127D01*
X119412818Y-123645420D01*
X119266268Y-123506637D01*
X119095459Y-123399111D01*
X118906955Y-123326975D01*
X118708000Y-123293000D01*
X118310269Y-123293000D01*
X118374258Y-123138519D01*
X118407000Y-122973915D01*
X118407000Y-122806085D01*
X118374258Y-122641481D01*
X118310032Y-122486427D01*
X118216791Y-122346882D01*
X118098118Y-122228209D01*
X117958573Y-122134968D01*
X117803519Y-122070742D01*
X117638915Y-122038000D01*
X117471085Y-122038000D01*
X117306481Y-122070742D01*
X117151427Y-122134968D01*
X117011882Y-122228209D01*
X116893209Y-122346882D01*
X116799968Y-122486427D01*
X116735742Y-122641481D01*
X116703000Y-122806085D01*
X116703000Y-122973915D01*
X116735742Y-123138519D01*
X116799968Y-123293573D01*
X116893209Y-123433118D01*
X116942391Y-123482300D01*
X116903732Y-123506637D01*
X116757182Y-123645420D01*
X116640524Y-123810127D01*
X116558240Y-123994428D01*
X116534630Y-124087647D01*
X116642731Y-124247000D01*
X118012000Y-124247000D01*
X118012000Y-124227000D01*
X118158000Y-124227000D01*
X118158000Y-124247000D01*
X118178000Y-124247000D01*
X118178000Y-124393000D01*
X118158000Y-124393000D01*
X118158000Y-124413000D01*
X118012000Y-124413000D01*
X118012000Y-124393000D01*
X116642731Y-124393000D01*
X116534630Y-124552353D01*
X116558240Y-124645572D01*
X116603971Y-124748000D01*
X115136029Y-124748000D01*
X115181760Y-124645572D01*
X115205370Y-124552353D01*
X115097269Y-124393000D01*
X113978000Y-124393000D01*
X113978000Y-124413000D01*
X113832000Y-124413000D01*
X113832000Y-124393000D01*
X113812000Y-124393000D01*
X113812000Y-124247000D01*
X113832000Y-124247000D01*
X113832000Y-123293000D01*
X113978000Y-123293000D01*
X113978000Y-124247000D01*
X115097269Y-124247000D01*
X115205370Y-124087647D01*
X115181760Y-123994428D01*
X115099476Y-123810127D01*
X114982818Y-123645420D01*
X114836268Y-123506637D01*
X114665459Y-123399111D01*
X114476955Y-123326975D01*
X114278000Y-123293000D01*
X113978000Y-123293000D01*
X113832000Y-123293000D01*
X113532000Y-123293000D01*
X113452000Y-123306661D01*
X113452000Y-118608699D01*
X124373000Y-118608699D01*
X124373000Y-118791301D01*
X124408624Y-118970396D01*
X124478504Y-119139099D01*
X124573001Y-119280525D01*
X124573000Y-120919476D01*
X124478504Y-121060901D01*
X124408624Y-121229604D01*
X124373000Y-121408699D01*
X124373000Y-121591301D01*
X124408624Y-121770396D01*
X124478504Y-121939099D01*
X124579952Y-122090928D01*
X124709072Y-122220048D01*
X124860901Y-122321496D01*
X125029604Y-122391376D01*
X125208699Y-122427000D01*
X125391301Y-122427000D01*
X125570396Y-122391376D01*
X125739099Y-122321496D01*
X125805423Y-122277180D01*
X125742277Y-122340326D01*
X125629885Y-122508533D01*
X125552467Y-122695435D01*
X125513000Y-122893849D01*
X125513000Y-123096151D01*
X125552467Y-123294565D01*
X125629885Y-123481467D01*
X125742277Y-123649674D01*
X125885326Y-123792723D01*
X126053533Y-123905115D01*
X126240435Y-123982533D01*
X126438849Y-124022000D01*
X126641151Y-124022000D01*
X126839565Y-123982533D01*
X127026467Y-123905115D01*
X127194674Y-123792723D01*
X127337723Y-123649674D01*
X127450115Y-123481467D01*
X127527533Y-123294565D01*
X127567000Y-123096151D01*
X127567000Y-122893849D01*
X127527533Y-122695435D01*
X127450115Y-122508533D01*
X127337723Y-122340326D01*
X127194674Y-122197277D01*
X127026467Y-122084885D01*
X126839565Y-122007467D01*
X126641151Y-121968000D01*
X126438849Y-121968000D01*
X126240435Y-122007467D01*
X126053533Y-122084885D01*
X125970832Y-122140144D01*
X126020048Y-122090928D01*
X126121496Y-121939099D01*
X126191376Y-121770396D01*
X126227000Y-121591301D01*
X126227000Y-121408699D01*
X126191376Y-121229604D01*
X126121496Y-121060901D01*
X126027000Y-120919476D01*
X126027000Y-119280524D01*
X126121496Y-119139099D01*
X126191376Y-118970396D01*
X126227000Y-118791301D01*
X126227000Y-118608699D01*
X126191376Y-118429604D01*
X126121496Y-118260901D01*
X126020048Y-118109072D01*
X125890928Y-117979952D01*
X125739099Y-117878504D01*
X125570396Y-117808624D01*
X125391301Y-117773000D01*
X125208699Y-117773000D01*
X125029604Y-117808624D01*
X124860901Y-117878504D01*
X124709072Y-117979952D01*
X124579952Y-118109072D01*
X124478504Y-118260901D01*
X124408624Y-118429604D01*
X124373000Y-118608699D01*
X113452000Y-118608699D01*
X113452000Y-116693339D01*
X113532000Y-116707000D01*
X113832000Y-116707000D01*
X113832000Y-115753000D01*
X113978000Y-115753000D01*
X113978000Y-116707000D01*
X114278000Y-116707000D01*
X114476955Y-116673025D01*
X114665459Y-116600889D01*
X114836268Y-116493363D01*
X114982818Y-116354580D01*
X115099476Y-116189873D01*
X115181760Y-116005572D01*
X115205370Y-115912353D01*
X116534630Y-115912353D01*
X116558240Y-116005572D01*
X116640524Y-116189873D01*
X116757182Y-116354580D01*
X116903732Y-116493363D01*
X116942391Y-116517700D01*
X116893209Y-116566882D01*
X116799968Y-116706427D01*
X116735742Y-116861481D01*
X116703000Y-117026085D01*
X116703000Y-117193915D01*
X116735742Y-117358519D01*
X116799968Y-117513573D01*
X116893209Y-117653118D01*
X117011882Y-117771791D01*
X117151427Y-117865032D01*
X117306481Y-117929258D01*
X117471085Y-117962000D01*
X117638915Y-117962000D01*
X117803519Y-117929258D01*
X117958573Y-117865032D01*
X118098118Y-117771791D01*
X118216791Y-117653118D01*
X118310032Y-117513573D01*
X118374258Y-117358519D01*
X118407000Y-117193915D01*
X118407000Y-117026085D01*
X118374258Y-116861481D01*
X118310269Y-116707000D01*
X118708000Y-116707000D01*
X118906955Y-116673025D01*
X119095459Y-116600889D01*
X119266268Y-116493363D01*
X119412818Y-116354580D01*
X119529476Y-116189873D01*
X119611760Y-116005572D01*
X119635370Y-115912353D01*
X119527269Y-115753000D01*
X118158000Y-115753000D01*
X118158000Y-115773000D01*
X118012000Y-115773000D01*
X118012000Y-115753000D01*
X116642731Y-115753000D01*
X116534630Y-115912353D01*
X115205370Y-115912353D01*
X115097269Y-115753000D01*
X113978000Y-115753000D01*
X113832000Y-115753000D01*
X113812000Y-115753000D01*
X113812000Y-115607000D01*
X113832000Y-115607000D01*
X113832000Y-115587000D01*
X113978000Y-115587000D01*
X113978000Y-115607000D01*
X115097269Y-115607000D01*
X115205370Y-115447647D01*
X115181760Y-115354428D01*
X115136029Y-115252000D01*
X116603971Y-115252000D01*
X116558240Y-115354428D01*
M02*
