%TF.GenerationSoftware,KiCad,Pcbnew,(5.1.2)-2*%
%TF.CreationDate,2020-03-28T11:47:37+08:00*%
%TF.ProjectId,ffp,6666702e-6b69-4636-9164-5f7063625858,1*%
%TF.SameCoordinates,Original*%
%TF.FileFunction,Legend,Top*%
%TF.FilePolarity,Positive*%
%FSLAX46Y46*%
G04 Gerber Fmt 4.6, Leading zero omitted, Abs format (unit mm)*
G04 Created by KiCad (PCBNEW (5.1.2)-2) date 2020-03-28 11:47:37*
%MOMM*%
%LPD*%
G04 APERTURE LIST*
%ADD10C,0.150000*%
%ADD11C,0.120000*%
G04 APERTURE END LIST*
D10*
X115423895Y-117373733D02*
X114852466Y-117373733D01*
X114738180Y-117335638D01*
X114661990Y-117259447D01*
X114623895Y-117145161D01*
X114623895Y-117068971D01*
X114623895Y-118135638D02*
X114623895Y-117754685D01*
X115423895Y-117754685D01*
X114700085Y-118859447D02*
X114661990Y-118821352D01*
X114623895Y-118707066D01*
X114623895Y-118630876D01*
X114661990Y-118516590D01*
X114738180Y-118440400D01*
X114814371Y-118402304D01*
X114966752Y-118364209D01*
X115081038Y-118364209D01*
X115233419Y-118402304D01*
X115309609Y-118440400D01*
X115385800Y-118516590D01*
X115423895Y-118630876D01*
X115423895Y-118707066D01*
X115385800Y-118821352D01*
X115347704Y-118859447D01*
X115423895Y-119430876D02*
X114852466Y-119430876D01*
X114738180Y-119392780D01*
X114661990Y-119316590D01*
X114623895Y-119202304D01*
X114623895Y-119126114D01*
X114623895Y-120192780D02*
X114623895Y-119811828D01*
X115423895Y-119811828D01*
X114700085Y-120916590D02*
X114661990Y-120878495D01*
X114623895Y-120764209D01*
X114623895Y-120688019D01*
X114661990Y-120573733D01*
X114738180Y-120497542D01*
X114814371Y-120459447D01*
X114966752Y-120421352D01*
X115081038Y-120421352D01*
X115233419Y-120459447D01*
X115309609Y-120497542D01*
X115385800Y-120573733D01*
X115423895Y-120688019D01*
X115423895Y-120764209D01*
X115385800Y-120878495D01*
X115347704Y-120916590D01*
X115423895Y-121488019D02*
X114852466Y-121488019D01*
X114738180Y-121449923D01*
X114661990Y-121373733D01*
X114623895Y-121259447D01*
X114623895Y-121183257D01*
X114623895Y-122249923D02*
X114623895Y-121868971D01*
X115423895Y-121868971D01*
X114700085Y-122973733D02*
X114661990Y-122935638D01*
X114623895Y-122821352D01*
X114623895Y-122745161D01*
X114661990Y-122630876D01*
X114738180Y-122554685D01*
X114814371Y-122516590D01*
X114966752Y-122478495D01*
X115081038Y-122478495D01*
X115233419Y-122516590D01*
X115309609Y-122554685D01*
X115385800Y-122630876D01*
X115423895Y-122745161D01*
X115423895Y-122821352D01*
X115385800Y-122935638D01*
X115347704Y-122973733D01*
D11*
X152200000Y-123000000D02*
X152700000Y-123700000D01*
X151700000Y-123700000D02*
X152200000Y-123000000D01*
D10*
X119500000Y-124000000D02*
X119500000Y-124500000D01*
X119500000Y-115500000D02*
X119500000Y-116000000D01*
X117000000Y-115500000D02*
X115000000Y-115500000D01*
X115000000Y-124500000D02*
X117000000Y-124500000D01*
X113000000Y-124500000D02*
X111305000Y-124500000D01*
X111305000Y-115500000D02*
X113000000Y-115500000D01*
X111305000Y-124500000D02*
X111305000Y-115500000D01*
X148125000Y-115175000D02*
X148125000Y-115825000D01*
X147875000Y-115175000D02*
X148125000Y-115175000D01*
X147875000Y-115825000D02*
X147875000Y-115175000D01*
X148125000Y-115825000D02*
X147875000Y-115825000D01*
X151875000Y-115825000D02*
X151875000Y-115175000D01*
X152125000Y-115500000D02*
X151875000Y-115175000D01*
X152125000Y-115500000D02*
X151875000Y-115825000D01*
X148125000Y-124175000D02*
X148125000Y-124825000D01*
X147875000Y-124175000D02*
X148125000Y-124175000D01*
X147875000Y-124825000D02*
X147875000Y-124175000D01*
X148125000Y-124825000D02*
X147875000Y-124825000D01*
X140675000Y-123375000D02*
X141325000Y-123375000D01*
X140675000Y-123625000D02*
X140675000Y-123375000D01*
X141325000Y-123625000D02*
X140675000Y-123625000D01*
X141325000Y-123375000D02*
X141325000Y-123625000D01*
X149500000Y-123100000D02*
X149500000Y-116900000D01*
X150400000Y-123100000D02*
X150400000Y-121100000D01*
X150400000Y-116900000D02*
X150400000Y-118900000D01*
X149500000Y-116900000D02*
X150400000Y-116900000D01*
X149500000Y-123100000D02*
X150400000Y-123100000D01*
X143750000Y-123050000D02*
X144250000Y-122550000D01*
X143750000Y-124450000D02*
X143750000Y-123050000D01*
X144250000Y-124450000D02*
X143750000Y-124450000D01*
X144250000Y-122550000D02*
X144250000Y-124450000D01*
X144250000Y-122550000D02*
X144250000Y-122550000D01*
X124150000Y-117350000D02*
X123850000Y-117650000D01*
X124150000Y-115750000D02*
X124150000Y-117350000D01*
X123850000Y-115750000D02*
X124150000Y-115750000D01*
X123850000Y-117650000D02*
X123850000Y-115750000D01*
X123850000Y-117650000D02*
X123850000Y-117650000D01*
X137600000Y-122500000D02*
X137000000Y-123100000D01*
X137600000Y-116900000D02*
X137600000Y-122500000D01*
X131400000Y-116900000D02*
X137600000Y-116900000D01*
X131400000Y-123100000D02*
X131400000Y-116900000D01*
X137000000Y-123100000D02*
X131400000Y-123100000D01*
X151875000Y-124825000D02*
X151875000Y-124175000D01*
X152125000Y-124825000D02*
X151875000Y-124825000D01*
X152125000Y-124175000D02*
X152125000Y-124825000D01*
X151875000Y-124175000D02*
X152125000Y-124175000D01*
X126675000Y-116875000D02*
X127325000Y-116875000D01*
X126675000Y-117125000D02*
X126675000Y-116875000D01*
X127325000Y-117125000D02*
X126675000Y-117125000D01*
X127325000Y-116875000D02*
X127325000Y-117125000D01*
X121325000Y-117125000D02*
X120675000Y-117125000D01*
X121325000Y-116875000D02*
X121325000Y-117125000D01*
X120675000Y-116875000D02*
X121325000Y-116875000D01*
X120675000Y-117125000D02*
X120675000Y-116875000D01*
X144325000Y-120125000D02*
X143675000Y-120125000D01*
X144325000Y-119875000D02*
X144325000Y-120125000D01*
X143675000Y-119875000D02*
X144325000Y-119875000D01*
X143675000Y-120125000D02*
X143675000Y-119875000D01*
X142825000Y-120125000D02*
X142175000Y-120125000D01*
X142825000Y-119875000D02*
X142825000Y-120125000D01*
X142175000Y-119875000D02*
X142825000Y-119875000D01*
X142175000Y-120125000D02*
X142175000Y-119875000D01*
X141325000Y-120125000D02*
X140675000Y-120125000D01*
X141325000Y-119875000D02*
X141325000Y-120125000D01*
X140675000Y-119875000D02*
X141325000Y-119875000D01*
X140675000Y-120125000D02*
X140675000Y-119875000D01*
X128175000Y-116875000D02*
X128825000Y-116875000D01*
X128175000Y-117125000D02*
X128175000Y-116875000D01*
X128825000Y-117125000D02*
X128175000Y-117125000D01*
X128825000Y-116875000D02*
X128825000Y-117125000D01*
X116800380Y-120322933D02*
X117514666Y-120322933D01*
X117657523Y-120370552D01*
X117752761Y-120465790D01*
X117800380Y-120608647D01*
X117800380Y-120703885D01*
X116895619Y-119894361D02*
X116848000Y-119846742D01*
X116800380Y-119751504D01*
X116800380Y-119513409D01*
X116848000Y-119418171D01*
X116895619Y-119370552D01*
X116990857Y-119322933D01*
X117086095Y-119322933D01*
X117228952Y-119370552D01*
X117800380Y-119941980D01*
X117800380Y-119322933D01*
M02*
