M48
; DRILL file {KiCad (5.1.2)-2} date 2020/3/31 21:57:37
; FORMAT={-:-/ absolute / metric / decimal}
; #@! TF.CreationDate,2020-03-31T21:57:37+08:00
; #@! TF.GenerationSoftware,Kicad,Pcbnew,(5.1.2)-2
; #@! TF.FileFunction,Plated,1,2,PTH
FMAT,2
METRIC
T1C0.300
T2C0.400
T3C0.600
T4C0.650
%
G90
G05
T1
X120.3Y-124.6
X130.8Y-124.7
X132.9Y-120.4
X133.1Y-117.0
X133.1Y-121.3
X134.8Y-120.4
X134.8Y-121.3
X134.9Y-123.1
X135.4Y-118.0
X135.8Y-123.1
X136.0Y-118.9
X136.5Y-116.8
X137.5Y-121.9
X138.3Y-115.3
X139.9Y-117.2
X143.7Y-121.9
X144.0Y-122.7
X144.0Y-123.6
X145.3Y-115.5
X146.3Y-115.5
X146.4Y-124.5
T2
X122.0Y-115.7
X122.7Y-121.6
X125.3Y-118.7
X125.3Y-121.5
X127.0Y-118.8
X128.5Y-118.8
X130.9Y-115.8
X138.1Y-124.5
X139.9Y-124.5
X141.0Y-118.1
X142.5Y-118.1
X144.0Y-118.1
X152.8Y-123.6
T4
X149.37Y-117.455
X149.37Y-118.725
X149.37Y-119.995
X149.37Y-121.265
X149.37Y-122.535
X150.64Y-117.455
X150.64Y-118.725
X150.64Y-119.995
X150.64Y-121.265
X150.64Y-122.535
T3
G00X114.205Y-115.68
M15
G01X113.605Y-115.68
M16
G05
G00X114.205Y-124.32
M15
G01X113.605Y-124.32
M16
G05
G00X118.635Y-115.68
M15
G01X117.535Y-115.68
M16
G05
G00X118.635Y-124.32
M15
G01X117.535Y-124.32
M16
G05
T0
M30
