G04 #@! TF.GenerationSoftware,KiCad,Pcbnew,(5.1.2)-2*
G04 #@! TF.CreationDate,2020-04-06T14:35:50+08:00*
G04 #@! TF.ProjectId,ffp,6666702e-6b69-4636-9164-5f7063625858,1*
G04 #@! TF.SameCoordinates,Original*
G04 #@! TF.FileFunction,Paste,Top*
G04 #@! TF.FilePolarity,Positive*
%FSLAX46Y46*%
G04 Gerber Fmt 4.6, Leading zero omitted, Abs format (unit mm)*
G04 Created by KiCad (PCBNEW (5.1.2)-2) date 2020-04-06 14:35:50*
%MOMM*%
%LPD*%
G04 APERTURE LIST*
%ADD10R,1.450000X0.600000*%
%ADD11R,1.450000X0.300000*%
%ADD12R,0.950000X1.000000*%
%ADD13R,1.000000X0.950000*%
%ADD14R,1.100000X0.600000*%
%ADD15R,1.000000X0.600000*%
%ADD16R,0.500000X1.200000*%
%ADD17R,1.200000X0.500000*%
G04 APERTURE END LIST*
D10*
X119000000Y-116800000D03*
X119000000Y-117600000D03*
D11*
X119000000Y-118250000D03*
X119000000Y-118750000D03*
X119000000Y-119250000D03*
X119000000Y-119750000D03*
X119000000Y-120250000D03*
X119000000Y-120750000D03*
X119000000Y-121250000D03*
X119000000Y-121750000D03*
D10*
X119000000Y-122400000D03*
X119000000Y-123200000D03*
D12*
X147200000Y-115500000D03*
X148800000Y-115500000D03*
X151200000Y-115500000D03*
X152800000Y-115500000D03*
X147200000Y-124500000D03*
X148800000Y-124500000D03*
D13*
X141000000Y-124300000D03*
X141000000Y-122700000D03*
D14*
X145300000Y-122550000D03*
X145300000Y-124450000D03*
X142700000Y-124450000D03*
X142700000Y-123500000D03*
X142700000Y-122550000D03*
D15*
X122850000Y-116700000D03*
X125150000Y-115750000D03*
X125150000Y-117650000D03*
D16*
X137300000Y-124200000D03*
X136500000Y-124200000D03*
X135700000Y-124200000D03*
X134900000Y-124200000D03*
X134100000Y-124200000D03*
X133300000Y-124200000D03*
X132500000Y-124200000D03*
X131700000Y-124200000D03*
D17*
X130300000Y-122800000D03*
X130300000Y-122000000D03*
X130300000Y-121200000D03*
X130300000Y-120400000D03*
X130300000Y-119600000D03*
X130300000Y-118800000D03*
X130300000Y-118000000D03*
X130300000Y-117200000D03*
D16*
X131700000Y-115800000D03*
X132500000Y-115800000D03*
X133300000Y-115800000D03*
X134100000Y-115800000D03*
X134900000Y-115800000D03*
X135700000Y-115800000D03*
X136500000Y-115800000D03*
X137300000Y-115800000D03*
D17*
X138700000Y-117200000D03*
X138700000Y-118000000D03*
X138700000Y-118800000D03*
X138700000Y-119600000D03*
X138700000Y-120400000D03*
X138700000Y-121200000D03*
X138700000Y-122000000D03*
X138700000Y-122800000D03*
D12*
X152800000Y-124500000D03*
X151200000Y-124500000D03*
D13*
X127000000Y-117800000D03*
X127000000Y-116200000D03*
X121000000Y-116200000D03*
X121000000Y-117800000D03*
X144000000Y-119200000D03*
X144000000Y-120800000D03*
X142500000Y-119200000D03*
X142500000Y-120800000D03*
X141000000Y-119200000D03*
X141000000Y-120800000D03*
X128500000Y-117800000D03*
X128500000Y-116200000D03*
M02*
