G04 #@! TF.GenerationSoftware,KiCad,Pcbnew,(5.1.2)-2*
G04 #@! TF.CreationDate,2020-03-31T19:14:48+08:00*
G04 #@! TF.ProjectId,ffp,6666702e-6b69-4636-9164-5f7063625858,1*
G04 #@! TF.SameCoordinates,Original*
G04 #@! TF.FileFunction,Legend,Bot*
G04 #@! TF.FilePolarity,Positive*
%FSLAX46Y46*%
G04 Gerber Fmt 4.6, Leading zero omitted, Abs format (unit mm)*
G04 Created by KiCad (PCBNEW (5.1.2)-2) date 2020-03-31 19:14:48*
%MOMM*%
%LPD*%
G04 APERTURE LIST*
%ADD10C,0.150000*%
%ADD11O,1.040000X1.040000*%
%ADD12R,1.040000X1.040000*%
%ADD13O,2.140000X1.040000*%
%ADD14O,1.640000X1.040000*%
%ADD15C,0.690000*%
%ADD16C,1.040000*%
G04 APERTURE END LIST*
D10*
X145930215Y-119792757D02*
X146196881Y-119792757D01*
X146196881Y-120211804D02*
X146196881Y-119411804D01*
X145815929Y-119411804D01*
X145244500Y-119792757D02*
X145511167Y-119792757D01*
X145511167Y-120211804D02*
X145511167Y-119411804D01*
X145130215Y-119411804D01*
X144825453Y-120211804D02*
X144825453Y-119411804D01*
X144520691Y-119411804D01*
X144444500Y-119449900D01*
X144406405Y-119487995D01*
X144368310Y-119564185D01*
X144368310Y-119678471D01*
X144406405Y-119754661D01*
X144444500Y-119792757D01*
X144520691Y-119830852D01*
X144825453Y-119830852D01*
X142958786Y-120211804D02*
X143225453Y-119830852D01*
X143415929Y-120211804D02*
X143415929Y-119411804D01*
X143111167Y-119411804D01*
X143034977Y-119449900D01*
X142996881Y-119487995D01*
X142958786Y-119564185D01*
X142958786Y-119678471D01*
X142996881Y-119754661D01*
X143034977Y-119792757D01*
X143111167Y-119830852D01*
X143415929Y-119830852D01*
X142311167Y-120173709D02*
X142387358Y-120211804D01*
X142539739Y-120211804D01*
X142615929Y-120173709D01*
X142654024Y-120097519D01*
X142654024Y-119792757D01*
X142615929Y-119716566D01*
X142539739Y-119678471D01*
X142387358Y-119678471D01*
X142311167Y-119716566D01*
X142273072Y-119792757D01*
X142273072Y-119868947D01*
X142654024Y-119945138D01*
X142006405Y-119678471D02*
X141815929Y-120211804D01*
X141625453Y-119678471D01*
X140292120Y-120211804D02*
X140749262Y-120211804D01*
X140520691Y-120211804D02*
X140520691Y-119411804D01*
X140596881Y-119526090D01*
X140673072Y-119602280D01*
X140749262Y-119640376D01*
X139949262Y-120135614D02*
X139911167Y-120173709D01*
X139949262Y-120211804D01*
X139987358Y-120173709D01*
X139949262Y-120135614D01*
X139949262Y-120211804D01*
X139415929Y-119411804D02*
X139339739Y-119411804D01*
X139263548Y-119449900D01*
X139225453Y-119487995D01*
X139187358Y-119564185D01*
X139149262Y-119716566D01*
X139149262Y-119907042D01*
X139187358Y-120059423D01*
X139225453Y-120135614D01*
X139263548Y-120173709D01*
X139339739Y-120211804D01*
X139415929Y-120211804D01*
X139492120Y-120173709D01*
X139530215Y-120135614D01*
X139568310Y-120059423D01*
X139606405Y-119907042D01*
X139606405Y-119716566D01*
X139568310Y-119564185D01*
X139530215Y-119487995D01*
X139492120Y-119449900D01*
X139415929Y-119411804D01*
%LPC*%
D11*
X149369780Y-117454680D03*
X150639780Y-117454680D03*
X149369780Y-118724680D03*
X150639780Y-118724680D03*
X149369780Y-119994680D03*
X150639780Y-119994680D03*
X149369780Y-121264680D03*
X150639780Y-121264680D03*
X149369780Y-122534680D03*
D12*
X150639780Y-122534680D03*
D13*
X118085000Y-115680000D03*
X118085000Y-124320000D03*
D14*
X113905000Y-115680000D03*
X113905000Y-124320000D03*
D15*
X117555000Y-122890000D03*
X117555000Y-117110000D03*
D16*
X121460000Y-124011000D03*
X121460000Y-121979000D03*
X126540000Y-122995000D03*
M02*
