G04 #@! TF.GenerationSoftware,KiCad,Pcbnew,(5.1.2)-2*
G04 #@! TF.CreationDate,2020-04-06T13:20:56+08:00*
G04 #@! TF.ProjectId,ffp,6666702e-6b69-4636-9164-5f7063625858,1*
G04 #@! TF.SameCoordinates,Original*
G04 #@! TF.FileFunction,Copper,L1,Top*
G04 #@! TF.FilePolarity,Positive*
%FSLAX46Y46*%
G04 Gerber Fmt 4.6, Leading zero omitted, Abs format (unit mm)*
G04 Created by KiCad (PCBNEW (5.1.2)-2) date 2020-04-06 13:20:56*
%MOMM*%
%LPD*%
G04 APERTURE LIST*
%ADD10R,1.000000X1.000000*%
%ADD11O,1.000000X1.000000*%
%ADD12R,1.450000X0.600000*%
%ADD13R,1.450000X0.300000*%
%ADD14O,1.600000X1.000000*%
%ADD15O,2.100000X1.000000*%
%ADD16R,0.950000X1.000000*%
%ADD17R,1.000000X0.950000*%
%ADD18C,0.787000*%
%ADD19R,1.100000X0.600000*%
%ADD20R,1.000000X0.600000*%
%ADD21R,0.500000X1.200000*%
%ADD22R,1.200000X0.500000*%
%ADD23C,0.800000*%
%ADD24C,0.600000*%
%ADD25C,0.600000*%
%ADD26C,0.250000*%
%ADD27C,0.400000*%
%ADD28C,0.500000*%
%ADD29C,0.254000*%
G04 APERTURE END LIST*
D10*
X150639780Y-122534680D03*
D11*
X149369780Y-122534680D03*
X150639780Y-121264680D03*
X149369780Y-121264680D03*
X150639780Y-119994680D03*
X149369780Y-119994680D03*
X150639780Y-118724680D03*
X149369780Y-118724680D03*
X150639780Y-117454680D03*
X149369780Y-117454680D03*
D12*
X119000000Y-116800000D03*
X119000000Y-117600000D03*
D13*
X119000000Y-118250000D03*
X119000000Y-118750000D03*
X119000000Y-119250000D03*
X119000000Y-119750000D03*
X119000000Y-120250000D03*
X119000000Y-120750000D03*
X119000000Y-121250000D03*
X119000000Y-121750000D03*
D12*
X119000000Y-122400000D03*
X119000000Y-123200000D03*
D14*
X113905000Y-124320000D03*
X113905000Y-115680000D03*
D15*
X118085000Y-124320000D03*
X118085000Y-115680000D03*
D16*
X147200000Y-115500000D03*
X148800000Y-115500000D03*
X151200000Y-115500000D03*
X152800000Y-115500000D03*
X147200000Y-124500000D03*
X148800000Y-124500000D03*
D17*
X141000000Y-124300000D03*
X141000000Y-122700000D03*
D18*
X122730000Y-123630000D03*
X122730000Y-122360000D03*
X124000000Y-123630000D03*
X124000000Y-122360000D03*
X125270000Y-123630000D03*
X125270000Y-122360000D03*
D19*
X145300000Y-122550000D03*
X145300000Y-124450000D03*
X142700000Y-124450000D03*
X142700000Y-123500000D03*
X142700000Y-122550000D03*
D20*
X122850000Y-116700000D03*
X125150000Y-115750000D03*
X125150000Y-117650000D03*
D21*
X137300000Y-124200000D03*
X136500000Y-124200000D03*
X135700000Y-124200000D03*
X134900000Y-124200000D03*
X134100000Y-124200000D03*
X133300000Y-124200000D03*
X132500000Y-124200000D03*
X131700000Y-124200000D03*
D22*
X130300000Y-122800000D03*
X130300000Y-122000000D03*
X130300000Y-121200000D03*
X130300000Y-120400000D03*
X130300000Y-119600000D03*
X130300000Y-118800000D03*
X130300000Y-118000000D03*
X130300000Y-117200000D03*
D21*
X131700000Y-115800000D03*
X132500000Y-115800000D03*
X133300000Y-115800000D03*
X134100000Y-115800000D03*
X134900000Y-115800000D03*
X135700000Y-115800000D03*
X136500000Y-115800000D03*
X137300000Y-115800000D03*
D22*
X138700000Y-117200000D03*
X138700000Y-118000000D03*
X138700000Y-118800000D03*
X138700000Y-119600000D03*
X138700000Y-120400000D03*
X138700000Y-121200000D03*
X138700000Y-122000000D03*
X138700000Y-122800000D03*
D16*
X152800000Y-124500000D03*
X151200000Y-124500000D03*
D17*
X127000000Y-117800000D03*
X127000000Y-116200000D03*
X121000000Y-116200000D03*
X121000000Y-117800000D03*
X144000000Y-119200000D03*
X144000000Y-120800000D03*
X142500000Y-119200000D03*
X142500000Y-120800000D03*
X141000000Y-119200000D03*
X141000000Y-120800000D03*
X128500000Y-117800000D03*
X128500000Y-116200000D03*
D23*
X138100000Y-124500000D03*
X141000000Y-118100000D03*
X142500000Y-118100000D03*
X144000000Y-118100000D03*
X152800000Y-123600000D03*
X127000000Y-118800000D03*
X128500000Y-118800000D03*
X130900000Y-115800000D03*
D24*
X144000000Y-122700000D03*
D23*
X122700000Y-121600000D03*
X122000000Y-115700000D03*
X139900000Y-124500000D03*
D24*
X133100000Y-117000000D03*
X136000000Y-118900000D03*
D23*
X125300000Y-121500000D03*
X125300000Y-118700000D03*
D24*
X134900000Y-123100000D03*
X146400000Y-124500000D03*
X145300000Y-115500000D03*
X135400000Y-118000000D03*
X143700000Y-121900000D03*
X137500000Y-121900000D03*
X134800000Y-121300000D03*
X133100000Y-121300000D03*
X135800000Y-123100000D03*
X144000000Y-123600000D03*
X136500000Y-116800000D03*
X138300000Y-115300000D03*
X146300000Y-115500000D03*
X139900000Y-117200000D03*
X130800000Y-124700000D03*
X120300000Y-124600000D03*
X134800000Y-120400000D03*
X132900000Y-120400000D03*
D25*
X127000000Y-117800000D02*
X128500000Y-117800000D01*
D26*
X141800000Y-123500000D02*
X141000000Y-124300000D01*
X142700000Y-123500000D02*
X141800000Y-123500000D01*
D27*
X141000000Y-119200000D02*
X141000000Y-118100000D01*
X142500000Y-119200000D02*
X142500000Y-118100000D01*
X144000000Y-119200000D02*
X144000000Y-118100000D01*
X152800000Y-124500000D02*
X152800000Y-123600000D01*
X127000000Y-117800000D02*
X127000000Y-118800000D01*
X128500000Y-117800000D02*
X128500000Y-118800000D01*
X131700000Y-115800000D02*
X130900000Y-115800000D01*
X126850000Y-117650000D02*
X127000000Y-117800000D01*
X125150000Y-117650000D02*
X126850000Y-117650000D01*
X122730000Y-122360000D02*
X122730000Y-121630000D01*
X122730000Y-121630000D02*
X122700000Y-121600000D01*
D26*
X143200000Y-123500000D02*
X144000000Y-122700000D01*
X142700000Y-123500000D02*
X143200000Y-123500000D01*
D27*
X121000000Y-116200000D02*
X121500000Y-116200000D01*
X121500000Y-116200000D02*
X122000000Y-115700000D01*
X140800000Y-124500000D02*
X141000000Y-124300000D01*
X139900000Y-124500000D02*
X140800000Y-124500000D01*
D26*
X138100000Y-124500000D02*
X137600000Y-124500000D01*
X137300000Y-124200000D02*
X137600000Y-124500000D01*
D27*
X119600000Y-116200000D02*
X119000000Y-116800000D01*
X121000000Y-116200000D02*
X119600000Y-116200000D01*
D28*
X119000000Y-124100000D02*
X119000000Y-123200000D01*
X118780000Y-124320000D02*
X119000000Y-124100000D01*
X118085000Y-124320000D02*
X118780000Y-124320000D01*
D27*
X152800000Y-115500000D02*
X152800000Y-116737180D01*
X152800000Y-116737180D02*
X152079960Y-117457220D01*
X152079960Y-117457220D02*
X150639780Y-117457220D01*
D25*
X127000000Y-116200000D02*
X128500000Y-116200000D01*
D27*
X144000000Y-120800000D02*
X142500000Y-120800000D01*
X142500000Y-120800000D02*
X141000000Y-120800000D01*
X142700000Y-121000000D02*
X142500000Y-120800000D01*
X142700000Y-122550000D02*
X142700000Y-121000000D01*
X130300000Y-117200000D02*
X132900000Y-117200000D01*
X132900000Y-117200000D02*
X133100000Y-117000000D01*
X136700000Y-119600000D02*
X138700000Y-119600000D01*
X136000000Y-118900000D02*
X136700000Y-119600000D01*
X129500000Y-117200000D02*
X128500000Y-116200000D01*
X130300000Y-117200000D02*
X129500000Y-117200000D01*
X125270000Y-121530000D02*
X125300000Y-121500000D01*
X125270000Y-122360000D02*
X125270000Y-121530000D01*
X124250000Y-115750000D02*
X125150000Y-115750000D01*
X124000000Y-116000000D02*
X124250000Y-115750000D01*
X124300000Y-118700000D02*
X124000000Y-118400000D01*
X124000000Y-118400000D02*
X124000000Y-116000000D01*
X125300000Y-118700000D02*
X124300000Y-118700000D01*
X126550000Y-115750000D02*
X127000000Y-116200000D01*
X125150000Y-115750000D02*
X126550000Y-115750000D01*
X140100000Y-120800000D02*
X140000000Y-120700000D01*
X141000000Y-120800000D02*
X140100000Y-120800000D01*
X140000000Y-120700000D02*
X140000000Y-119700000D01*
X139900000Y-119600000D02*
X138700000Y-119600000D01*
X140000000Y-119700000D02*
X139900000Y-119600000D01*
D26*
X140100000Y-120800000D02*
X140100000Y-122100000D01*
X139400000Y-122800000D02*
X138700000Y-122800000D01*
X140100000Y-122100000D02*
X139400000Y-122800000D01*
D27*
X120925000Y-117875000D02*
X121000000Y-117800000D01*
X121000000Y-117800000D02*
X122500000Y-117800000D01*
X122850000Y-117450000D02*
X122850000Y-116700000D01*
X122500000Y-117800000D02*
X122850000Y-117450000D01*
X117863002Y-122125000D02*
X118138002Y-122400000D01*
X119000000Y-117600000D02*
X118138002Y-117600000D01*
X118138002Y-117600000D02*
X117863002Y-117875000D01*
X116925000Y-122125000D02*
X117863002Y-122125000D01*
X117863002Y-117875000D02*
X117025000Y-117875000D01*
X117025000Y-117875000D02*
X116600000Y-118300000D01*
X118138002Y-122400000D02*
X119000000Y-122400000D01*
X116600000Y-118300000D02*
X116600000Y-121800000D01*
X116600000Y-121800000D02*
X116925000Y-122125000D01*
X119945002Y-117600000D02*
X120125001Y-117779999D01*
X119000000Y-117600000D02*
X119945002Y-117600000D01*
X120979999Y-117779999D02*
X121000000Y-117800000D01*
X120125001Y-117779999D02*
X120979999Y-117779999D01*
X148800000Y-123600000D02*
X148800000Y-124500000D01*
X148700000Y-123500000D02*
X148800000Y-123600000D01*
X145550000Y-123500000D02*
X148700000Y-123500000D01*
X145300000Y-123250000D02*
X145550000Y-123500000D01*
X145300000Y-122550000D02*
X145300000Y-123250000D01*
X148800000Y-124500000D02*
X151200000Y-124500000D01*
X151200000Y-123094900D02*
X150639780Y-122534680D01*
X151200000Y-124500000D02*
X151200000Y-123094900D01*
D26*
X140250000Y-122700000D02*
X141000000Y-122700000D01*
X136500000Y-123350000D02*
X136750000Y-123100000D01*
X136500000Y-124200000D02*
X136500000Y-123350000D01*
X136750000Y-123100000D02*
X137635002Y-123100000D01*
X137635002Y-123100000D02*
X137935002Y-123400000D01*
X137935002Y-123400000D02*
X139550000Y-123400000D01*
X139550000Y-123400000D02*
X140250000Y-122700000D01*
X134900000Y-124200000D02*
X134900000Y-123100000D01*
X147200000Y-124500000D02*
X146400000Y-124500000D01*
X134100000Y-124200000D02*
X134100000Y-118100000D01*
X134900000Y-117300000D02*
X134900000Y-115800000D01*
X134100000Y-118100000D02*
X134900000Y-117300000D01*
X134900000Y-117500000D02*
X134900000Y-117300000D01*
X135400000Y-118000000D02*
X134900000Y-117500000D01*
X145300000Y-115800000D02*
X145300000Y-115500000D01*
X149369780Y-117454680D02*
X146954680Y-117454680D01*
X146954680Y-117454680D02*
X145300000Y-115800000D01*
X133300000Y-123350000D02*
X133600000Y-123050000D01*
X133300000Y-124200000D02*
X133300000Y-123350000D01*
X133600000Y-117900000D02*
X134100000Y-117400000D01*
X134100000Y-117015000D02*
X134100000Y-115800000D01*
X134100000Y-117400000D02*
X134100000Y-117015000D01*
X133600000Y-121375736D02*
X133600000Y-121400000D01*
X133600000Y-123050000D02*
X133600000Y-121400000D01*
X133524264Y-121300000D02*
X133600000Y-121375736D01*
X133100000Y-121300000D02*
X133524264Y-121300000D01*
X133600000Y-121400000D02*
X133600000Y-117900000D01*
X136900000Y-121300000D02*
X137500000Y-121900000D01*
X134800000Y-121300000D02*
X136900000Y-121300000D01*
X147259040Y-122534680D02*
X149369780Y-122534680D01*
X146524360Y-121800000D02*
X147259040Y-122534680D01*
X143700000Y-121900000D02*
X143800000Y-121800000D01*
X143800000Y-121800000D02*
X146524360Y-121800000D01*
X129036410Y-122800000D02*
X130300000Y-122800000D01*
X127336410Y-124500000D02*
X129036410Y-122800000D01*
X124313507Y-124500000D02*
X127336410Y-124500000D01*
X124000000Y-123630000D02*
X124000000Y-124186493D01*
X124000000Y-124186493D02*
X124313507Y-124500000D01*
X125663499Y-124023499D02*
X127176501Y-124023499D01*
X125270000Y-123630000D02*
X125663499Y-124023499D01*
X129200000Y-122000000D02*
X130300000Y-122000000D01*
X127176501Y-124023499D02*
X129200000Y-122000000D01*
X120713600Y-120349990D02*
X126649190Y-120349990D01*
X127499200Y-121200000D02*
X130300000Y-121200000D01*
X126649190Y-120349990D02*
X127499200Y-121200000D01*
X120713599Y-120349989D02*
X120713600Y-120349990D01*
X120574989Y-120349989D02*
X120713599Y-120349989D01*
X119975000Y-119750000D02*
X120574989Y-120349989D01*
X119000000Y-119750000D02*
X119975000Y-119750000D01*
X120174978Y-120750000D02*
X120574989Y-120349989D01*
X119000000Y-120750000D02*
X120174978Y-120750000D01*
X120111410Y-119250000D02*
X120761390Y-119899980D01*
X119000000Y-119250000D02*
X120111410Y-119250000D01*
X129450000Y-120400000D02*
X130300000Y-120400000D01*
X127410400Y-120400000D02*
X129450000Y-120400000D01*
X126910380Y-119899980D02*
X127410400Y-120400000D01*
X120761390Y-119899980D02*
X126910380Y-119899980D01*
X118025000Y-120250000D02*
X119000000Y-120250000D01*
X117848380Y-120073380D02*
X118025000Y-120250000D01*
X117848380Y-119426620D02*
X117848380Y-120073380D01*
X119000000Y-119250000D02*
X118025000Y-119250000D01*
X118025000Y-119250000D02*
X117848380Y-119426620D01*
X135700000Y-124200000D02*
X135700000Y-123200000D01*
X135700000Y-123200000D02*
X135800000Y-123100000D01*
X144000000Y-123600000D02*
X144000000Y-124100000D01*
X143650000Y-124450000D02*
X142700000Y-124450000D01*
X144000000Y-124100000D02*
X143650000Y-124450000D01*
X135700000Y-117200000D02*
X135700000Y-115800000D01*
X136964998Y-117500000D02*
X136000000Y-117500000D01*
X145100000Y-117700000D02*
X143900000Y-116500000D01*
X143900000Y-116500000D02*
X137964998Y-116500000D01*
X136000000Y-117500000D02*
X135700000Y-117200000D01*
X137964998Y-116500000D02*
X136964998Y-117500000D01*
X145100000Y-117700000D02*
X145100000Y-120200000D01*
X146164680Y-121264680D02*
X145100000Y-120200000D01*
X149369780Y-121264680D02*
X146164680Y-121264680D01*
X136500000Y-115800000D02*
X136500000Y-116800000D01*
X146100000Y-118510000D02*
X146100000Y-117300000D01*
X146100000Y-117300000D02*
X144300000Y-115500000D01*
X144300000Y-115500000D02*
X138500000Y-115500000D01*
X138500000Y-115500000D02*
X138300000Y-115300000D01*
X146314680Y-118724680D02*
X146100000Y-118510000D01*
X149369780Y-118724680D02*
X146314680Y-118724680D01*
X145600000Y-119280000D02*
X145600000Y-117500000D01*
X145600000Y-117500000D02*
X144100000Y-116000000D01*
X144100000Y-116000000D02*
X137600000Y-116000000D01*
X137400000Y-115800000D02*
X137600000Y-116000000D01*
X137300000Y-115800000D02*
X137400000Y-115800000D01*
X146314680Y-119994680D02*
X145600000Y-119280000D01*
X149369780Y-119994680D02*
X146314680Y-119994680D01*
X147200000Y-115500000D02*
X146300000Y-115500000D01*
X138700000Y-117200000D02*
X139900000Y-117200000D01*
X138700000Y-120400000D02*
X135400000Y-120400000D01*
X120300000Y-121400000D02*
X120300000Y-124600000D01*
X123300000Y-120800000D02*
X120900000Y-120800000D01*
X124000000Y-122360000D02*
X124000000Y-121500000D01*
X130800000Y-124700000D02*
X130800000Y-123735002D01*
X120900000Y-120800000D02*
X120300000Y-121400000D01*
X124000000Y-121500000D02*
X123300000Y-120800000D01*
X135400000Y-120400000D02*
X134800000Y-120400000D01*
X131435002Y-123100000D02*
X130800000Y-123735002D01*
X131435002Y-121864998D02*
X131435002Y-123100000D01*
X132900000Y-120400000D02*
X131435002Y-121864998D01*
X151200000Y-115500000D02*
X148800000Y-115500000D01*
D29*
G36*
X140262337Y-123500000D02*
G01*
X140214368Y-123539368D01*
X140164132Y-123600580D01*
X140126803Y-123670417D01*
X140103817Y-123746194D01*
X140096055Y-123825000D01*
X140098000Y-124126500D01*
X140198500Y-124227000D01*
X140927000Y-124227000D01*
X140927000Y-124207000D01*
X141073000Y-124207000D01*
X141073000Y-124227000D01*
X141093000Y-124227000D01*
X141093000Y-124373000D01*
X141073000Y-124373000D01*
X141073000Y-124393000D01*
X140927000Y-124393000D01*
X140927000Y-124373000D01*
X140198500Y-124373000D01*
X140098000Y-124473500D01*
X140096055Y-124775000D01*
X140103817Y-124853806D01*
X140122962Y-124916920D01*
X137934622Y-124916920D01*
X137946183Y-124878806D01*
X137953945Y-124800000D01*
X137952000Y-124373500D01*
X137851500Y-124273000D01*
X137373000Y-124273000D01*
X137373000Y-124293000D01*
X137227000Y-124293000D01*
X137227000Y-124273000D01*
X137207000Y-124273000D01*
X137207000Y-124127000D01*
X137227000Y-124127000D01*
X137227000Y-124107000D01*
X137373000Y-124107000D01*
X137373000Y-124127000D01*
X137851500Y-124127000D01*
X137952000Y-124026500D01*
X137952450Y-123927830D01*
X137960882Y-123927000D01*
X139524119Y-123927000D01*
X139550000Y-123929549D01*
X139575881Y-123927000D01*
X139653310Y-123919374D01*
X139752650Y-123889239D01*
X139844202Y-123840304D01*
X139924448Y-123774448D01*
X139940955Y-123754334D01*
X140225512Y-123469778D01*
X140262337Y-123500000D01*
X140262337Y-123500000D01*
G37*
X140262337Y-123500000D02*
X140214368Y-123539368D01*
X140164132Y-123600580D01*
X140126803Y-123670417D01*
X140103817Y-123746194D01*
X140096055Y-123825000D01*
X140098000Y-124126500D01*
X140198500Y-124227000D01*
X140927000Y-124227000D01*
X140927000Y-124207000D01*
X141073000Y-124207000D01*
X141073000Y-124227000D01*
X141093000Y-124227000D01*
X141093000Y-124373000D01*
X141073000Y-124373000D01*
X141073000Y-124393000D01*
X140927000Y-124393000D01*
X140927000Y-124373000D01*
X140198500Y-124373000D01*
X140098000Y-124473500D01*
X140096055Y-124775000D01*
X140103817Y-124853806D01*
X140122962Y-124916920D01*
X137934622Y-124916920D01*
X137946183Y-124878806D01*
X137953945Y-124800000D01*
X137952000Y-124373500D01*
X137851500Y-124273000D01*
X137373000Y-124273000D01*
X137373000Y-124293000D01*
X137227000Y-124293000D01*
X137227000Y-124273000D01*
X137207000Y-124273000D01*
X137207000Y-124127000D01*
X137227000Y-124127000D01*
X137227000Y-124107000D01*
X137373000Y-124107000D01*
X137373000Y-124127000D01*
X137851500Y-124127000D01*
X137952000Y-124026500D01*
X137952450Y-123927830D01*
X137960882Y-123927000D01*
X139524119Y-123927000D01*
X139550000Y-123929549D01*
X139575881Y-123927000D01*
X139653310Y-123919374D01*
X139752650Y-123889239D01*
X139844202Y-123840304D01*
X139924448Y-123774448D01*
X139940955Y-123754334D01*
X140225512Y-123469778D01*
X140262337Y-123500000D01*
G36*
X116845571Y-115093809D02*
G01*
X116744458Y-115239573D01*
X116673725Y-115402263D01*
X116658447Y-115467258D01*
X116736831Y-115607000D01*
X118012000Y-115607000D01*
X118012000Y-115587000D01*
X118158000Y-115587000D01*
X118158000Y-115607000D01*
X119433169Y-115607000D01*
X119511553Y-115467258D01*
X119496275Y-115402263D01*
X119425542Y-115239573D01*
X119324429Y-115093809D01*
X119315453Y-115085140D01*
X124479820Y-115085140D01*
X124425580Y-115114132D01*
X124384312Y-115148000D01*
X124279556Y-115148000D01*
X124249999Y-115145089D01*
X124220443Y-115148000D01*
X124220434Y-115148000D01*
X124131988Y-115156711D01*
X124018510Y-115191134D01*
X123913929Y-115247034D01*
X123822263Y-115322263D01*
X123803415Y-115345229D01*
X123595228Y-115553416D01*
X123572264Y-115572263D01*
X123553417Y-115595228D01*
X123553416Y-115595229D01*
X123497035Y-115663929D01*
X123441134Y-115768511D01*
X123406712Y-115881988D01*
X123395089Y-116000000D01*
X123395138Y-116000501D01*
X123350000Y-115996055D01*
X122350000Y-115996055D01*
X122271194Y-116003817D01*
X122195417Y-116026803D01*
X122125580Y-116064132D01*
X122064368Y-116114368D01*
X122014132Y-116175580D01*
X121976803Y-116245417D01*
X121953817Y-116321194D01*
X121946055Y-116400000D01*
X121946055Y-117000000D01*
X121953817Y-117078806D01*
X121976803Y-117154583D01*
X122000010Y-117198000D01*
X121881564Y-117198000D01*
X121873197Y-117170417D01*
X121835868Y-117100580D01*
X121785632Y-117039368D01*
X121737663Y-117000000D01*
X121785632Y-116960632D01*
X121835868Y-116899420D01*
X121873197Y-116829583D01*
X121896183Y-116753806D01*
X121903945Y-116675000D01*
X121902000Y-116373500D01*
X121801500Y-116273000D01*
X121073000Y-116273000D01*
X121073000Y-116293000D01*
X120927000Y-116293000D01*
X120927000Y-116273000D01*
X120198500Y-116273000D01*
X120104687Y-116366813D01*
X120098197Y-116345417D01*
X120060868Y-116275580D01*
X120010632Y-116214368D01*
X119949420Y-116164132D01*
X119879583Y-116126803D01*
X119803806Y-116103817D01*
X119725000Y-116096055D01*
X119435695Y-116097075D01*
X119496275Y-115957737D01*
X119511553Y-115892742D01*
X119433169Y-115753000D01*
X118158000Y-115753000D01*
X118158000Y-115773000D01*
X118012000Y-115773000D01*
X118012000Y-115753000D01*
X116736831Y-115753000D01*
X116658447Y-115892742D01*
X116673725Y-115957737D01*
X116744458Y-116120427D01*
X116845571Y-116266191D01*
X116973178Y-116389429D01*
X117122376Y-116485404D01*
X117159387Y-116499984D01*
X117091564Y-116545302D01*
X116990302Y-116646564D01*
X116910741Y-116765636D01*
X116855938Y-116897942D01*
X116828000Y-117038397D01*
X116828000Y-117181603D01*
X116851274Y-117298611D01*
X116793510Y-117316134D01*
X116688929Y-117372034D01*
X116597263Y-117447263D01*
X116578415Y-117470229D01*
X116195233Y-117853412D01*
X116172263Y-117872263D01*
X116097034Y-117963930D01*
X116041134Y-118068511D01*
X116006711Y-118181989D01*
X115998000Y-118270435D01*
X115998000Y-118270444D01*
X115995089Y-118300000D01*
X115998000Y-118329556D01*
X115998001Y-121770434D01*
X115995089Y-121800000D01*
X116006712Y-121918012D01*
X116041134Y-122031489D01*
X116097035Y-122136071D01*
X116142064Y-122190938D01*
X116172264Y-122227737D01*
X116195229Y-122246584D01*
X116478415Y-122529771D01*
X116497263Y-122552737D01*
X116588929Y-122627966D01*
X116693510Y-122683866D01*
X116806988Y-122718289D01*
X116847126Y-122722242D01*
X116828000Y-122818397D01*
X116828000Y-122961603D01*
X116855938Y-123102058D01*
X116910741Y-123234364D01*
X116990302Y-123353436D01*
X117091564Y-123454698D01*
X117159387Y-123500016D01*
X117122376Y-123514596D01*
X116973178Y-123610571D01*
X116845571Y-123733809D01*
X116744458Y-123879573D01*
X116673725Y-124042263D01*
X116658447Y-124107258D01*
X116736831Y-124247000D01*
X118012000Y-124247000D01*
X118012000Y-124227000D01*
X118158000Y-124227000D01*
X118158000Y-124247000D01*
X119433169Y-124247000D01*
X119511553Y-124107258D01*
X119496275Y-124042263D01*
X119435695Y-123902925D01*
X119725000Y-123903945D01*
X119773001Y-123899217D01*
X119773001Y-124134221D01*
X119754721Y-124152501D01*
X119677895Y-124267478D01*
X119624977Y-124395234D01*
X119598000Y-124530859D01*
X119598000Y-124669141D01*
X119624977Y-124804766D01*
X119671432Y-124916920D01*
X119313320Y-124916920D01*
X119324429Y-124906191D01*
X119425542Y-124760427D01*
X119496275Y-124597737D01*
X119511553Y-124532742D01*
X119433169Y-124393000D01*
X118158000Y-124393000D01*
X118158000Y-124413000D01*
X118012000Y-124413000D01*
X118012000Y-124393000D01*
X116736831Y-124393000D01*
X116658447Y-124532742D01*
X116673725Y-124597737D01*
X116744458Y-124760427D01*
X116845571Y-124906191D01*
X116856680Y-124916920D01*
X114883320Y-124916920D01*
X114894429Y-124906191D01*
X114995542Y-124760427D01*
X115066275Y-124597737D01*
X115081553Y-124532742D01*
X115003169Y-124393000D01*
X113978000Y-124393000D01*
X113978000Y-124413000D01*
X113832000Y-124413000D01*
X113832000Y-124393000D01*
X113812000Y-124393000D01*
X113812000Y-124247000D01*
X113832000Y-124247000D01*
X113832000Y-123418000D01*
X113978000Y-123418000D01*
X113978000Y-124247000D01*
X115003169Y-124247000D01*
X115081553Y-124107258D01*
X115066275Y-124042263D01*
X114995542Y-123879573D01*
X114894429Y-123733809D01*
X114766822Y-123610571D01*
X114617624Y-123514596D01*
X114452569Y-123449573D01*
X114278000Y-123418000D01*
X113978000Y-123418000D01*
X113832000Y-123418000D01*
X113532000Y-123418000D01*
X113357431Y-123449573D01*
X113192376Y-123514596D01*
X113043178Y-123610571D01*
X112915571Y-123733809D01*
X112872800Y-123795467D01*
X112872800Y-116204533D01*
X112915571Y-116266191D01*
X113043178Y-116389429D01*
X113192376Y-116485404D01*
X113357431Y-116550427D01*
X113532000Y-116582000D01*
X113832000Y-116582000D01*
X113832000Y-115753000D01*
X113978000Y-115753000D01*
X113978000Y-116582000D01*
X114278000Y-116582000D01*
X114452569Y-116550427D01*
X114617624Y-116485404D01*
X114766822Y-116389429D01*
X114894429Y-116266191D01*
X114995542Y-116120427D01*
X115066275Y-115957737D01*
X115081553Y-115892742D01*
X115003169Y-115753000D01*
X113978000Y-115753000D01*
X113832000Y-115753000D01*
X113812000Y-115753000D01*
X113812000Y-115725000D01*
X120096055Y-115725000D01*
X120098000Y-116026500D01*
X120198500Y-116127000D01*
X120927000Y-116127000D01*
X120927000Y-115423500D01*
X121073000Y-115423500D01*
X121073000Y-116127000D01*
X121801500Y-116127000D01*
X121902000Y-116026500D01*
X121903945Y-115725000D01*
X121896183Y-115646194D01*
X121873197Y-115570417D01*
X121835868Y-115500580D01*
X121785632Y-115439368D01*
X121724420Y-115389132D01*
X121654583Y-115351803D01*
X121578806Y-115328817D01*
X121500000Y-115321055D01*
X121173500Y-115323000D01*
X121073000Y-115423500D01*
X120927000Y-115423500D01*
X120826500Y-115323000D01*
X120500000Y-115321055D01*
X120421194Y-115328817D01*
X120345417Y-115351803D01*
X120275580Y-115389132D01*
X120214368Y-115439368D01*
X120164132Y-115500580D01*
X120126803Y-115570417D01*
X120103817Y-115646194D01*
X120096055Y-115725000D01*
X113812000Y-115725000D01*
X113812000Y-115607000D01*
X113832000Y-115607000D01*
X113832000Y-115587000D01*
X113978000Y-115587000D01*
X113978000Y-115607000D01*
X115003169Y-115607000D01*
X115081553Y-115467258D01*
X115066275Y-115402263D01*
X114995542Y-115239573D01*
X114894429Y-115093809D01*
X114885453Y-115085140D01*
X116854547Y-115085140D01*
X116845571Y-115093809D01*
X116845571Y-115093809D01*
G37*
X116845571Y-115093809D02*
X116744458Y-115239573D01*
X116673725Y-115402263D01*
X116658447Y-115467258D01*
X116736831Y-115607000D01*
X118012000Y-115607000D01*
X118012000Y-115587000D01*
X118158000Y-115587000D01*
X118158000Y-115607000D01*
X119433169Y-115607000D01*
X119511553Y-115467258D01*
X119496275Y-115402263D01*
X119425542Y-115239573D01*
X119324429Y-115093809D01*
X119315453Y-115085140D01*
X124479820Y-115085140D01*
X124425580Y-115114132D01*
X124384312Y-115148000D01*
X124279556Y-115148000D01*
X124249999Y-115145089D01*
X124220443Y-115148000D01*
X124220434Y-115148000D01*
X124131988Y-115156711D01*
X124018510Y-115191134D01*
X123913929Y-115247034D01*
X123822263Y-115322263D01*
X123803415Y-115345229D01*
X123595228Y-115553416D01*
X123572264Y-115572263D01*
X123553417Y-115595228D01*
X123553416Y-115595229D01*
X123497035Y-115663929D01*
X123441134Y-115768511D01*
X123406712Y-115881988D01*
X123395089Y-116000000D01*
X123395138Y-116000501D01*
X123350000Y-115996055D01*
X122350000Y-115996055D01*
X122271194Y-116003817D01*
X122195417Y-116026803D01*
X122125580Y-116064132D01*
X122064368Y-116114368D01*
X122014132Y-116175580D01*
X121976803Y-116245417D01*
X121953817Y-116321194D01*
X121946055Y-116400000D01*
X121946055Y-117000000D01*
X121953817Y-117078806D01*
X121976803Y-117154583D01*
X122000010Y-117198000D01*
X121881564Y-117198000D01*
X121873197Y-117170417D01*
X121835868Y-117100580D01*
X121785632Y-117039368D01*
X121737663Y-117000000D01*
X121785632Y-116960632D01*
X121835868Y-116899420D01*
X121873197Y-116829583D01*
X121896183Y-116753806D01*
X121903945Y-116675000D01*
X121902000Y-116373500D01*
X121801500Y-116273000D01*
X121073000Y-116273000D01*
X121073000Y-116293000D01*
X120927000Y-116293000D01*
X120927000Y-116273000D01*
X120198500Y-116273000D01*
X120104687Y-116366813D01*
X120098197Y-116345417D01*
X120060868Y-116275580D01*
X120010632Y-116214368D01*
X119949420Y-116164132D01*
X119879583Y-116126803D01*
X119803806Y-116103817D01*
X119725000Y-116096055D01*
X119435695Y-116097075D01*
X119496275Y-115957737D01*
X119511553Y-115892742D01*
X119433169Y-115753000D01*
X118158000Y-115753000D01*
X118158000Y-115773000D01*
X118012000Y-115773000D01*
X118012000Y-115753000D01*
X116736831Y-115753000D01*
X116658447Y-115892742D01*
X116673725Y-115957737D01*
X116744458Y-116120427D01*
X116845571Y-116266191D01*
X116973178Y-116389429D01*
X117122376Y-116485404D01*
X117159387Y-116499984D01*
X117091564Y-116545302D01*
X116990302Y-116646564D01*
X116910741Y-116765636D01*
X116855938Y-116897942D01*
X116828000Y-117038397D01*
X116828000Y-117181603D01*
X116851274Y-117298611D01*
X116793510Y-117316134D01*
X116688929Y-117372034D01*
X116597263Y-117447263D01*
X116578415Y-117470229D01*
X116195233Y-117853412D01*
X116172263Y-117872263D01*
X116097034Y-117963930D01*
X116041134Y-118068511D01*
X116006711Y-118181989D01*
X115998000Y-118270435D01*
X115998000Y-118270444D01*
X115995089Y-118300000D01*
X115998000Y-118329556D01*
X115998001Y-121770434D01*
X115995089Y-121800000D01*
X116006712Y-121918012D01*
X116041134Y-122031489D01*
X116097035Y-122136071D01*
X116142064Y-122190938D01*
X116172264Y-122227737D01*
X116195229Y-122246584D01*
X116478415Y-122529771D01*
X116497263Y-122552737D01*
X116588929Y-122627966D01*
X116693510Y-122683866D01*
X116806988Y-122718289D01*
X116847126Y-122722242D01*
X116828000Y-122818397D01*
X116828000Y-122961603D01*
X116855938Y-123102058D01*
X116910741Y-123234364D01*
X116990302Y-123353436D01*
X117091564Y-123454698D01*
X117159387Y-123500016D01*
X117122376Y-123514596D01*
X116973178Y-123610571D01*
X116845571Y-123733809D01*
X116744458Y-123879573D01*
X116673725Y-124042263D01*
X116658447Y-124107258D01*
X116736831Y-124247000D01*
X118012000Y-124247000D01*
X118012000Y-124227000D01*
X118158000Y-124227000D01*
X118158000Y-124247000D01*
X119433169Y-124247000D01*
X119511553Y-124107258D01*
X119496275Y-124042263D01*
X119435695Y-123902925D01*
X119725000Y-123903945D01*
X119773001Y-123899217D01*
X119773001Y-124134221D01*
X119754721Y-124152501D01*
X119677895Y-124267478D01*
X119624977Y-124395234D01*
X119598000Y-124530859D01*
X119598000Y-124669141D01*
X119624977Y-124804766D01*
X119671432Y-124916920D01*
X119313320Y-124916920D01*
X119324429Y-124906191D01*
X119425542Y-124760427D01*
X119496275Y-124597737D01*
X119511553Y-124532742D01*
X119433169Y-124393000D01*
X118158000Y-124393000D01*
X118158000Y-124413000D01*
X118012000Y-124413000D01*
X118012000Y-124393000D01*
X116736831Y-124393000D01*
X116658447Y-124532742D01*
X116673725Y-124597737D01*
X116744458Y-124760427D01*
X116845571Y-124906191D01*
X116856680Y-124916920D01*
X114883320Y-124916920D01*
X114894429Y-124906191D01*
X114995542Y-124760427D01*
X115066275Y-124597737D01*
X115081553Y-124532742D01*
X115003169Y-124393000D01*
X113978000Y-124393000D01*
X113978000Y-124413000D01*
X113832000Y-124413000D01*
X113832000Y-124393000D01*
X113812000Y-124393000D01*
X113812000Y-124247000D01*
X113832000Y-124247000D01*
X113832000Y-123418000D01*
X113978000Y-123418000D01*
X113978000Y-124247000D01*
X115003169Y-124247000D01*
X115081553Y-124107258D01*
X115066275Y-124042263D01*
X114995542Y-123879573D01*
X114894429Y-123733809D01*
X114766822Y-123610571D01*
X114617624Y-123514596D01*
X114452569Y-123449573D01*
X114278000Y-123418000D01*
X113978000Y-123418000D01*
X113832000Y-123418000D01*
X113532000Y-123418000D01*
X113357431Y-123449573D01*
X113192376Y-123514596D01*
X113043178Y-123610571D01*
X112915571Y-123733809D01*
X112872800Y-123795467D01*
X112872800Y-116204533D01*
X112915571Y-116266191D01*
X113043178Y-116389429D01*
X113192376Y-116485404D01*
X113357431Y-116550427D01*
X113532000Y-116582000D01*
X113832000Y-116582000D01*
X113832000Y-115753000D01*
X113978000Y-115753000D01*
X113978000Y-116582000D01*
X114278000Y-116582000D01*
X114452569Y-116550427D01*
X114617624Y-116485404D01*
X114766822Y-116389429D01*
X114894429Y-116266191D01*
X114995542Y-116120427D01*
X115066275Y-115957737D01*
X115081553Y-115892742D01*
X115003169Y-115753000D01*
X113978000Y-115753000D01*
X113832000Y-115753000D01*
X113812000Y-115753000D01*
X113812000Y-115725000D01*
X120096055Y-115725000D01*
X120098000Y-116026500D01*
X120198500Y-116127000D01*
X120927000Y-116127000D01*
X120927000Y-115423500D01*
X121073000Y-115423500D01*
X121073000Y-116127000D01*
X121801500Y-116127000D01*
X121902000Y-116026500D01*
X121903945Y-115725000D01*
X121896183Y-115646194D01*
X121873197Y-115570417D01*
X121835868Y-115500580D01*
X121785632Y-115439368D01*
X121724420Y-115389132D01*
X121654583Y-115351803D01*
X121578806Y-115328817D01*
X121500000Y-115321055D01*
X121173500Y-115323000D01*
X121073000Y-115423500D01*
X120927000Y-115423500D01*
X120826500Y-115323000D01*
X120500000Y-115321055D01*
X120421194Y-115328817D01*
X120345417Y-115351803D01*
X120275580Y-115389132D01*
X120214368Y-115439368D01*
X120164132Y-115500580D01*
X120126803Y-115570417D01*
X120103817Y-115646194D01*
X120096055Y-115725000D01*
X113812000Y-115725000D01*
X113812000Y-115607000D01*
X113832000Y-115607000D01*
X113832000Y-115587000D01*
X113978000Y-115587000D01*
X113978000Y-115607000D01*
X115003169Y-115607000D01*
X115081553Y-115467258D01*
X115066275Y-115402263D01*
X114995542Y-115239573D01*
X114894429Y-115093809D01*
X114885453Y-115085140D01*
X116854547Y-115085140D01*
X116845571Y-115093809D01*
G36*
X152873000Y-115427000D02*
G01*
X152893000Y-115427000D01*
X152893000Y-115573000D01*
X152873000Y-115573000D01*
X152873000Y-116301500D01*
X152973500Y-116402000D01*
X153275000Y-116403945D01*
X153319200Y-116399592D01*
X153319201Y-123600409D01*
X153275000Y-123596055D01*
X152973500Y-123598000D01*
X152873000Y-123698500D01*
X152873000Y-124427000D01*
X152893000Y-124427000D01*
X152893000Y-124573000D01*
X152873000Y-124573000D01*
X152873000Y-124593000D01*
X152727000Y-124593000D01*
X152727000Y-124573000D01*
X152707000Y-124573000D01*
X152707000Y-124427000D01*
X152727000Y-124427000D01*
X152727000Y-123698500D01*
X152626500Y-123598000D01*
X152325000Y-123596055D01*
X152246194Y-123603817D01*
X152170417Y-123626803D01*
X152100580Y-123664132D01*
X152039368Y-123714368D01*
X152000000Y-123762337D01*
X151960632Y-123714368D01*
X151899420Y-123664132D01*
X151829583Y-123626803D01*
X151802000Y-123618436D01*
X151802000Y-123124456D01*
X151804911Y-123094900D01*
X151802000Y-123065343D01*
X151802000Y-123065334D01*
X151793289Y-122976888D01*
X151758866Y-122863410D01*
X151702966Y-122758829D01*
X151627737Y-122667163D01*
X151604771Y-122648315D01*
X151543725Y-122587269D01*
X151543725Y-122034680D01*
X151535963Y-121955874D01*
X151512977Y-121880097D01*
X151475648Y-121810260D01*
X151425412Y-121749048D01*
X151408935Y-121735525D01*
X151410032Y-121734068D01*
X151486805Y-121574780D01*
X151516333Y-121477422D01*
X151437949Y-121337680D01*
X150712780Y-121337680D01*
X150712780Y-121357680D01*
X150566780Y-121357680D01*
X150566780Y-121337680D01*
X150546780Y-121337680D01*
X150546780Y-121191680D01*
X150566780Y-121191680D01*
X150566780Y-120067680D01*
X150712780Y-120067680D01*
X150712780Y-121191680D01*
X151437949Y-121191680D01*
X151516333Y-121051938D01*
X151486805Y-120954580D01*
X151410032Y-120795292D01*
X151303659Y-120654042D01*
X151276380Y-120629680D01*
X151303659Y-120605318D01*
X151410032Y-120464068D01*
X151486805Y-120304780D01*
X151516333Y-120207422D01*
X151437949Y-120067680D01*
X150712780Y-120067680D01*
X150566780Y-120067680D01*
X150546780Y-120067680D01*
X150546780Y-119921680D01*
X150566780Y-119921680D01*
X150566780Y-119901680D01*
X150712780Y-119901680D01*
X150712780Y-119921680D01*
X151437949Y-119921680D01*
X151516333Y-119781938D01*
X151486805Y-119684580D01*
X151410032Y-119525292D01*
X151303659Y-119384042D01*
X151281651Y-119364388D01*
X151393394Y-119228229D01*
X151477151Y-119071530D01*
X151528728Y-118901503D01*
X151546144Y-118724680D01*
X151528728Y-118547857D01*
X151477151Y-118377830D01*
X151393394Y-118221131D01*
X151281651Y-118084972D01*
X151303659Y-118065318D01*
X151410032Y-117924068D01*
X151486805Y-117764780D01*
X151516333Y-117667422D01*
X151437949Y-117527680D01*
X150712780Y-117527680D01*
X150712780Y-117547680D01*
X150566780Y-117547680D01*
X150566780Y-117527680D01*
X150546780Y-117527680D01*
X150546780Y-117381680D01*
X150566780Y-117381680D01*
X150566780Y-116656134D01*
X150712780Y-116656134D01*
X150712780Y-117381680D01*
X151437949Y-117381680D01*
X151516333Y-117241938D01*
X151486805Y-117144580D01*
X151410032Y-116985292D01*
X151303659Y-116844042D01*
X151171773Y-116726259D01*
X151019443Y-116636469D01*
X150852523Y-116578122D01*
X150712780Y-116656134D01*
X150566780Y-116656134D01*
X150427037Y-116578122D01*
X150260117Y-116636469D01*
X150107787Y-116726259D01*
X150010210Y-116813402D01*
X149873329Y-116701066D01*
X149716630Y-116617309D01*
X149546603Y-116565732D01*
X149414087Y-116552680D01*
X149325473Y-116552680D01*
X149192957Y-116565732D01*
X149022930Y-116617309D01*
X148866231Y-116701066D01*
X148728884Y-116813784D01*
X148635412Y-116927680D01*
X147172970Y-116927680D01*
X146639417Y-116394127D01*
X146646194Y-116396183D01*
X146725000Y-116403945D01*
X147675000Y-116403945D01*
X147753806Y-116396183D01*
X147829583Y-116373197D01*
X147899420Y-116335868D01*
X147960632Y-116285632D01*
X148000000Y-116237663D01*
X148039368Y-116285632D01*
X148100580Y-116335868D01*
X148170417Y-116373197D01*
X148246194Y-116396183D01*
X148325000Y-116403945D01*
X149275000Y-116403945D01*
X149353806Y-116396183D01*
X149429583Y-116373197D01*
X149499420Y-116335868D01*
X149560632Y-116285632D01*
X149610868Y-116224420D01*
X149648197Y-116154583D01*
X149671183Y-116078806D01*
X149676286Y-116027000D01*
X150323714Y-116027000D01*
X150328817Y-116078806D01*
X150351803Y-116154583D01*
X150389132Y-116224420D01*
X150439368Y-116285632D01*
X150500580Y-116335868D01*
X150570417Y-116373197D01*
X150646194Y-116396183D01*
X150725000Y-116403945D01*
X151675000Y-116403945D01*
X151753806Y-116396183D01*
X151829583Y-116373197D01*
X151899420Y-116335868D01*
X151960632Y-116285632D01*
X152000000Y-116237663D01*
X152039368Y-116285632D01*
X152100580Y-116335868D01*
X152170417Y-116373197D01*
X152246194Y-116396183D01*
X152325000Y-116403945D01*
X152626500Y-116402000D01*
X152727000Y-116301500D01*
X152727000Y-115573000D01*
X152707000Y-115573000D01*
X152707000Y-115427000D01*
X152727000Y-115427000D01*
X152727000Y-115407000D01*
X152873000Y-115407000D01*
X152873000Y-115427000D01*
X152873000Y-115427000D01*
G37*
X152873000Y-115427000D02*
X152893000Y-115427000D01*
X152893000Y-115573000D01*
X152873000Y-115573000D01*
X152873000Y-116301500D01*
X152973500Y-116402000D01*
X153275000Y-116403945D01*
X153319200Y-116399592D01*
X153319201Y-123600409D01*
X153275000Y-123596055D01*
X152973500Y-123598000D01*
X152873000Y-123698500D01*
X152873000Y-124427000D01*
X152893000Y-124427000D01*
X152893000Y-124573000D01*
X152873000Y-124573000D01*
X152873000Y-124593000D01*
X152727000Y-124593000D01*
X152727000Y-124573000D01*
X152707000Y-124573000D01*
X152707000Y-124427000D01*
X152727000Y-124427000D01*
X152727000Y-123698500D01*
X152626500Y-123598000D01*
X152325000Y-123596055D01*
X152246194Y-123603817D01*
X152170417Y-123626803D01*
X152100580Y-123664132D01*
X152039368Y-123714368D01*
X152000000Y-123762337D01*
X151960632Y-123714368D01*
X151899420Y-123664132D01*
X151829583Y-123626803D01*
X151802000Y-123618436D01*
X151802000Y-123124456D01*
X151804911Y-123094900D01*
X151802000Y-123065343D01*
X151802000Y-123065334D01*
X151793289Y-122976888D01*
X151758866Y-122863410D01*
X151702966Y-122758829D01*
X151627737Y-122667163D01*
X151604771Y-122648315D01*
X151543725Y-122587269D01*
X151543725Y-122034680D01*
X151535963Y-121955874D01*
X151512977Y-121880097D01*
X151475648Y-121810260D01*
X151425412Y-121749048D01*
X151408935Y-121735525D01*
X151410032Y-121734068D01*
X151486805Y-121574780D01*
X151516333Y-121477422D01*
X151437949Y-121337680D01*
X150712780Y-121337680D01*
X150712780Y-121357680D01*
X150566780Y-121357680D01*
X150566780Y-121337680D01*
X150546780Y-121337680D01*
X150546780Y-121191680D01*
X150566780Y-121191680D01*
X150566780Y-120067680D01*
X150712780Y-120067680D01*
X150712780Y-121191680D01*
X151437949Y-121191680D01*
X151516333Y-121051938D01*
X151486805Y-120954580D01*
X151410032Y-120795292D01*
X151303659Y-120654042D01*
X151276380Y-120629680D01*
X151303659Y-120605318D01*
X151410032Y-120464068D01*
X151486805Y-120304780D01*
X151516333Y-120207422D01*
X151437949Y-120067680D01*
X150712780Y-120067680D01*
X150566780Y-120067680D01*
X150546780Y-120067680D01*
X150546780Y-119921680D01*
X150566780Y-119921680D01*
X150566780Y-119901680D01*
X150712780Y-119901680D01*
X150712780Y-119921680D01*
X151437949Y-119921680D01*
X151516333Y-119781938D01*
X151486805Y-119684580D01*
X151410032Y-119525292D01*
X151303659Y-119384042D01*
X151281651Y-119364388D01*
X151393394Y-119228229D01*
X151477151Y-119071530D01*
X151528728Y-118901503D01*
X151546144Y-118724680D01*
X151528728Y-118547857D01*
X151477151Y-118377830D01*
X151393394Y-118221131D01*
X151281651Y-118084972D01*
X151303659Y-118065318D01*
X151410032Y-117924068D01*
X151486805Y-117764780D01*
X151516333Y-117667422D01*
X151437949Y-117527680D01*
X150712780Y-117527680D01*
X150712780Y-117547680D01*
X150566780Y-117547680D01*
X150566780Y-117527680D01*
X150546780Y-117527680D01*
X150546780Y-117381680D01*
X150566780Y-117381680D01*
X150566780Y-116656134D01*
X150712780Y-116656134D01*
X150712780Y-117381680D01*
X151437949Y-117381680D01*
X151516333Y-117241938D01*
X151486805Y-117144580D01*
X151410032Y-116985292D01*
X151303659Y-116844042D01*
X151171773Y-116726259D01*
X151019443Y-116636469D01*
X150852523Y-116578122D01*
X150712780Y-116656134D01*
X150566780Y-116656134D01*
X150427037Y-116578122D01*
X150260117Y-116636469D01*
X150107787Y-116726259D01*
X150010210Y-116813402D01*
X149873329Y-116701066D01*
X149716630Y-116617309D01*
X149546603Y-116565732D01*
X149414087Y-116552680D01*
X149325473Y-116552680D01*
X149192957Y-116565732D01*
X149022930Y-116617309D01*
X148866231Y-116701066D01*
X148728884Y-116813784D01*
X148635412Y-116927680D01*
X147172970Y-116927680D01*
X146639417Y-116394127D01*
X146646194Y-116396183D01*
X146725000Y-116403945D01*
X147675000Y-116403945D01*
X147753806Y-116396183D01*
X147829583Y-116373197D01*
X147899420Y-116335868D01*
X147960632Y-116285632D01*
X148000000Y-116237663D01*
X148039368Y-116285632D01*
X148100580Y-116335868D01*
X148170417Y-116373197D01*
X148246194Y-116396183D01*
X148325000Y-116403945D01*
X149275000Y-116403945D01*
X149353806Y-116396183D01*
X149429583Y-116373197D01*
X149499420Y-116335868D01*
X149560632Y-116285632D01*
X149610868Y-116224420D01*
X149648197Y-116154583D01*
X149671183Y-116078806D01*
X149676286Y-116027000D01*
X150323714Y-116027000D01*
X150328817Y-116078806D01*
X150351803Y-116154583D01*
X150389132Y-116224420D01*
X150439368Y-116285632D01*
X150500580Y-116335868D01*
X150570417Y-116373197D01*
X150646194Y-116396183D01*
X150725000Y-116403945D01*
X151675000Y-116403945D01*
X151753806Y-116396183D01*
X151829583Y-116373197D01*
X151899420Y-116335868D01*
X151960632Y-116285632D01*
X152000000Y-116237663D01*
X152039368Y-116285632D01*
X152100580Y-116335868D01*
X152170417Y-116373197D01*
X152246194Y-116396183D01*
X152325000Y-116403945D01*
X152626500Y-116402000D01*
X152727000Y-116301500D01*
X152727000Y-115573000D01*
X152707000Y-115573000D01*
X152707000Y-115427000D01*
X152727000Y-115427000D01*
X152727000Y-115407000D01*
X152873000Y-115407000D01*
X152873000Y-115427000D01*
G36*
X142773000Y-123427000D02*
G01*
X142793000Y-123427000D01*
X142793000Y-123573000D01*
X142773000Y-123573000D01*
X142773000Y-123593000D01*
X142627000Y-123593000D01*
X142627000Y-123573000D01*
X141848500Y-123573000D01*
X141829130Y-123592370D01*
X141785632Y-123539368D01*
X141737663Y-123500000D01*
X141785632Y-123460632D01*
X141829130Y-123407630D01*
X141848500Y-123427000D01*
X142627000Y-123427000D01*
X142627000Y-123407000D01*
X142773000Y-123407000D01*
X142773000Y-123427000D01*
X142773000Y-123427000D01*
G37*
X142773000Y-123427000D02*
X142793000Y-123427000D01*
X142793000Y-123573000D01*
X142773000Y-123573000D01*
X142773000Y-123593000D01*
X142627000Y-123593000D01*
X142627000Y-123573000D01*
X141848500Y-123573000D01*
X141829130Y-123592370D01*
X141785632Y-123539368D01*
X141737663Y-123500000D01*
X141785632Y-123460632D01*
X141829130Y-123407630D01*
X141848500Y-123427000D01*
X142627000Y-123427000D01*
X142627000Y-123407000D01*
X142773000Y-123407000D01*
X142773000Y-123427000D01*
G36*
X119073000Y-123127000D02*
G01*
X119093000Y-123127000D01*
X119093000Y-123273000D01*
X119073000Y-123273000D01*
X119073000Y-123293000D01*
X118927000Y-123293000D01*
X118927000Y-123273000D01*
X118907000Y-123273000D01*
X118907000Y-123127000D01*
X118927000Y-123127000D01*
X118927000Y-123107000D01*
X119073000Y-123107000D01*
X119073000Y-123127000D01*
X119073000Y-123127000D01*
G37*
X119073000Y-123127000D02*
X119093000Y-123127000D01*
X119093000Y-123273000D01*
X119073000Y-123273000D01*
X119073000Y-123293000D01*
X118927000Y-123293000D01*
X118927000Y-123273000D01*
X118907000Y-123273000D01*
X118907000Y-123127000D01*
X118927000Y-123127000D01*
X118927000Y-123107000D01*
X119073000Y-123107000D01*
X119073000Y-123127000D01*
G36*
X144346055Y-122850000D02*
G01*
X144353817Y-122928806D01*
X144376803Y-123004583D01*
X144379214Y-123009094D01*
X144332522Y-122977895D01*
X144204766Y-122924977D01*
X144069141Y-122898000D01*
X143930859Y-122898000D01*
X143795234Y-122924977D01*
X143667478Y-122977895D01*
X143620786Y-123009094D01*
X143623197Y-123004583D01*
X143646183Y-122928806D01*
X143653945Y-122850000D01*
X143653945Y-122602000D01*
X143769141Y-122602000D01*
X143904766Y-122575023D01*
X144032522Y-122522105D01*
X144147499Y-122445279D01*
X144245279Y-122347499D01*
X144258976Y-122327000D01*
X144346055Y-122327000D01*
X144346055Y-122850000D01*
X144346055Y-122850000D01*
G37*
X144346055Y-122850000D02*
X144353817Y-122928806D01*
X144376803Y-123004583D01*
X144379214Y-123009094D01*
X144332522Y-122977895D01*
X144204766Y-122924977D01*
X144069141Y-122898000D01*
X143930859Y-122898000D01*
X143795234Y-122924977D01*
X143667478Y-122977895D01*
X143620786Y-123009094D01*
X143623197Y-123004583D01*
X143646183Y-122928806D01*
X143653945Y-122850000D01*
X143653945Y-122602000D01*
X143769141Y-122602000D01*
X143904766Y-122575023D01*
X144032522Y-122522105D01*
X144147499Y-122445279D01*
X144245279Y-122347499D01*
X144258976Y-122327000D01*
X144346055Y-122327000D01*
X144346055Y-122850000D01*
G36*
X126096055Y-116675000D02*
G01*
X126103817Y-116753806D01*
X126126803Y-116829583D01*
X126164132Y-116899420D01*
X126214368Y-116960632D01*
X126262337Y-117000000D01*
X126214368Y-117039368D01*
X126164132Y-117100580D01*
X126126803Y-117170417D01*
X126103817Y-117246194D01*
X126096055Y-117325000D01*
X126098000Y-117626500D01*
X126198500Y-117727000D01*
X126927000Y-117727000D01*
X126927000Y-117707000D01*
X127073000Y-117707000D01*
X127073000Y-117727000D01*
X128427000Y-117727000D01*
X128427000Y-117707000D01*
X128573000Y-117707000D01*
X128573000Y-117727000D01*
X128593000Y-117727000D01*
X128593000Y-117873000D01*
X128573000Y-117873000D01*
X128573000Y-118576500D01*
X128673500Y-118677000D01*
X129000000Y-118678945D01*
X129078806Y-118671183D01*
X129154583Y-118648197D01*
X129224420Y-118610868D01*
X129285632Y-118560632D01*
X129296287Y-118547650D01*
X129296055Y-118550000D01*
X129296055Y-119050000D01*
X129303817Y-119128806D01*
X129325413Y-119200000D01*
X129303817Y-119271194D01*
X129296055Y-119350000D01*
X129296055Y-119850000D01*
X129298320Y-119873000D01*
X127628690Y-119873000D01*
X127301335Y-119545646D01*
X127284828Y-119525532D01*
X127204582Y-119459676D01*
X127113030Y-119410741D01*
X127013690Y-119380606D01*
X126936261Y-119372980D01*
X126910380Y-119370431D01*
X126884499Y-119372980D01*
X125736377Y-119372980D01*
X125811245Y-119322954D01*
X125922954Y-119211245D01*
X126010724Y-119079890D01*
X126071180Y-118933935D01*
X126102000Y-118778990D01*
X126102000Y-118621010D01*
X126071180Y-118466065D01*
X126010724Y-118320110D01*
X125980582Y-118275000D01*
X126096055Y-118275000D01*
X126103817Y-118353806D01*
X126126803Y-118429583D01*
X126164132Y-118499420D01*
X126214368Y-118560632D01*
X126275580Y-118610868D01*
X126345417Y-118648197D01*
X126421194Y-118671183D01*
X126500000Y-118678945D01*
X126826500Y-118677000D01*
X126927000Y-118576500D01*
X126927000Y-117873000D01*
X127073000Y-117873000D01*
X127073000Y-118576500D01*
X127173500Y-118677000D01*
X127500000Y-118678945D01*
X127578806Y-118671183D01*
X127654583Y-118648197D01*
X127724420Y-118610868D01*
X127750000Y-118589875D01*
X127775580Y-118610868D01*
X127845417Y-118648197D01*
X127921194Y-118671183D01*
X128000000Y-118678945D01*
X128326500Y-118677000D01*
X128427000Y-118576500D01*
X128427000Y-117873000D01*
X127073000Y-117873000D01*
X126927000Y-117873000D01*
X126198500Y-117873000D01*
X126098000Y-117973500D01*
X126096055Y-118275000D01*
X125980582Y-118275000D01*
X125945909Y-118223109D01*
X125985868Y-118174420D01*
X126023197Y-118104583D01*
X126046183Y-118028806D01*
X126053945Y-117950000D01*
X126052000Y-117823500D01*
X125951500Y-117723000D01*
X125223000Y-117723000D01*
X125223000Y-117743000D01*
X125077000Y-117743000D01*
X125077000Y-117723000D01*
X125057000Y-117723000D01*
X125057000Y-117577000D01*
X125077000Y-117577000D01*
X125077000Y-117048500D01*
X125223000Y-117048500D01*
X125223000Y-117577000D01*
X125951500Y-117577000D01*
X126052000Y-117476500D01*
X126053945Y-117350000D01*
X126046183Y-117271194D01*
X126023197Y-117195417D01*
X125985868Y-117125580D01*
X125935632Y-117064368D01*
X125874420Y-117014132D01*
X125804583Y-116976803D01*
X125728806Y-116953817D01*
X125650000Y-116946055D01*
X125323500Y-116948000D01*
X125223000Y-117048500D01*
X125077000Y-117048500D01*
X124976500Y-116948000D01*
X124650000Y-116946055D01*
X124602000Y-116950783D01*
X124602000Y-116449217D01*
X124650000Y-116453945D01*
X125650000Y-116453945D01*
X125728806Y-116446183D01*
X125804583Y-116423197D01*
X125874420Y-116385868D01*
X125915688Y-116352000D01*
X126096055Y-116352000D01*
X126096055Y-116675000D01*
X126096055Y-116675000D01*
G37*
X126096055Y-116675000D02*
X126103817Y-116753806D01*
X126126803Y-116829583D01*
X126164132Y-116899420D01*
X126214368Y-116960632D01*
X126262337Y-117000000D01*
X126214368Y-117039368D01*
X126164132Y-117100580D01*
X126126803Y-117170417D01*
X126103817Y-117246194D01*
X126096055Y-117325000D01*
X126098000Y-117626500D01*
X126198500Y-117727000D01*
X126927000Y-117727000D01*
X126927000Y-117707000D01*
X127073000Y-117707000D01*
X127073000Y-117727000D01*
X128427000Y-117727000D01*
X128427000Y-117707000D01*
X128573000Y-117707000D01*
X128573000Y-117727000D01*
X128593000Y-117727000D01*
X128593000Y-117873000D01*
X128573000Y-117873000D01*
X128573000Y-118576500D01*
X128673500Y-118677000D01*
X129000000Y-118678945D01*
X129078806Y-118671183D01*
X129154583Y-118648197D01*
X129224420Y-118610868D01*
X129285632Y-118560632D01*
X129296287Y-118547650D01*
X129296055Y-118550000D01*
X129296055Y-119050000D01*
X129303817Y-119128806D01*
X129325413Y-119200000D01*
X129303817Y-119271194D01*
X129296055Y-119350000D01*
X129296055Y-119850000D01*
X129298320Y-119873000D01*
X127628690Y-119873000D01*
X127301335Y-119545646D01*
X127284828Y-119525532D01*
X127204582Y-119459676D01*
X127113030Y-119410741D01*
X127013690Y-119380606D01*
X126936261Y-119372980D01*
X126910380Y-119370431D01*
X126884499Y-119372980D01*
X125736377Y-119372980D01*
X125811245Y-119322954D01*
X125922954Y-119211245D01*
X126010724Y-119079890D01*
X126071180Y-118933935D01*
X126102000Y-118778990D01*
X126102000Y-118621010D01*
X126071180Y-118466065D01*
X126010724Y-118320110D01*
X125980582Y-118275000D01*
X126096055Y-118275000D01*
X126103817Y-118353806D01*
X126126803Y-118429583D01*
X126164132Y-118499420D01*
X126214368Y-118560632D01*
X126275580Y-118610868D01*
X126345417Y-118648197D01*
X126421194Y-118671183D01*
X126500000Y-118678945D01*
X126826500Y-118677000D01*
X126927000Y-118576500D01*
X126927000Y-117873000D01*
X127073000Y-117873000D01*
X127073000Y-118576500D01*
X127173500Y-118677000D01*
X127500000Y-118678945D01*
X127578806Y-118671183D01*
X127654583Y-118648197D01*
X127724420Y-118610868D01*
X127750000Y-118589875D01*
X127775580Y-118610868D01*
X127845417Y-118648197D01*
X127921194Y-118671183D01*
X128000000Y-118678945D01*
X128326500Y-118677000D01*
X128427000Y-118576500D01*
X128427000Y-117873000D01*
X127073000Y-117873000D01*
X126927000Y-117873000D01*
X126198500Y-117873000D01*
X126098000Y-117973500D01*
X126096055Y-118275000D01*
X125980582Y-118275000D01*
X125945909Y-118223109D01*
X125985868Y-118174420D01*
X126023197Y-118104583D01*
X126046183Y-118028806D01*
X126053945Y-117950000D01*
X126052000Y-117823500D01*
X125951500Y-117723000D01*
X125223000Y-117723000D01*
X125223000Y-117743000D01*
X125077000Y-117743000D01*
X125077000Y-117723000D01*
X125057000Y-117723000D01*
X125057000Y-117577000D01*
X125077000Y-117577000D01*
X125077000Y-117048500D01*
X125223000Y-117048500D01*
X125223000Y-117577000D01*
X125951500Y-117577000D01*
X126052000Y-117476500D01*
X126053945Y-117350000D01*
X126046183Y-117271194D01*
X126023197Y-117195417D01*
X125985868Y-117125580D01*
X125935632Y-117064368D01*
X125874420Y-117014132D01*
X125804583Y-116976803D01*
X125728806Y-116953817D01*
X125650000Y-116946055D01*
X125323500Y-116948000D01*
X125223000Y-117048500D01*
X125077000Y-117048500D01*
X124976500Y-116948000D01*
X124650000Y-116946055D01*
X124602000Y-116950783D01*
X124602000Y-116449217D01*
X124650000Y-116453945D01*
X125650000Y-116453945D01*
X125728806Y-116446183D01*
X125804583Y-116423197D01*
X125874420Y-116385868D01*
X125915688Y-116352000D01*
X126096055Y-116352000D01*
X126096055Y-116675000D01*
G36*
X144573000Y-117918290D02*
G01*
X144573000Y-118328245D01*
X144500000Y-118321055D01*
X144173500Y-118323000D01*
X144073000Y-118423500D01*
X144073000Y-119127000D01*
X144093000Y-119127000D01*
X144093000Y-119273000D01*
X144073000Y-119273000D01*
X144073000Y-119293000D01*
X143927000Y-119293000D01*
X143927000Y-119273000D01*
X142573000Y-119273000D01*
X142573000Y-119293000D01*
X142427000Y-119293000D01*
X142427000Y-119273000D01*
X141073000Y-119273000D01*
X141073000Y-119293000D01*
X140927000Y-119293000D01*
X140927000Y-119273000D01*
X140907000Y-119273000D01*
X140907000Y-119127000D01*
X140927000Y-119127000D01*
X140927000Y-118423500D01*
X141073000Y-118423500D01*
X141073000Y-119127000D01*
X142427000Y-119127000D01*
X142427000Y-118423500D01*
X142573000Y-118423500D01*
X142573000Y-119127000D01*
X143927000Y-119127000D01*
X143927000Y-118423500D01*
X143826500Y-118323000D01*
X143500000Y-118321055D01*
X143421194Y-118328817D01*
X143345417Y-118351803D01*
X143275580Y-118389132D01*
X143250000Y-118410125D01*
X143224420Y-118389132D01*
X143154583Y-118351803D01*
X143078806Y-118328817D01*
X143000000Y-118321055D01*
X142673500Y-118323000D01*
X142573000Y-118423500D01*
X142427000Y-118423500D01*
X142326500Y-118323000D01*
X142000000Y-118321055D01*
X141921194Y-118328817D01*
X141845417Y-118351803D01*
X141775580Y-118389132D01*
X141750000Y-118410125D01*
X141724420Y-118389132D01*
X141654583Y-118351803D01*
X141578806Y-118328817D01*
X141500000Y-118321055D01*
X141173500Y-118323000D01*
X141073000Y-118423500D01*
X140927000Y-118423500D01*
X140826500Y-118323000D01*
X140500000Y-118321055D01*
X140421194Y-118328817D01*
X140345417Y-118351803D01*
X140275580Y-118389132D01*
X140214368Y-118439368D01*
X140164132Y-118500580D01*
X140126803Y-118570417D01*
X140103817Y-118646194D01*
X140096055Y-118725000D01*
X140098000Y-119026500D01*
X140104424Y-119032924D01*
X140018012Y-119006711D01*
X139929566Y-118998000D01*
X139929556Y-118998000D01*
X139900000Y-118995089D01*
X139870444Y-118998000D01*
X139703945Y-118998000D01*
X139703945Y-118550000D01*
X139696183Y-118471194D01*
X139674587Y-118400000D01*
X139696183Y-118328806D01*
X139703945Y-118250000D01*
X139703945Y-117876756D01*
X139830859Y-117902000D01*
X139969141Y-117902000D01*
X140104766Y-117875023D01*
X140232522Y-117822105D01*
X140347499Y-117745279D01*
X140445279Y-117647499D01*
X140522105Y-117532522D01*
X140575023Y-117404766D01*
X140602000Y-117269141D01*
X140602000Y-117130859D01*
X140581342Y-117027000D01*
X143681711Y-117027000D01*
X144573000Y-117918290D01*
X144573000Y-117918290D01*
G37*
X144573000Y-117918290D02*
X144573000Y-118328245D01*
X144500000Y-118321055D01*
X144173500Y-118323000D01*
X144073000Y-118423500D01*
X144073000Y-119127000D01*
X144093000Y-119127000D01*
X144093000Y-119273000D01*
X144073000Y-119273000D01*
X144073000Y-119293000D01*
X143927000Y-119293000D01*
X143927000Y-119273000D01*
X142573000Y-119273000D01*
X142573000Y-119293000D01*
X142427000Y-119293000D01*
X142427000Y-119273000D01*
X141073000Y-119273000D01*
X141073000Y-119293000D01*
X140927000Y-119293000D01*
X140927000Y-119273000D01*
X140907000Y-119273000D01*
X140907000Y-119127000D01*
X140927000Y-119127000D01*
X140927000Y-118423500D01*
X141073000Y-118423500D01*
X141073000Y-119127000D01*
X142427000Y-119127000D01*
X142427000Y-118423500D01*
X142573000Y-118423500D01*
X142573000Y-119127000D01*
X143927000Y-119127000D01*
X143927000Y-118423500D01*
X143826500Y-118323000D01*
X143500000Y-118321055D01*
X143421194Y-118328817D01*
X143345417Y-118351803D01*
X143275580Y-118389132D01*
X143250000Y-118410125D01*
X143224420Y-118389132D01*
X143154583Y-118351803D01*
X143078806Y-118328817D01*
X143000000Y-118321055D01*
X142673500Y-118323000D01*
X142573000Y-118423500D01*
X142427000Y-118423500D01*
X142326500Y-118323000D01*
X142000000Y-118321055D01*
X141921194Y-118328817D01*
X141845417Y-118351803D01*
X141775580Y-118389132D01*
X141750000Y-118410125D01*
X141724420Y-118389132D01*
X141654583Y-118351803D01*
X141578806Y-118328817D01*
X141500000Y-118321055D01*
X141173500Y-118323000D01*
X141073000Y-118423500D01*
X140927000Y-118423500D01*
X140826500Y-118323000D01*
X140500000Y-118321055D01*
X140421194Y-118328817D01*
X140345417Y-118351803D01*
X140275580Y-118389132D01*
X140214368Y-118439368D01*
X140164132Y-118500580D01*
X140126803Y-118570417D01*
X140103817Y-118646194D01*
X140096055Y-118725000D01*
X140098000Y-119026500D01*
X140104424Y-119032924D01*
X140018012Y-119006711D01*
X139929566Y-118998000D01*
X139929556Y-118998000D01*
X139900000Y-118995089D01*
X139870444Y-118998000D01*
X139703945Y-118998000D01*
X139703945Y-118550000D01*
X139696183Y-118471194D01*
X139674587Y-118400000D01*
X139696183Y-118328806D01*
X139703945Y-118250000D01*
X139703945Y-117876756D01*
X139830859Y-117902000D01*
X139969141Y-117902000D01*
X140104766Y-117875023D01*
X140232522Y-117822105D01*
X140347499Y-117745279D01*
X140445279Y-117647499D01*
X140522105Y-117532522D01*
X140575023Y-117404766D01*
X140602000Y-117269141D01*
X140602000Y-117130859D01*
X140581342Y-117027000D01*
X143681711Y-117027000D01*
X144573000Y-117918290D01*
G36*
X119073000Y-116727000D02*
G01*
X119093000Y-116727000D01*
X119093000Y-116873000D01*
X119073000Y-116873000D01*
X119073000Y-116893000D01*
X118927000Y-116893000D01*
X118927000Y-116873000D01*
X118907000Y-116873000D01*
X118907000Y-116727000D01*
X118927000Y-116727000D01*
X118927000Y-116707000D01*
X119073000Y-116707000D01*
X119073000Y-116727000D01*
X119073000Y-116727000D01*
G37*
X119073000Y-116727000D02*
X119093000Y-116727000D01*
X119093000Y-116873000D01*
X119073000Y-116873000D01*
X119073000Y-116893000D01*
X118927000Y-116893000D01*
X118927000Y-116873000D01*
X118907000Y-116873000D01*
X118907000Y-116727000D01*
X118927000Y-116727000D01*
X118927000Y-116707000D01*
X119073000Y-116707000D01*
X119073000Y-116727000D01*
G36*
X131053817Y-115121194D02*
G01*
X131046055Y-115200000D01*
X131048000Y-115626500D01*
X131148500Y-115727000D01*
X131627000Y-115727000D01*
X131627000Y-115707000D01*
X131773000Y-115707000D01*
X131773000Y-115727000D01*
X131793000Y-115727000D01*
X131793000Y-115873000D01*
X131773000Y-115873000D01*
X131773000Y-115893000D01*
X131627000Y-115893000D01*
X131627000Y-115873000D01*
X131148500Y-115873000D01*
X131048000Y-115973500D01*
X131046055Y-116400000D01*
X131053817Y-116478806D01*
X131076803Y-116554583D01*
X131100010Y-116598000D01*
X131094239Y-116598000D01*
X131054583Y-116576803D01*
X130978806Y-116553817D01*
X130900000Y-116546055D01*
X129700000Y-116546055D01*
X129697643Y-116546287D01*
X129403945Y-116252590D01*
X129403945Y-115725000D01*
X129396183Y-115646194D01*
X129373197Y-115570417D01*
X129335868Y-115500580D01*
X129285632Y-115439368D01*
X129224420Y-115389132D01*
X129154583Y-115351803D01*
X129078806Y-115328817D01*
X129000000Y-115321055D01*
X128000000Y-115321055D01*
X127921194Y-115328817D01*
X127845417Y-115351803D01*
X127775580Y-115389132D01*
X127750000Y-115410125D01*
X127724420Y-115389132D01*
X127654583Y-115351803D01*
X127578806Y-115328817D01*
X127500000Y-115321055D01*
X126976265Y-115321055D01*
X126886071Y-115247034D01*
X126781490Y-115191134D01*
X126668012Y-115156711D01*
X126579566Y-115148000D01*
X126579556Y-115148000D01*
X126550000Y-115145089D01*
X126520444Y-115148000D01*
X125915688Y-115148000D01*
X125874420Y-115114132D01*
X125820180Y-115085140D01*
X131064754Y-115085140D01*
X131053817Y-115121194D01*
X131053817Y-115121194D01*
G37*
X131053817Y-115121194D02*
X131046055Y-115200000D01*
X131048000Y-115626500D01*
X131148500Y-115727000D01*
X131627000Y-115727000D01*
X131627000Y-115707000D01*
X131773000Y-115707000D01*
X131773000Y-115727000D01*
X131793000Y-115727000D01*
X131793000Y-115873000D01*
X131773000Y-115873000D01*
X131773000Y-115893000D01*
X131627000Y-115893000D01*
X131627000Y-115873000D01*
X131148500Y-115873000D01*
X131048000Y-115973500D01*
X131046055Y-116400000D01*
X131053817Y-116478806D01*
X131076803Y-116554583D01*
X131100010Y-116598000D01*
X131094239Y-116598000D01*
X131054583Y-116576803D01*
X130978806Y-116553817D01*
X130900000Y-116546055D01*
X129700000Y-116546055D01*
X129697643Y-116546287D01*
X129403945Y-116252590D01*
X129403945Y-115725000D01*
X129396183Y-115646194D01*
X129373197Y-115570417D01*
X129335868Y-115500580D01*
X129285632Y-115439368D01*
X129224420Y-115389132D01*
X129154583Y-115351803D01*
X129078806Y-115328817D01*
X129000000Y-115321055D01*
X128000000Y-115321055D01*
X127921194Y-115328817D01*
X127845417Y-115351803D01*
X127775580Y-115389132D01*
X127750000Y-115410125D01*
X127724420Y-115389132D01*
X127654583Y-115351803D01*
X127578806Y-115328817D01*
X127500000Y-115321055D01*
X126976265Y-115321055D01*
X126886071Y-115247034D01*
X126781490Y-115191134D01*
X126668012Y-115156711D01*
X126579566Y-115148000D01*
X126579556Y-115148000D01*
X126550000Y-115145089D01*
X126520444Y-115148000D01*
X125915688Y-115148000D01*
X125874420Y-115114132D01*
X125820180Y-115085140D01*
X131064754Y-115085140D01*
X131053817Y-115121194D01*
M02*
